<?xml version="1.0" encoding="UTF-8"?>
<svg xmlns="http://www.w3.org/2000/svg" xmlns:xlink="http://www.w3.org/1999/xlink" version="1.2" >
<font id="Clinton ExtraBold Italic">
<font-face  font-family="Clinton" units-per-em="1000" ascent="750" descent="-250" font-style="normal" font-weight="800" font-stretch="normal" cap-height="700" x-height="500" underline-position="-75" underline-thickness="50" />
<missing-glyph  horiz-adv-x="300" d="" />
<glyph glyph-name="NULL" d="" />
<glyph glyph-name="nonmarkingreturn" unicode="&#xd;" horiz-adv-x="287" d="" />
<glyph glyph-name="space" unicode="&#x20;" horiz-adv-x="287" d="" />
<glyph glyph-name="e" unicode="e" horiz-adv-x="674" d="M228 268 Q234 205 265 171 Q296 137 349 137 Q402 137 429.5 159 Q457 181 464 212 L622 192 Q610 148 587 111 Q564 74 528.5 47.5 Q493 21 445.5 6.5 Q398 -8 338 -8 Q276 -8 221.5 13 Q167 34 126.5 73 Q86 112 62.5 168.5 Q39 225 39 296 Q39 365 62.5 421 Q86 477 126.5 517.5 Q167 558 222 580 Q277 602 341 602 Q416 602 471.5 578 Q527 554 564 513 Q601 472 619.5 416 Q638 360 638 297 Q638 289 637.5 282 Q637 275 637 268 L228 268 Z M350 459 Q305 459 277 435.5 Q249 412 236 369 L466 369 Q454 410 426 434.5 Q398 459 350 459 Z " />
<glyph glyph-name="f" unicode="f" horiz-adv-x="452" d="M276 579 L276 505 L403 505 L403 387 L275 387 Q274 333 273 279 Q272 225 271.5 174 Q271 123 270.5 78.5 Q270 34 270 0 L81 0 L81 387 L15 387 L15 505 L81 505 L81 629 Q84 675 103 712 Q111 727 124 742 Q137 757 156 769 Q175 781 200.5 788 Q226 795 260 795 Q292 795 328 787 Q359 780 399 765.5 Q439 751 481 723 L434 607 Q411 618 390.5 627 Q370 636 341 636 Q312 636 294 622.5 Q276 609 276 579 Z " />
<glyph glyph-name="g" unicode="g" horiz-adv-x="705" d="M399 159 Q530 159 605 114 Q680 69 680 -20 Q680 -66 652 -100.5 Q624 -135 577.5 -158.5 Q531 -182 471.5 -193.5 Q412 -205 349 -205 Q275 -205 218.5 -193 Q162 -181 123.5 -160.5 Q85 -140 65 -114 Q45 -88 45 -60 Q45 -32 57 -15.5 Q69 1 83 10 Q100 21 122 25 Q104 33 91 47 Q79 59 69.5 78.5 Q60 98 60 129 Q60 158 69.5 179 Q79 200 94 215.5 Q109 231 128.5 241.5 Q148 252 168 260 Q129 286 106 323 Q83 360 83 407 Q83 455 104 491.5 Q125 528 161 552 Q197 576 245.5 588.5 Q294 601 349 601 Q412 601 461.5 586.5 Q511 572 548 540 Q550 548 553 556 Q556 564 561 572 Q574 593 592 606.5 Q610 620 627.5 627.5 Q645 635 659.5 638 Q674 641 680 642 Q680 609 680 570.5 Q680 532 679 499 Q670 501 650.5 500.5 Q631 500 611 486 Q607 484 604 481 Q601 478 598 475 Q606 458 610 443.5 Q614 429 614 407 Q614 361 593.5 325 Q573 289 537.5 263.5 Q502 238 453.5 224.5 Q405 211 349 211 Q316 211 291 215.5 Q266 220 242 226 Q240 226 233.5 224 Q227 222 220 218.5 Q213 215 207.5 209.5 Q202 204 202 196 Q202 175 247 167 Q292 159 399 159 Z M349 499 Q314 499 293.5 472 Q273 445 273 406 Q273 367 292 339.5 Q311 312 349 312 Q383 312 403.5 339.5 Q424 367 424 406 Q424 445 404 472 Q384 499 349 499 Z M352 -102 Q430 -102 472.5 -86 Q515 -70 515 -47 Q515 -24 470.5 -8 Q426 8 352 8 Q272 8 231 -1 Q190 -10 190 -47 Q190 -70 229 -86 Q268 -102 352 -102 Z " />
<glyph glyph-name="h" unicode="h" horiz-adv-x="667" d="M622 0 L436 0 L436 332 Q436 352 431 372 Q426 392 414.5 407.5 Q403 423 384.5 433 Q366 443 338 443 Q317 443 298.5 436 Q280 429 265.5 415.5 Q251 402 242.5 382.5 Q234 363 234 338 L234 0 L45 0 L45 795 L234 795 L234 483 Q238 506 254 527.5 Q270 549 294 565.5 Q318 582 348 591.5 Q378 601 410 601 Q452 601 490.5 586 Q529 571 558 542.5 Q587 514 604.5 472.5 Q622 431 622 378 L622 0 Z " />
<glyph glyph-name="i" unicode="i" horiz-adv-x="299" d="M257 838 L257 675 L41 675 L41 838 L257 838 Z M244 0 L55 0 L55 594 L244 594 L244 0 L244 0 Z " />
<glyph glyph-name="j" unicode="j" horiz-adv-x="428" d="M382 -40 Q381 -87 363 -123 Q355 -138 342.5 -153 Q330 -168 310.5 -179.5 Q291 -191 264.5 -198 Q238 -205 203 -205 Q168 -205 135 -200 Q107 -195 79 -184.5 Q51 -174 35 -154 L35 -32 Q47 -39 62 -44 Q75 -49 92.5 -52 Q110 -55 131 -55 Q152 -55 164 -47.5 Q176 -40 183 -30 Q190 -19 193 -4 L193 594 L382 594 L382 -40 Z M395 675 L179 675 L179 838 L395 838 L395 675 Z " />
<glyph glyph-name="k" unicode="k" horiz-adv-x="687" d="M439 0 L291 218 L244 169 L244 0 L55 0 L55 795 L244 795 L244 373 L425 594 L644 594 L419 330 L655 0 L439 0 L439 0 Z " />
<glyph glyph-name="l" unicode="l" horiz-adv-x="421" d="M56 795 L245 795 Q245 777 245 735 Q245 693 245.5 636.5 Q246 580 246.5 516 Q247 452 247.5 390.5 Q248 329 248 276 Q248 223 248 190 Q248 174 254 164.5 Q260 155 269 150.5 Q278 146 288 144.5 Q298 143 307 143 Q323 143 340 146 Q357 149 371 154 Q388 159 403 166 L403 44 Q376 23 346.5 12.5 Q317 2 292 -3 Q263 -8 235 -8 Q200 -8 173.5 -1 Q147 6 127.5 17.5 Q108 29 95.5 44 Q83 59 75 75 Q57 111 56 158 L56 795 Z " />
<glyph glyph-name="m" unicode="m" horiz-adv-x="1032" d="M987 379 L987 0 L800 0 L800 333 Q800 387 775 416 Q750 445 708 445 Q688 445 671 436.5 Q654 428 641.5 414 Q629 400 622 381 Q615 362 615 340 L615 0 L426 0 L426 333 Q426 379 401.5 412 Q377 445 332 445 Q287 445 260.5 414.5 Q234 384 235 340 L235 0 L45 0 L45 594 L236 594 L236 501 Q240 513 252.5 530.5 Q265 548 286 563.5 Q307 579 336 590.5 Q365 602 403 602 Q439 602 466.5 593.5 Q494 585 515.5 569 Q537 553 553.5 531.5 Q570 510 584 483 Q610 536 657 569 Q704 602 780 602 Q822 602 859.5 585 Q897 568 925.5 538 Q954 508 970.5 467.5 Q987 427 987 379 Z " />
<glyph glyph-name="n" unicode="n" horiz-adv-x="670" d="M625 0 L438 0 L438 339 Q439 359 434 379 Q429 399 417 415 Q405 431 386 441 Q367 451 340 451 Q298 451 266.5 424 Q235 397 235 346 L235 0 L45 0 L45 594 L235 594 L234 491 Q243 515 259.5 535.5 Q276 556 299 570.5 Q322 585 350.5 593.5 Q379 602 411 602 Q453 602 492 588 Q531 574 560.5 547 Q590 520 607.5 479.5 Q625 439 625 385 L625 0 Z " />
<glyph glyph-name="o" unicode="o" horiz-adv-x="672" d="M341 601 Q416 601 471.5 577 Q527 553 564 512 Q601 471 619.5 415.5 Q638 360 638 296 Q638 232 620 176.5 Q602 121 565 80 Q528 39 471.5 15.5 Q415 -8 338 -8 Q276 -8 221.5 12.5 Q167 33 126.5 72 Q86 111 62.5 167.5 Q39 224 39 296 Q39 364 62.5 420.5 Q86 477 126.5 517 Q167 557 222 579 Q277 601 341 601 Z M336 136 Q399 136 431 180 Q463 224 463 297 Q463 331 456 360 Q449 389 434 411 Q419 433 395 445.5 Q371 458 337 458 Q276 458 245 415 Q214 372 214 297 Q214 221 245 178.5 Q276 136 336 136 Z " />
<glyph glyph-name="p" unicode="p" horiz-adv-x="717" d="M443 602 Q503 602 550.5 578 Q598 554 630 512.5 Q662 471 679 415.5 Q696 360 696 297 Q696 234 679 178.5 Q662 123 630 81.5 Q598 40 550.5 16 Q503 -8 443 -8 Q376 -8 324.5 23.5 Q273 55 245 110 L245 -205 L55 -205 L55 594 L245 594 L245 492 Q271 541 322.5 571.5 Q374 602 443 602 Z M375 146 Q406 146 431 158.5 Q456 171 472.5 192.5 Q489 214 498 243 Q507 272 507 305 Q507 338 498 367 Q489 396 472.5 417.5 Q456 439 431 451.5 Q406 464 375 464 Q342 464 318 452 Q294 440 278 419 Q262 398 254 369.5 Q246 341 246 308 L246 305 L246 303 Q246 270 255 241.5 Q264 213 280.5 192 Q297 171 321 158.5 Q345 146 375 146 Z M245 308 L245 303 L245 305 L245 308 Z " />
<glyph glyph-name="q" unicode="q" horiz-adv-x="717" d="M21 297 Q21 360 38 415.5 Q55 471 87 512.5 Q119 554 166.5 578 Q214 602 274 602 Q343 602 394.5 571.5 Q446 541 472 492 L472 594 L662 594 L662 -205 L472 -205 L472 110 Q444 55 392 23.5 Q340 -8 274 -8 Q214 -8 166.5 16 Q119 40 87 81.5 Q55 123 38 178.5 Q21 234 21 297 Z M209 305 Q209 272 218 243 Q227 214 243.5 192.5 Q260 171 284.5 158.5 Q309 146 341 146 Q372 146 395.5 158.5 Q419 171 435.5 192 Q452 213 461 241.5 Q470 270 470 303 L470 305 L470 308 Q470 341 462 369.5 Q454 398 438 419 Q422 440 398 452 Q374 464 341 464 Q309 464 284.5 451.5 Q260 439 243.5 417.5 Q227 396 218 367 Q209 338 209 305 Z M472 308 L472 303 L472 305 L472 308 Z " />
<glyph glyph-name="r" unicode="r" horiz-adv-x="481" d="M469 440 Q462 441 445 441.5 Q428 442 407 440.5 Q386 439 362.5 434.5 Q339 430 320 421 Q289 406 270 387 Q251 368 243 357 L243 0 L54 0 L54 594 L238 594 L238 475 Q243 489 258.5 516.5 Q274 544 308 568 Q334 587 360.5 594 Q387 601 409.5 601.5 Q432 602 448 599 Q464 596 469 595 L469 440 Z " />
<glyph glyph-name="s" unicode="s" horiz-adv-x="628" d="M591 196 Q591 143 569 104.5 Q547 66 510 41 Q473 16 423 4 Q373 -8 318 -8 Q255 -8 203 8.5 Q151 25 114.5 52.5 Q78 80 57.5 115 Q37 150 37 186 L196 205 Q196 180 209.5 164.5 Q223 149 242.5 140.5 Q262 132 283 129 Q304 126 319 126 Q332 126 348.5 128 Q365 130 379.5 135 Q394 140 404 150 Q414 160 414 175 Q414 198 387 211 Q360 224 320 233.5 Q280 243 232.5 253 Q185 263 145 281.5 Q105 300 78 331 Q51 362 51 412 Q51 445 63.5 478.5 Q76 512 106 539.5 Q136 567 186 584.5 Q236 602 311 602 Q380 602 430 585.5 Q480 569 512.5 543 Q545 517 560 486 Q575 455 575 425 L415 405 Q415 409 412 420.5 Q409 432 398 444.5 Q387 457 365.5 466.5 Q344 476 307 476 Q268 476 248 464.5 Q228 453 228 437 Q228 414 255 402 Q282 390 322 380 Q362 370 409.5 359 Q457 348 497 329 Q537 310 564 278.5 Q591 247 591 196 Z " />
<glyph glyph-name="t" unicode="t" horiz-adv-x="477" d="M24 454 L24 567 Q73 565 102 592 Q131 619 147 653 Q165 693 173 743 L289 743 L289 594 L441 594 L441 454 L289 454 L289 194 Q289 179 295 168 Q300 158 312.5 150.5 Q325 143 350 143 Q371 143 388.5 146 Q406 149 419 154 Q434 159 447 166 L447 44 Q428 24 399.5 13.5 Q371 3 344 -2 Q312 -7 279 -8 Q244 -8 217.5 -1 Q191 6 171.5 17.5 Q152 29 139.5 44 Q127 59 119 75 Q101 111 100 158 L100 454 L24 454 Z " />
<glyph glyph-name="u" unicode="u" horiz-adv-x="682" d="M51 594 L236 594 L236 253 Q235 233 240 213 Q245 193 257 177 Q269 161 288 151.5 Q307 142 334 142 Q354 142 372.5 149 Q391 156 405.5 169.5 Q420 183 428.5 202 Q437 221 437 246 L437 594 L626 594 L626 0 L438 0 L438 102 Q429 78 412.5 58 Q396 38 373.5 23.5 Q351 9 322.5 0.5 Q294 -8 263 -8 Q221 -8 182.5 5.5 Q144 19 115 46 Q86 73 68.5 113.5 Q51 154 51 207 L51 594 Z " />
<glyph glyph-name="v" unicode="v" horiz-adv-x="688" d="M239 0 L25 594 L216 594 L340 168 L463 594 L653 594 L439 0 L239 0 L239 0 Z " />
<glyph glyph-name="w" unicode="w" horiz-adv-x="1013" d="M815 594 L998 594 L748 0 L597 0 L506 244 L416 0 L265 0 L15 594 L197 594 L354 167 L409 329 L303 594 L449 594 L506 417 L563 594 L710 594 L603 329 L659 167 L815 594 L815 594 Z " />
<glyph glyph-name="x" unicode="x" horiz-adv-x="702" d="M229 594 L340 426 L352 397 L362 426 L473 594 L664 594 L452 296 L667 0 L477 0 L362 166 L352 196 L341 166 L226 0 L35 0 L250 296 L40 594 L229 594 L229 594 Z " />
<glyph glyph-name="y" unicode="y" horiz-adv-x="668" d="M69 -48 Q70 -49 78.5 -53.5 Q87 -58 100.5 -61.5 Q114 -65 131 -65.5 Q148 -66 167 -58 Q194 -47 211.5 -23.5 Q229 0 232 30 L15 594 L205 594 L326 176 L447 594 L638 594 L392 -54 Q382 -82 363.5 -110.5 Q345 -139 318 -161.5 Q291 -184 256 -198.5 Q221 -213 177 -213 Q146 -214 117 -207.5 Q88 -201 69 -191 L69 -48 Z " />
<glyph glyph-name="z" unicode="z" horiz-adv-x="617" d="M55 109 L357 468 L63 468 L63 594 L561 594 L561 485 L260 126 L568 126 L568 0 L55 0 L55 109 L55 109 Z " />
<glyph glyph-name="A" unicode="A" horiz-adv-x="857" d="M35 0 L344 795 L514 795 L822 0 L615 0 L563 148 L292 147 L242 0 L35 0 L35 0 Z M428 604 L322 273 L531 273 L428 604 L428 604 Z " />
<glyph glyph-name="B" unicode="B" horiz-adv-x="743" d="M713 204 Q713 164 694 127 Q675 90 640 62 Q605 34 555.5 17 Q506 0 445 0 L45 0 L45 795 L489 795 Q530 795 564 777 Q598 759 623 729.5 Q648 700 661.5 663.5 Q675 627 675 591 Q675 526 638.5 479 Q602 432 542 408 Q580 396 611.5 379.5 Q643 363 665.5 339 Q688 315 700.5 282 Q713 249 713 204 Z M239 638 L239 474 L421 474 Q458 474 478.5 499.5 Q499 525 499 557 Q499 591 479 614.5 Q459 638 425 638 L239 638 Z M529 244 Q529 279 506 304 Q483 329 448 329 L239 329 L239 156 L445 156 Q463 156 478.5 163.5 Q494 171 505.5 183 Q517 195 523 211 Q529 227 529 244 Z " />
<glyph glyph-name="C" unicode="C" horiz-adv-x="871" d="M826 299 Q813 233 784 176.5 Q755 120 708 79 Q661 38 594.5 15 Q528 -8 439 -8 Q359 -8 287.5 17.5 Q216 43 162 93.5 Q108 144 76.5 219 Q45 294 45 393 Q45 477 72.5 550.5 Q100 624 152 678.5 Q204 733 277.5 765 Q351 797 444 797 Q523 797 588.5 775.5 Q654 754 702.5 715 Q751 676 782.5 620 Q814 564 825 495 L649 475 Q641 511 626 542 Q611 573 588 595.5 Q565 618 532.5 630.5 Q500 643 458 643 Q400 643 362.5 619.5 Q325 596 303 560 Q281 524 272.5 480 Q264 436 264 395 Q264 277 316 212.5 Q368 148 456 148 Q533 148 580.5 190.5 Q628 233 648 312 L826 299 Z " />
<glyph glyph-name="D" unicode="D" horiz-adv-x="817" d="M45 0 L45 795 L364 795 Q448 795 522 766 Q596 737 651.5 684.5 Q707 632 739.5 559.5 Q772 487 772 399 Q772 311 739.5 237.5 Q707 164 651.5 111.5 Q596 59 522 29.5 Q448 0 364 0 L45 0 Z M561 399 Q561 448 544.5 492.5 Q528 537 501 570.5 Q474 604 438.5 623.5 Q403 643 364 643 L249 643 L249 152 L364 152 Q404 152 440 173 Q476 194 503 229 Q530 264 545.5 308 Q561 352 561 399 Z " />
<glyph glyph-name="E" unicode="E" horiz-adv-x="667" d="M249 644 L249 474 L572 474 L572 321 L249 321 L249 152 L627 152 L627 0 L111 0 L111 0 L45 0 L45 795 L627 795 L627 644 L249 644 L249 644 Z " />
<glyph glyph-name="F" unicode="F" horiz-adv-x="672" d="M249 644 L249 474 L557 474 L557 321 L249 321 L249 0 L45 0 L45 795 L627 795 L627 644 L249 644 L249 644 Z " />
<glyph glyph-name="G" unicode="G" horiz-adv-x="873" d="M828 402 L828 0 L651 0 L651 77 Q619 35 563 13.5 Q507 -8 438 -8 Q359 -8 287.5 17.5 Q216 43 162 93.5 Q108 144 76.5 219 Q45 294 45 393 Q45 477 72.5 550.5 Q100 624 152 678.5 Q204 733 277.5 765 Q351 797 444 797 Q523 797 588.5 775.5 Q654 754 702.5 715 Q751 676 782.5 620 Q814 564 825 495 L649 475 Q641 511 626.5 542 Q612 573 588.5 595.5 Q565 618 532.5 630.5 Q500 643 458 643 Q400 643 362.5 619.5 Q325 596 303 560 Q281 524 272.5 480 Q264 436 264 395 Q264 277 316.5 212.5 Q369 148 457 148 Q523 148 562 176 Q601 204 627 255 L482 255 L482 402 L828 402 Z " />
<glyph glyph-name="H" unicode="H" horiz-adv-x="806" d="M761 795 L761 0 L558 0 L558 299 L248 299 L248 0 L45 0 L45 795 L248 795 L248 450 L558 450 L558 795 L761 795 L761 795 Z " />
<glyph glyph-name="I" unicode="I" horiz-adv-x="293" d="M248 0 L45 0 L45 795 L248 795 L248 0 L248 0 Z " />
<glyph glyph-name="J" unicode="J" horiz-adv-x="629" d="M85 215 Q100 204 114.5 193.5 Q129 183 147 175 Q165 167 188 161.5 Q211 156 243 156 Q294 156 322.5 177 Q351 198 364 232.5 Q377 267 379.5 310.5 Q382 354 382 400 L382 795 L577 795 L577 357 Q577 274 562.5 206.5 Q548 139 513 91.5 Q478 44 420.5 18 Q363 -8 276 -8 Q241 -8 205 0 Q169 8 136.5 20 Q104 32 76.5 46.5 Q49 61 30 75 L85 215 Z " />
<glyph glyph-name="K" unicode="K" horiz-adv-x="806" d="M45 0 L45 795 L242 795 L242 453 L526 795 L760 795 L450 440 L781 0 L552 0 L324 324 L242 238 L242 0 L45 0 L45 0 Z " />
<glyph glyph-name="L" unicode="L" horiz-adv-x="647" d="M622 151 L622 1 Q473 1 333.5 0.5 Q194 0 45 0 L45 795 L248 795 L248 151 L622 151 Z " />
<glyph glyph-name="M" unicode="M" horiz-adv-x="962" d="M715 0 L715 478 L533 124 L429 124 L248 478 L248 0 L45 0 L45 795 L273 795 L481 354 L690 795 L917 795 L917 0 L715 0 L715 0 Z " />
<glyph glyph-name="N" unicode="N" horiz-adv-x="804" d="M759 795 L759 0 L527 0 L249 549 L249 0 L45 0 L45 795 L286 795 L556 263 L556 795 L759 795 Z " />
<glyph glyph-name="O" unicode="O" horiz-adv-x="898" d="M449 800 Q544 800 619 768 Q694 736 746 681.5 Q798 627 825.5 553.5 Q853 480 853 396 Q853 305 823 230.5 Q793 156 739.5 103 Q686 50 612 21 Q538 -8 449 -8 Q349 -8 273.5 24 Q198 56 147 110.5 Q96 165 70.5 238.5 Q45 312 45 396 Q45 480 73 553.5 Q101 627 153.5 681.5 Q206 736 281 768 Q356 800 449 800 Z M449 148 Q495 148 532 166 Q569 184 594 216.5 Q619 249 632.5 295 Q646 341 646 397 Q646 449 634.5 494 Q623 539 599 573 Q575 607 538 626.5 Q501 646 449 646 Q397 646 359.5 626 Q322 606 298 572.5 Q274 539 262.5 493.5 Q251 448 251 397 Q251 346 263 300.5 Q275 255 299 221 Q323 187 360.5 167.5 Q398 148 449 148 Z " />
<glyph glyph-name="P" unicode="P" horiz-adv-x="740" d="M45 0 L45 795 L418 795 Q481 795 532 774 Q583 753 619 717 Q655 681 674.5 632 Q694 583 694 526 Q694 470 673 421 Q652 372 615.5 335 Q579 298 529.5 277 Q480 256 424 256 L248 256 L248 0 L45 0 Z M248 397 L398 397 Q421 397 439.5 409 Q458 421 471.5 439.5 Q485 458 492 481 Q499 504 499 526 Q499 548 490 570.5 Q481 593 466 611 Q451 629 431.5 640.5 Q412 652 391 652 L248 652 L248 397 Z " />
<glyph glyph-name="Q" unicode="Q" horiz-adv-x="902" d="M857 0 L667 0 L626 44 Q588 18 545 5 Q502 -8 449 -8 Q349 -8 273.5 24 Q198 56 147 110.5 Q96 165 70.5 238.5 Q45 312 45 396 Q45 480 73 553.5 Q101 627 153.5 681.5 Q206 736 281 768 Q356 800 449 800 Q544 800 619 768 Q694 736 746 681.5 Q798 627 825.5 553.5 Q853 480 853 396 Q853 311 821.5 244.5 Q790 178 742 128 L857 0 Z M449 148 Q489 148 523 162 L393 308 L584 308 L622 265 Q646 320 646 397 Q646 449 634.5 494 Q623 539 599 573 Q575 607 538 626.5 Q501 646 449 646 Q397 646 359.5 626 Q322 606 298 572.5 Q274 539 262.5 493.5 Q251 448 251 397 Q251 346 263 300.5 Q275 255 299 221 Q323 187 360.5 167.5 Q398 148 449 148 Z " />
<glyph glyph-name="R" unicode="R" horiz-adv-x="789" d="M769 0 L538 0 L369 257 L254 257 L254 0 L45 0 L45 795 L430 795 Q495 795 548.5 774 Q602 753 640 717 Q678 681 698.5 632 Q719 583 719 526 Q719 445 675.5 380.5 Q632 316 560 283 L769 0 Z M254 397 L409 397 Q433 397 452.5 409 Q472 421 486 439.5 Q500 458 507.5 481 Q515 504 515 526 Q515 548 506 570.5 Q497 593 481 611 Q465 629 444.5 640.5 Q424 652 401 652 L254 652 L254 397 Z " />
<glyph glyph-name="S" unicode="S" horiz-adv-x="817" d="M414 -8 Q347 -8 283 8.5 Q219 25 167.5 56 Q116 87 83 131 Q50 175 45 229 L233 252 Q237 222 255 201.5 Q273 181 298.5 168.5 Q324 156 355 150 Q386 144 416 144 Q485 144 523 169 Q561 194 561 227 Q561 256 539.5 274.5 Q518 293 483 305.5 Q448 318 403.5 327.5 Q359 337 312 348 Q265 359 220.5 374 Q176 389 141 412 Q106 435 84.5 469 Q63 503 63 553 Q63 625 95 672 Q127 719 176.5 747 Q226 775 287 786.5 Q348 798 405 798 Q479 798 540 782.5 Q601 767 645.5 739 Q690 711 717 671.5 Q744 632 750 584 L560 561 Q558 564 552 579.5 Q546 595 529.5 612 Q513 629 482 642.5 Q451 656 399 656 Q345 656 309.5 638 Q274 620 274 588 Q274 559 295.5 541 Q317 523 352 510 Q387 497 431.5 487 Q476 477 523 465.5 Q570 454 614.5 438.5 Q659 423 694 399 Q729 375 750.5 339.5 Q772 304 772 253 Q772 202 753 155 Q734 108 691.5 72 Q649 36 580.5 14 Q512 -8 414 -8 Z " />
<glyph glyph-name="T" unicode="T" horiz-adv-x="759" d="M734 795 L734 645 L481 645 L481 0 L277 0 L277 645 L25 645 L25 795 L734 795 L734 795 Z " />
<glyph glyph-name="U" unicode="U" horiz-adv-x="851" d="M806 795 L806 388 Q806 306 781.5 234 Q757 162 709 108 Q661 54 589.5 23 Q518 -8 425 -8 Q330 -8 258.5 23 Q187 54 139.5 108 Q92 162 68.5 234 Q45 306 45 388 L45 795 L240 795 L240 388 Q240 332 254 290 Q268 248 293 220 Q318 192 352 178 Q386 164 425 164 Q465 164 499 178.5 Q533 193 558 221.5 Q583 250 597 292 Q611 334 611 388 L611 795 L806 795 Z " />
<glyph glyph-name="V" unicode="V" horiz-adv-x="879" d="M247 795 L441 231 L631 795 L849 795 L531 0 L350 0 L30 795 L247 795 L247 795 Z " />
<glyph glyph-name="W" unicode="W" horiz-adv-x="1311" d="M383 794 L567 794 L654 539 L744 794 L927 794 L778 424 L864 210 L1071 795 L1291 795 L951 0 L782 0 L655 311 L528 0 L360 0 L20 795 L238 795 L447 210 L530 424 L383 794 L383 794 Z " />
<glyph glyph-name="X" unicode="X" horiz-adv-x="877" d="M255 795 L439 521 L623 795 L832 795 L541 392 L828 0 L614 0 L439 263 L265 0 L49 0 L336 392 L45 795 L255 795 L255 795 Z " />
<glyph glyph-name="Y" unicode="Y" horiz-adv-x="833" d="M237 795 L415 430 L596 795 L813 795 L510 271 L510 0 L319 0 L319 273 L20 795 L237 795 L237 795 Z " />
<glyph glyph-name="Z" unicode="Z" horiz-adv-x="749" d="M30 135 L457 645 L41 645 L41 795 L700 795 L700 659 L278 150 L704 150 L704 0 L30 0 L30 135 L30 135 Z " />
<glyph glyph-name="zero" unicode="0" horiz-adv-x="636" d="M321 643 Q389 643 439.5 617.5 Q490 592 524 548 Q558 504 574.5 444.5 Q591 385 591 317 Q591 249 574.5 189.5 Q558 130 524.5 86 Q491 42 439.5 17 Q388 -8 318 -8 Q261 -8 211.5 14 Q162 36 125 78 Q88 120 66.5 180 Q45 240 45 317 Q45 390 66.5 450 Q88 510 125 553 Q162 596 212.5 619.5 Q263 643 321 643 Z M316 146 Q373 146 402.5 193 Q432 240 432 318 Q432 354 425.5 385.5 Q419 417 405 440 Q391 463 369.5 476.5 Q348 490 317 490 Q261 490 233 443.5 Q205 397 205 318 Q205 237 233.5 191.5 Q262 146 316 146 Z " />
<glyph glyph-name="one" unicode="1" horiz-adv-x="436" d="M202 0 L202 448 Q191 437 172.5 423.5 Q154 410 128 398 Q103 387 82 381.5 Q61 376 45 374 L45 540 Q62 545 85 553.5 Q108 562 134 579 Q158 595 174.5 611.5 Q191 628 202 641 L391 641 L391 0 L202 0 Z " />
<glyph glyph-name="two" unicode="2" horiz-adv-x="624" d="M45 0 L45 65 Q45 126 71.5 172 Q98 218 137.5 254 Q177 290 223.5 317 Q270 344 309.5 368 Q349 392 375.5 414.5 Q402 437 402 463 Q402 466 399 476 Q396 486 388 496.5 Q380 507 364 515.5 Q348 524 323 524 Q278 524 250.5 494.5 Q223 465 223 423 L55 443 Q74 544 144 596.5 Q214 649 329 649 Q390 649 436 632 Q482 615 512.5 587 Q543 559 558.5 523.5 Q574 488 574 451 Q574 405 553.5 369 Q533 333 501.5 304 Q470 275 433 252 Q396 229 362 210 Q328 191 302 174.5 Q276 158 268 142 L579 143 L579 0 L45 0 Z " />
<glyph glyph-name="three" unicode="3" horiz-adv-x="675" d="M286 325 Q323 325 353 333 Q383 341 403 355 Q423 369 434 387 Q445 405 445 425 Q445 467 419.5 493 Q394 519 355 519 Q334 519 316 511 Q298 503 285 490 Q272 477 264 459.5 Q256 442 255 423 L83 443 Q95 497 122 535.5 Q149 574 185.5 599.5 Q222 625 264.5 637 Q307 649 351 649 Q405 649 450.5 633.5 Q496 618 528.5 590.5 Q561 563 579 526 Q597 489 597 446 Q597 398 580.5 366.5 Q564 335 543 315 Q522 295 503 285.5 Q484 276 480 273 Q486 270 510 260.5 Q534 251 561 230 Q588 209 609 174 Q630 139 630 84 Q630 36 607.5 -6 Q585 -48 546.5 -79.5 Q508 -111 456.5 -129 Q405 -147 347 -147 Q292 -147 240 -130.5 Q188 -114 146 -83.5 Q104 -53 77 -8.5 Q50 36 45 93 L223 119 Q223 95 232 73 Q241 51 257.5 34.5 Q274 18 297 8.5 Q320 -1 348 -1 Q373 -1 393.5 7.5 Q414 16 428.5 29.5 Q443 43 450.5 59.5 Q458 76 458 93 Q458 115 449.5 134 Q441 153 420.5 166.5 Q400 180 367 188 Q334 196 286 196 L286 325 Z " />
<glyph glyph-name="four" unicode="4" horiz-adv-x="697" d="M353 -147 L353 0 L45 0 L45 143 L404 641 L544 641 L544 144 L652 144 L652 0 L544 0 L544 -147 L353 -147 L353 -147 Z M215 144 L386 144 L386 377 L215 144 L215 144 Z " />
<glyph glyph-name="five" unicode="5" horiz-adv-x="675" d="M234 305 Q256 333 295.5 351 Q335 369 389 369 Q443 369 487.5 350 Q532 331 563.5 298 Q595 265 612.5 219.5 Q630 174 630 121 Q630 66 609.5 17 Q589 -32 551.5 -68.5 Q514 -105 462 -126 Q410 -147 347 -147 Q286 -147 236 -130 Q186 -113 148 -81.5 Q110 -50 84 -5.5 Q58 39 45 93 L223 119 Q229 64 264.5 31.5 Q300 -1 348 -1 Q377 -1 399.5 10.5 Q422 22 438 40.5 Q454 59 462 83 Q470 107 470 132 Q470 160 460.5 183 Q451 206 434 222.5 Q417 239 394.5 248 Q372 257 346 257 Q313 257 291 246.5 Q269 236 255.5 223.5 Q242 211 235.5 199.5 Q229 188 228 187 Q185 187 142 187 Q99 187 56 186 Q70 301 83 414 Q96 527 110 641 Q221 641 338.5 641 Q456 641 567 640 Q567 604 567 568 Q567 532 566 496 Q488 497 412 497.5 Q336 498 258 499 Q252 450 246 401.5 Q240 353 234 305 Z " />
<glyph glyph-name="six" unicode="6" horiz-adv-x="685" d="M640 265 Q640 205 617.5 155 Q595 105 555 68.5 Q515 32 461.5 12 Q408 -8 346 -8 Q264 -8 207 22.5 Q150 53 114 105 Q78 157 61.5 224.5 Q45 292 45 366 Q45 438 59 513 Q73 588 107.5 649.5 Q142 711 199 750 Q256 789 343 789 Q417 789 469 768.5 Q521 748 554.5 718 Q588 688 605 654 Q622 620 627 593 L471 574 Q469 587 459.5 602 Q450 617 435 629 Q420 641 400 649 Q380 657 356 657 Q326 657 300 640.5 Q274 624 254.5 594 Q235 564 224 522 Q213 480 213 429 Q236 471 279.5 497.5 Q323 524 382 524 Q439 524 486.5 504.5 Q534 485 568 450.5 Q602 416 621 368.5 Q640 321 640 265 Z M351 140 Q377 140 400 149.5 Q423 159 440 176 Q457 193 467 215.5 Q477 238 477 265 Q477 286 470 309 Q463 332 448 351 Q433 370 409.5 382.5 Q386 395 353 395 Q324 395 301.5 383.5 Q279 372 263.5 354 Q248 336 239.5 312.5 Q231 289 231 265 Q231 241 240 218.5 Q249 196 265 178.5 Q281 161 303 150.5 Q325 140 351 140 Z " />
<glyph glyph-name="seven" unicode="7" horiz-adv-x="678" d="M366 497 L45 497 L45 641 L633 641 L263 -147 L45 -147 L366 497 L366 497 Z " />
<glyph glyph-name="eight" unicode="8" horiz-adv-x="699" d="M654 241 Q654 181 628 135 Q602 89 559 57 Q516 25 461 8.5 Q406 -8 348 -8 Q289 -8 234 8.5 Q179 25 137 57.5 Q95 90 70 137.5 Q45 185 45 247 Q45 289 62.5 320 Q80 351 102.5 372 Q125 393 146.5 405 Q168 417 176 422 Q167 429 150.5 441.5 Q134 454 118 473 Q102 492 90 517.5 Q78 543 78 575 Q78 621 101 660.5 Q124 700 162 728.5 Q200 757 249 773 Q298 789 350 789 Q401 789 450 774 Q499 759 537.5 731.5 Q576 704 599 664.5 Q622 625 622 577 Q622 543 610 517 Q598 491 581.5 472.5 Q565 454 548.5 441.5 Q532 429 523 422 Q530 417 551.5 405 Q573 393 595.5 371.5 Q618 350 636 318 Q654 286 654 241 Z M472 246 Q472 267 463.5 287.5 Q455 308 439.5 324 Q424 340 401 350 Q378 360 350 360 Q322 360 299 351 Q276 342 259.5 326.5 Q243 311 234 291.5 Q225 272 225 251 Q225 231 232.5 210.5 Q240 190 255.5 173.5 Q271 157 294.5 146 Q318 135 350 135 Q379 135 402 145.5 Q425 156 440.5 172 Q456 188 464 208 Q472 228 472 246 Z M256 560 Q256 522 283 498.5 Q310 475 350 475 Q393 475 418.5 500 Q444 525 444 560 Q444 595 421.5 621.5 Q399 648 350 648 Q303 648 279.5 620.5 Q256 593 256 560 Z " />
<glyph glyph-name="nine" unicode="9" horiz-adv-x="643" d="M22 376 Q22 436 44.5 486 Q67 536 107 572.5 Q147 609 200.5 629 Q254 649 316 649 Q398 649 455 618.5 Q512 588 548 536 Q584 484 600.5 416.5 Q617 349 617 276 Q617 204 603 129 Q589 54 555 -7.5 Q521 -69 463.5 -108 Q406 -147 320 -147 Q246 -147 194 -126.5 Q142 -106 108.5 -76 Q75 -46 57.5 -12 Q40 22 36 49 L191 68 Q193 54 202.5 39.5 Q212 25 227 13 Q242 1 262 -7 Q282 -15 306 -15 Q336 -15 362 1.5 Q388 18 407.5 48 Q427 78 438 119.5 Q449 161 449 212 Q426 170 382.5 144 Q339 118 280 118 Q223 118 175.5 137.5 Q128 157 94 191.5 Q60 226 41 273 Q22 320 22 376 Z M311 501 Q285 501 262 491.5 Q239 482 222 465.5 Q205 449 195 426 Q185 403 185 376 Q185 355 192 332 Q199 309 214 290.5 Q229 272 252.5 259.5 Q276 247 309 247 Q337 247 360 258 Q383 269 398.5 287.5 Q414 306 422.5 329 Q431 352 431 376 Q431 400 422 422.5 Q413 445 397 462.5 Q381 480 359 490.5 Q337 501 311 501 Z " />
<glyph glyph-name="ampersand" unicode="&#x26;" horiz-adv-x="867" d="M598 0 L545 55 Q532 46 510 35.5 Q488 25 459.5 15 Q431 5 397 -1.5 Q363 -8 326 -8 Q278 -8 228 6.5 Q178 21 137.5 51.5 Q97 82 71 128.5 Q45 175 45 238 Q45 284 61.5 320 Q78 356 99.5 381.5 Q121 407 141 422 Q161 437 167 442 Q161 448 148.5 461.5 Q136 475 123.5 494.5 Q111 514 101.5 539 Q92 564 92 593 Q92 631 107.5 667 Q123 703 152.5 731.5 Q182 760 225.5 777.5 Q269 795 326 795 Q377 795 420 779 Q463 763 494 737 Q525 711 542.5 677 Q560 643 560 607 Q560 564 542 528.5 Q524 493 502.5 468 Q481 443 462 428.5 Q443 414 442 413 L563 284 Q571 294 574.5 308.5 Q578 323 579 340.5 Q580 358 578 376 Q576 394 573 410 L749 410 Q748 387 744 357.5 Q740 328 729 293 Q718 258 701 226.5 Q684 195 671 176 Q714 131 759.5 88 Q805 45 848 0 L598 0 Z M442 164 Q401 206 361.5 247.5 Q322 289 282 331 Q258 319 242.5 299 Q227 279 221 256.5 Q215 234 220 212 Q225 190 241 174 Q257 158 280 148 Q303 138 330 135.5 Q357 133 386 139.5 Q415 146 442 164 Z M272 603 Q272 595 276.5 585.5 Q281 576 288.5 566 Q296 556 304.5 546 Q313 536 322 529 Q344 544 365 564 Q386 584 386 607 Q386 632 368.5 645 Q351 658 327 658 Q303 658 287.5 644.5 Q272 631 272 603 Z " />
<glyph glyph-name="numbersign" unicode="&#x23;" horiz-adv-x="868" d="M823 458 L646 458 L615 331 L768 331 L767 199 L582 199 L533 0 L383 0 L433 199 L325 199 L276 0 L126 0 L176 199 L45 199 L46 331 L209 331 L240 458 L100 458 L101 580 L270 580 L323 789 L473 789 L419 580 L527 580 L580 789 L730 789 L676 580 L823 580 L823 458 L823 458 Z M466 331 L495 458 L389 458 L358 331 L466 331 L466 331 Z " />
<glyph glyph-name="question" unicode="&#x3f;" horiz-adv-x="609" d="M383 261 L216 261 Q216 317 229 354 Q242 391 261.5 417 Q281 443 304 462 Q327 481 346.5 500 Q366 519 379 542.5 Q392 566 392 602 Q392 612 386.5 623.5 Q381 635 370 645 Q359 655 343 661.5 Q327 668 306 668 Q291 668 274.5 661.5 Q258 655 244.5 642.5 Q231 630 222 611 Q213 592 212 567 L45 587 Q54 639 78 678 Q102 717 137.5 742.5 Q173 768 217.5 781 Q262 794 313 794 Q375 794 422 777 Q469 760 500.5 732.5 Q532 705 548 669 Q564 633 564 595 Q564 544 550.5 511 Q537 478 517 454.5 Q497 431 473.5 413.5 Q450 396 430 376 Q410 356 396.5 329.5 Q383 303 383 261 Z M382 0 L216 0 L216 172 L382 172 L382 0 Z " />
<glyph glyph-name="exclam" unicode="&#x21;" horiz-adv-x="256" d="M211 261 L45 261 L45 789 L211 789 L211 261 L211 261 Z M211 0 L45 0 L45 172 L211 172 L211 0 L211 0 Z " />
<glyph glyph-name="parenleft" unicode="&#x28;" horiz-adv-x="415" d="M368 787 Q322 735 286 669 Q255 612 229.5 532 Q204 452 204 353 Q204 253 229.5 172 Q255 91 287 32 Q323 -37 370 -91 L204 -91 Q159 -28 124 45 Q94 107 69.5 187 Q45 267 45 355 Q45 442 69 520 Q93 598 122 658 Q156 728 200 787 L368 787 Z " />
<glyph glyph-name="parenright" unicode="&#x29;" horiz-adv-x="415" d="M215 787 Q258 728 292 658 Q307 628 321 593.5 Q335 559 346 520 Q357 481 363.5 439.5 Q370 398 370 355 Q370 311 363 269 Q356 227 345 187.5 Q334 148 319.5 112 Q305 76 290 45 Q255 -28 211 -91 L45 -91 Q91 -37 128 32 Q159 90 185 171.5 Q211 253 211 353 Q211 452 185.5 532 Q160 612 129 669 Q93 735 47 787 L215 787 Z " />
<glyph glyph-name="quotedbl" unicode="&#x22;" horiz-adv-x="435" d="M298 704 L245 704 L245 846 L390 846 L390 704 L311 597 L245 597 L298 704 Z M98 704 L45 704 L45 846 L190 846 L190 704 L111 597 L45 597 L98 704 Z " />
<glyph glyph-name="slash" unicode="&#x2f;" horiz-adv-x="847" d="M802 789 L241 0 L45 0 L605 789 L802 789 L802 789 Z " />
<glyph glyph-name="backslash" unicode="&#x5c;" horiz-adv-x="728" d="M226 789 L683 0 L487 0 L29 789 L226 789 L226 789 Z " />
<glyph glyph-name="at" unicode="&#x40;" horiz-adv-x="1005" d="M960 338 Q960 300 949 258 Q938 216 913 180.5 Q888 145 847.5 122 Q807 99 749 99 Q702 99 669 111 Q636 123 614.5 138.5 Q593 154 583 167.5 Q573 181 573 184 Q553 140 510.5 119.5 Q468 99 409 99 Q377 99 349 107.5 Q321 116 300.5 132 Q280 148 268 171 Q256 194 256 223 Q256 275 279 305.5 Q302 336 343 354 Q384 372 440.5 382 Q497 392 565 405 Q565 437 554 453.5 Q543 470 530 478 Q515 486 496 486 Q465 486 443 467 Q421 448 419 417 L275 430 Q280 465 292 491 Q304 517 321 536 Q338 555 357.5 567 Q377 579 397 587 Q444 605 499 604 Q552 604 592.5 590.5 Q633 577 661 555 Q689 533 703 506 Q717 479 717 451 L717 289 Q717 256 726 236.5 Q735 217 747.5 207.5 Q760 198 773.5 195.5 Q787 193 797 193 Q827 193 846.5 210 Q866 227 877.5 250 Q889 273 894 298 Q899 323 899 338 Q899 414 870 485.5 Q841 557 789 612.5 Q737 668 663.5 701.5 Q590 735 502 735 Q420 735 348 704 Q276 673 222 619 Q168 565 137 492.5 Q106 420 106 338 Q106 250 139 177 Q172 104 227 52 Q282 0 353.5 -29 Q425 -58 502 -58 Q561 -58 603 -48 Q645 -38 674 -23.5 Q703 -9 722 7 Q741 23 755 34 Q765 23 774.5 11.5 Q784 0 795 -11 Q777 -28 749 -46.5 Q721 -65 684.5 -81.5 Q648 -98 602 -108.5 Q556 -119 502 -119 Q415 -119 332.5 -85.5 Q250 -52 186 8 Q122 68 83.5 152 Q45 236 45 338 Q45 436 82 519.5 Q119 603 181.5 664.5 Q244 726 327 761 Q410 796 502 796 Q604 796 688 758 Q772 720 832.5 656.5 Q893 593 926.5 510 Q960 427 960 338 Z M540 243 Q550 255 555.5 268.5 Q561 282 563.5 294 Q566 306 565.5 315 Q565 324 565 327 Q540 320 517 316.5 Q494 313 474.5 309 Q455 305 440 298.5 Q425 292 417 279 Q413 274 411 269 Q409 264 409 253 Q409 233 423.5 222 Q438 211 458 209 Q478 207 500.5 215.5 Q523 224 540 243 Z " />
<glyph glyph-name="asterisk" unicode="&#x2a;" horiz-adv-x="396" d="M74 633 L127 711 L45 741 L76 819 L154 783 L150 871 L245 871 L242 783 L320 819 L351 741 L269 711 L323 633 L252 588 L198 671 L144 588 L74 633 L74 633 Z " />
<glyph glyph-name="less" unicode="&#x3c;" horiz-adv-x="523" d="M45 323 L478 594 L478 420 L275 298 L478 183 L478 0 L45 265 L45 323 L45 323 Z " />
<glyph glyph-name="greater" unicode="&#x3e;" horiz-adv-x="523" d="M478 265 L45 0 L45 183 L248 298 L45 420 L45 594 L478 323 L478 265 L478 265 Z " />
<glyph glyph-name="percent" unicode="&#x25;" horiz-adv-x="899" d="M234 796 Q280 796 315 782.5 Q350 769 373 745.5 Q396 722 407.5 690.5 Q419 659 419 623 Q419 587 407.5 555.5 Q396 524 373 501 Q350 478 314.5 464.5 Q279 451 231 451 Q192 451 158.5 462.5 Q125 474 99.5 496.5 Q74 519 59.5 550.5 Q45 582 45 623 Q45 662 59.5 693.5 Q74 725 99.5 748 Q125 771 159.5 783.5 Q194 796 234 796 Z M230 533 Q269 533 289 557.5 Q309 582 309 624 Q309 662 291 688.5 Q273 715 231 715 Q193 715 173.5 690.5 Q154 666 154 624 Q154 581 173.5 557 Q193 533 230 533 Z M671 335 Q717 335 752 321.5 Q787 308 810 285 Q833 262 844.5 230 Q856 198 856 162 Q856 126 845 94.5 Q834 63 810.5 40 Q787 17 752 3.5 Q717 -10 669 -10 Q630 -10 596 2 Q562 14 536.5 36 Q511 58 496.5 90 Q482 122 482 162 Q482 201 496.5 233 Q511 265 536.5 287.5 Q562 310 596.5 322.5 Q631 335 671 335 Z M668 72 Q707 72 727 96.5 Q747 121 747 163 Q747 201 728.5 227.5 Q710 254 668 254 Q630 254 611 229.5 Q592 205 592 163 Q592 120 611.5 96 Q631 72 668 72 Z M183 -9 L108 52 Q188 142 265 232.5 Q342 323 418 416 Q494 510 567.5 603.5 Q641 697 713 794 Q733 778 751.5 763 Q770 748 789 732 Q708 641 630 550.5 Q552 460 476 366 Q400 273 327.5 180 Q255 87 183 -9 Z " />
<glyph glyph-name="asciicircum" unicode="&#x5e;" horiz-adv-x="591" d="M41 494 L240 871 L347 871 L546 494 L421 494 L294 732 L163 494 L41 494 L41 494 Z " />
<glyph glyph-name="underscore" unicode="&#x5f;" horiz-adv-x="430" d="M385 0 L45 0 L45 125 L385 125 L385 0 L385 0 Z " />
<glyph glyph-name="plus" unicode="&#x2b;" horiz-adv-x="422" d="M377 356 L377 228 L283 228 L283 125 L140 125 L140 228 L45 228 L45 356 L140 356 L140 460 L283 460 L283 356 L377 356 L377 356 Z " />
<glyph glyph-name="bar" unicode="&#x7c;" horiz-adv-x="222" d="M177 -108 L45 -108 L45 864 L177 864 L177 -108 L177 -108 Z " />
<glyph glyph-name="hyphen" unicode="&#x2d;" horiz-adv-x="386" d="M341 225 L45 225 L45 363 L341 363 L341 225 L341 225 Z " />
<glyph glyph-name="equal" unicode="&#x3d;" horiz-adv-x="390" d="M45 339 L45 439 L345 439 L345 339 L45 339 L45 339 Z M45 149 L45 249 L345 249 L345 149 L45 149 L45 149 Z " />
<glyph glyph-name="bracketleft" unicode="&#x5b;" horiz-adv-x="284" d="M45 -55 L45 841 L239 841 L239 720 L185 720 L185 66 L239 66 L239 -55 L45 -55 L45 -55 Z " />
<glyph glyph-name="bracketright" unicode="&#x5d;" horiz-adv-x="284" d="M45 -55 L45 66 L99 66 L99 720 L45 720 L45 841 L239 841 L239 -55 L45 -55 L45 -55 Z " />
<glyph glyph-name="semicolon" unicode="&#x3b;" horiz-adv-x="235" d="M98 0 L45 -107 L112 -107 L190 0 L190 142 L45 142 L45 0 L98 0 L98 0 Z M190 344 L45 344 L45 486 L190 486 L190 344 L190 344 Z " />
<glyph glyph-name="colon" unicode="&#x3a;" horiz-adv-x="235" d="M190 344 L45 344 L45 486 L190 486 L190 344 L190 344 Z M190 0 L45 0 L45 142 L190 142 L190 0 L190 0 Z " />
<glyph glyph-name="quotesingle" unicode="&#x27;" horiz-adv-x="235" d="M98 704 L45 704 L45 846 L190 846 L190 704 L111 597 L45 597 L98 704 L98 704 Z " />
<glyph glyph-name="braceleft" unicode="&#x7b;" horiz-adv-x="337" d="M249 725 Q236 711 235 698 Q234 685 234 666 L234 549 Q234 489 213 453 Q202 436 189 420.5 Q176 405 152 393 Q176 381 189 365.5 Q202 350 213 333 Q234 297 234 237 L234 120 Q234 101 235 88 Q236 75 249 61 Q258 52 272.5 47.5 Q287 43 292 42 L292 -55 Q286 -55 281 -55 Q276 -55 268 -54 Q260 -53 243 -50.5 Q226 -48 206.5 -41 Q187 -34 167 -21 Q147 -8 133 15 Q127 24 118.5 45 Q110 66 111 99 L111 244 Q111 249 111 259 Q111 269 108.5 281 Q106 293 99.5 306 Q93 319 80 330 Q70 338 61 341 Q52 344 45 345 L45 441 Q52 442 61 445.5 Q70 449 80 457 Q93 467 99.5 480.5 Q106 494 108.5 506.5 Q111 519 111 528.5 Q111 538 111 542 L111 687 Q110 720 118.5 741 Q127 762 133 771 Q147 793 167 806.5 Q187 820 206.5 827 Q226 834 243 836.5 Q260 839 268 840 Q276 841 281 841 Q286 841 292 841 L292 744 Q287 743 272.5 739 Q258 735 249 725 Z " />
<glyph glyph-name="braceright" unicode="&#x7d;" horiz-adv-x="337" d="M88 725 Q79 735 64.5 739 Q50 743 45 744 L45 841 Q51 841 56 841 Q61 841 69 840 Q77 839 93.5 836.5 Q110 834 130 827 Q150 820 170 806.5 Q190 793 204 771 Q209 762 217.5 741 Q226 720 226 687 L226 542 Q226 538 226 528.5 Q226 519 228.5 506.5 Q231 494 237.5 480.5 Q244 467 257 457 Q267 449 276 445.5 Q285 442 292 441 L292 345 Q285 344 276 341 Q267 338 257 330 Q244 319 237.5 306 Q231 293 228.5 281 Q226 269 226 259 Q226 249 226 244 L226 99 Q226 66 217.5 45 Q209 24 204 15 Q190 -8 170 -21 Q150 -34 130 -41 Q110 -48 93.5 -50.5 Q77 -53 69 -54 Q61 -55 55.5 -55 Q50 -55 45 -55 L45 42 Q49 43 64 47.5 Q79 52 88 61 Q101 75 102 88 Q103 101 103 120 L103 237 Q103 297 124 333 Q134 350 147 365.5 Q160 381 184 393 Q160 405 147 420.5 Q134 436 123 453 Q103 490 103 549 L103 666 Q103 685 102 698 Q101 711 88 725 Z " />
<glyph glyph-name="comma" unicode="&#x2c;" horiz-adv-x="235" d="M98 0 L45 0 L45 142 L190 142 L190 0 L111 -107 L45 -107 L98 0 L98 0 Z " />
<glyph glyph-name="period" unicode="&#x2e;" horiz-adv-x="225" d="M40 0 L40 142 L185 142 L185 0 L40 0 Z " />
<glyph glyph-name="d" unicode="d" horiz-adv-x="729" d="M298 -8 Q238 -8 190.5 16 Q143 40 111 81.5 Q79 123 62 178.5 Q45 234 45 297 Q45 360 62 415.5 Q79 471 111 512.5 Q143 554 190.5 578 Q238 602 298 602 Q364 602 415 571 Q466 540 494 484 L494 795 L684 795 L684 0 L494 0 L494 103 Q468 54 417.5 23 Q367 -8 298 -8 Z M367 448 Q335 448 310.5 435.5 Q286 423 269.5 401.5 Q253 380 244 351 Q235 322 235 289 Q235 256 244 227 Q253 198 269.5 176.5 Q286 155 310.5 142.5 Q335 130 367 130 Q400 130 424 142 Q448 154 464 175 Q480 196 488 224.5 Q496 253 496 286 L496 289 L496 291 Q496 324 487 352.5 Q478 381 461.5 402 Q445 423 421 435.5 Q397 448 367 448 Z M494 289 L494 291 L494 286 L494 289 Z " />
<glyph glyph-name="fi" unicode="&#xfb01;" horiz-adv-x="627" d="M594 506 L594 0 L405 0 L405 387 L281 387 Q279 290 278.5 193.5 Q278 97 276 0 L87 0 L87 387 L21 387 L21 506 L87 506 L87 630 Q90 676 109 713 Q117 728 130 743 Q143 758 162 770 Q181 782 206.5 789 Q232 796 266 796 Q297 798 333 791 Q364 785 403.5 770 Q443 755 488 724 L441 607 Q418 619 397 628 Q376 637 347 637 Q318 637 300 623.5 Q282 610 282 580 L282 506 L594 506 Z " />
<glyph glyph-name="sterling" unicode="&#xa3;" horiz-adv-x="559" d="M45 435 L119 435 Q104 460 94 480 Q84 500 78 519 Q72 538 69.5 557.5 Q67 577 67 601 Q67 649 83.5 686 Q100 723 128 749 Q156 775 194 788.5 Q232 802 276 802 Q320 802 357.5 791 Q395 780 424.5 764.5 Q454 749 475.5 732.5 Q497 716 509 706 L454 593 Q439 601 425.5 610.5 Q412 620 396.5 627.5 Q381 635 362.5 640 Q344 645 320 645 Q289 645 268 624.5 Q247 604 247 560 Q247 523 259.5 495 Q272 467 284 435 L481 435 L481 314 L307 314 Q307 297 305.5 278.5 Q304 260 296.5 240 Q289 220 274 197 Q259 174 233 147 Q259 155 285 160 Q311 165 342 165 Q368 165 389 160 Q410 155 429.5 151 Q449 147 468.5 146 Q488 145 510 153 L539 24 Q521 13 500.5 5.5 Q480 -2 445 -2 Q419 -2 395 3 Q371 8 346.5 13.5 Q322 19 295 24 Q268 29 237 29 Q202 29 162.5 21.5 Q123 14 76 -3 L45 138 Q64 154 82.5 172.5 Q101 191 115 212.5 Q129 234 137.5 259 Q146 284 146 314 L45 314 L45 435 Z " />
<glyph glyph-name="copyright" unicode="&#xa9;" horiz-adv-x="864" d="M440 260 Q488 260 515.5 286.5 Q543 313 551 360 L694 349 Q688 304 669 265.5 Q650 227 617 199 Q584 171 537 155 Q490 139 429 139 Q373 139 324.5 156.5 Q276 174 240 206.5 Q204 239 183 286 Q162 333 162 393 Q162 450 183 497.5 Q204 545 240 578.5 Q276 612 325.5 630.5 Q375 649 432 649 Q490 649 536 633.5 Q582 618 614.5 590.5 Q647 563 666.5 525 Q686 487 693 443 L551 428 Q545 472 518.5 500.5 Q492 529 441 529 Q387 529 359 493 Q331 457 331 394 Q331 331 359 295.5 Q387 260 440 260 Z M432 796 Q518 796 594 764.5 Q670 733 726.5 678.5 Q783 624 816 550.5 Q849 477 849 394 Q849 311 816 237.5 Q783 164 726.5 109.5 Q670 55 594 23.5 Q518 -8 432 -8 Q345 -8 269 23.5 Q193 55 136.5 109.5 Q80 164 47.5 237.5 Q15 311 15 394 Q15 477 47.5 550.5 Q80 624 136.5 678.5 Q193 733 269 764.5 Q345 796 432 796 Z M431 58 Q503 58 566 84.5 Q629 111 676.5 156.5 Q724 202 751 263 Q778 324 778 393 Q778 462 751 523 Q724 584 676.5 629.5 Q629 675 566 701.5 Q503 728 431 728 Q359 728 296 701.5 Q233 675 185.5 629.5 Q138 584 111 523 Q84 462 84 393 Q84 324 111 263 Q138 202 185.5 156.5 Q233 111 296 84.5 Q359 58 431 58 Z " />
<glyph glyph-name="registered" unicode="&#xae;" horiz-adv-x="864" d="M654 173 L525 173 L431 320 L365 320 L365 173 L249 173 L249 630 L465 630 Q501 630 531 618 Q561 606 582.5 585 Q604 564 615.5 536 Q627 508 627 475 Q627 429 602 392 Q577 355 538 336 L654 173 Z M365 401 L453 401 Q466 401 477 408 Q488 415 496 425.5 Q504 436 508 449.5 Q512 463 512 475 Q512 488 507 501 Q502 514 493 524.5 Q484 535 472.5 541.5 Q461 548 449 548 L365 548 L365 401 Z M432 796 Q518 796 594 764.5 Q670 733 726.5 678.5 Q783 624 816 550.5 Q849 477 849 394 Q849 311 816 237.5 Q783 164 726.5 109.5 Q670 55 594 23.5 Q518 -8 432 -8 Q346 -8 270 23.5 Q194 55 137.5 109.5 Q81 164 48 237.5 Q15 311 15 394 Q15 477 48 550.5 Q81 624 137.5 678.5 Q194 733 270 764.5 Q346 796 432 796 Z M431 58 Q503 58 566 84.5 Q629 111 676.5 156.5 Q724 202 751 263 Q778 324 778 393 Q778 462 751 523 Q724 584 676.5 629.5 Q629 675 566 701.5 Q503 728 431 728 Q359 728 296 701.5 Q233 675 185.5 629.5 Q138 584 111 523 Q84 462 84 393 Q84 324 111 263 Q138 202 185.5 156.5 Q233 111 296 84.5 Q359 58 431 58 Z " />
<glyph glyph-name="Euro" unicode="&#x20ac;" horiz-adv-x="902" d="M882 299 Q869 233 840 176.5 Q811 120 764 79 Q717 38 650.5 15 Q584 -8 495 -8 Q432 -8 373 8.5 Q314 25 265 57.5 Q216 90 179 138 Q142 186 122 250 L20 250 L64 355 L102 355 Q101 365 101 374 Q101 383 101 393 L101 395 L20 395 L64 501 L113 501 Q128 565 161.5 619 Q195 673 244.5 712.5 Q294 752 358.5 774.5 Q423 797 500 797 Q579 797 644.5 775.5 Q710 754 758.5 715 Q807 676 838.5 620 Q870 564 881 495 L705 475 Q697 511 682 542 Q667 573 644 595.5 Q621 618 588.5 630.5 Q556 643 514 643 Q474 643 443.5 631.5 Q413 620 391.5 600.5 Q370 581 355.5 555 Q341 529 333 501 L619 501 L575 395 L320 395 Q320 384 320 374.5 Q320 365 321 355 L564 355 L520 250 L349 250 Q373 200 415 174 Q457 148 512 148 Q589 148 636.5 191 Q684 234 704 313 L882 299 Z " />
<glyph glyph-name="germandbls" unicode="&#xdf;" horiz-adv-x="626" d="M276 163 Q336 163 367.5 192 Q399 221 399 262 Q399 302 369 331.5 Q339 361 275 361 L275 520 Q322 520 341.5 537.5 Q361 555 361 586 Q361 614 344 632 Q327 650 295 650 Q264 650 249.5 630.5 Q235 611 235 583 L235 0 L45 0 L45 590 Q45 638 63 677 Q81 716 113 743.5 Q145 771 189.5 785.5 Q234 800 287 800 Q341 800 384.5 785.5 Q428 771 459.5 746 Q491 721 508 687 Q525 653 525 614 Q525 577 516 551 Q507 525 493.5 506.5 Q480 488 464 475.5 Q448 463 435 454 Q465 444 492 426.5 Q519 409 538.5 382.5 Q558 356 569.5 320.5 Q581 285 581 240 Q581 189 566.5 145 Q552 101 516.5 69 Q481 37 422.5 18.5 Q364 0 276 0 L276 163 Z " />
<glyph glyph-name="guillemotright" unicode="&#xbb;" horiz-adv-x="623" d="M362 299 L192 56 L45 56 L215 299 L45 542 L192 542 L362 299 L362 299 Z M627 299 L457 56 L310 56 L480 299 L310 542 L457 542 L627 299 L627 299 Z " />
<glyph glyph-name="guillemotleft" unicode="&#xab;" horiz-adv-x="623" d="M310 299 L480 542 L627 542 L457 299 L627 56 L480 56 L310 299 Z M45 299 L215 542 L362 542 L192 299 L362 56 L215 56 L45 299 Z " />
<glyph glyph-name="fl" unicode="&#xfb02;" horiz-adv-x="762" d="M758 175 L758 53 Q731 31 701.5 20.5 Q672 10 647 5 Q618 0 590 0 Q555 0 528.5 7 Q502 14 482.5 25.5 Q463 37 450.5 52 Q438 67 430 83 Q412 120 411 167 L411 546 Q411 575 390.5 596 Q370 617 341 618 Q312 618 291.5 603 Q271 588 271 559 L271 515 L352 515 L352 396 L271 396 L271 0 L80 0 Q80 92 80 193.5 Q80 295 81 396 L15 396 L15 515 L81 515 L81 590 Q81 640 100 677.5 Q119 715 151.5 740.5 Q184 766 228 779 Q272 792 322 792 L360 792 Q410 792 453.5 773 Q497 754 530 721.5 Q563 689 582 645.5 Q601 602 601 552 Q601 478 601.5 416.5 Q602 355 602.5 309.5 Q603 264 603 236 Q603 208 603 199 Q603 195 604 186 Q605 177 612 169 Q622 158 636 155 Q650 152 662 152 Q678 152 695 155 Q712 158 726 163 Q743 168 758 175 Z " />
<glyph glyph-name="dollar" unicode="&#x24;" horiz-adv-x="818" d="M439 485 Q475 476 514 467.5 Q553 459 590 447.5 Q627 436 660.5 420 Q694 404 719 381 Q744 358 758.5 327 Q773 296 773 254 Q773 207 756.5 162.5 Q740 118 703.5 82.5 Q667 47 609 22.5 Q551 -2 468 -8 L468 -97 L350 -97 L350 -6 Q292 1 238.5 20.5 Q185 40 143.5 70 Q102 100 75.5 139.5 Q49 179 45 227 L233 250 Q237 225 250.5 206.5 Q264 188 283.5 175.5 Q303 163 327 155.5 Q351 148 377 145 L377 332 Q324 344 268 358 Q212 372 166.5 395.5 Q121 419 92 456 Q63 493 63 551 Q63 614 88 658 Q113 702 153.5 730.5 Q194 759 245 773.5 Q296 788 348 793 L348 883 L467 883 L467 793 Q528 787 578 769.5 Q628 752 664.5 724.5 Q701 697 723 661 Q745 625 751 583 L561 559 Q559 562 554 575 Q549 588 536.5 603.5 Q524 619 501 633 Q478 647 439 652 L439 485 Z M274 586 Q274 553 303 533.5 Q332 514 377 500 L377 654 Q332 650 303 632.5 Q274 615 274 586 Z M439 143 Q498 148 530 171.5 Q562 195 562 226 Q562 244 552.5 258 Q543 272 526.5 283 Q510 294 487.5 302.5 Q465 311 439 318 L439 143 Z " />
<glyph glyph-name="grave" unicode="&#x60;" horiz-adv-x="833" d="" />
<glyph glyph-name="fraction" unicode="&#x2044;" horiz-adv-x="300" d="M529 989 L-32 200 L-228 200 L332 989 L529 989 L529 989 Z " />
<glyph glyph-name="asciitilde" unicode="&#x7e;" horiz-adv-x="833" d="" />
<glyph glyph-name="trademark" unicode="&#x2122;" horiz-adv-x="764" d="M652 484 L652 671 L573 533 L528 533 L450 671 L450 484 L362 484 L362 795 L461 795 L551 623 L641 795 L739 795 L739 484 L652 484 L652 484 Z M331 794 L331 737 L222 737 L222 484 L134 484 L134 737 L25 737 L25 794 L331 794 L331 794 Z " />
<glyph glyph-name="b" unicode="b" horiz-adv-x="733" d="M688 297 Q688 234 671 178 Q654 122 621 81 Q588 40 540.5 16 Q493 -8 433 -8 Q364 -8 312.5 22.5 Q261 53 235 102 L235 0 L45 0 L45 795 L235 795 L235 484 Q263 539 315 570.5 Q367 602 433 602 Q493 602 540.5 578 Q588 554 621 512.5 Q654 471 671 415.5 Q688 360 688 297 Z M499 289 Q499 322 490 351 Q481 380 464.5 401.5 Q448 423 423 435.5 Q398 448 367 448 Q336 448 312.5 435.5 Q289 423 272.5 402 Q256 381 247 352.5 Q238 324 238 291 L238 289 L238 286 Q238 253 246 224.5 Q254 196 270 175 Q286 154 310 142 Q334 130 367 130 Q398 130 423 142.5 Q448 155 464.5 176.5 Q481 198 490 227 Q499 256 499 289 Z " />
<glyph glyph-name="a" unicode="a" horiz-adv-x="728" d="M598 163 Q598 143 608.5 133.5 Q619 124 633 122 Q647 120 661 124 Q675 128 683 134 L683 28 Q671 18 654 10 Q640 3 618.5 -2.5 Q597 -8 571 -8 Q532 -8 505.5 4.5 Q479 17 462.5 33.5 Q446 50 438 67.5 Q430 85 427 94 Q415 65 389 43 Q367 23 328.5 7.5 Q290 -8 230 -8 Q183 -8 148.5 4.5 Q114 17 91 39 Q68 61 56.5 90.5 Q45 120 45 155 Q45 204 66 234 Q87 264 115.5 282 Q144 300 172 307.5 Q200 315 214 319 Q234 324 250.5 328 Q267 332 288 336.5 Q309 341 339.5 347 Q370 353 418 361 Q418 401 397.5 429.5 Q377 458 331 458 Q291 458 268.5 434.5 Q246 411 242 375 Q197 377 154.5 383 Q112 389 67 391 Q72 436 92.5 474 Q113 512 146.5 540.5 Q180 569 227 585 Q274 601 333 601 Q413 601 464.5 581.5 Q516 562 545.5 532.5 Q575 503 586.5 468 Q598 433 598 402 L598 163 Z M230 181 Q230 158 243 144 Q256 130 275.5 125 Q295 120 318.5 124.5 Q342 129 362 143 Q395 166 406 194 Q417 222 417 266 Q387 258 354 253.5 Q321 249 293.5 242 Q266 235 248 221.5 Q230 208 230 181 Z " />
<glyph glyph-name="c" unicode="c" horiz-adv-x="669" d="M350 136 Q404 136 435 168 Q466 200 474 255 L634 243 Q627 189 606 143 Q585 97 548 63.5 Q511 30 459 11 Q407 -8 338 -8 Q276 -8 221.5 12.5 Q167 33 126.5 72 Q86 111 62.5 167.5 Q39 224 39 296 Q39 364 62.5 420.5 Q86 477 126.5 517 Q167 557 222 579 Q277 601 341 601 Q407 601 458 582.5 Q509 564 545.5 531 Q582 498 604 452.5 Q626 407 634 354 L475 336 Q467 390 438 424 Q409 458 352 458 Q291 458 259.5 414.5 Q228 371 228 297 Q228 221 259.5 178.5 Q291 136 350 136 Z " />
<glyph glyph-name="ffi" unicode="&#xfb03;" horiz-adv-x="932" d="M904 506 L904 0 L715 0 L715 387 L591 387 L588 0 L397 0 L397 387 L275 387 Q275 333 274 279 Q273 225 272.5 174 Q272 123 271.5 78.5 Q271 34 271 0 L81 0 L81 387 L15 387 L15 506 L81 506 L81 593 Q84 639 103 676 Q111 691 124 706 Q137 721 156 733 Q175 745 200.5 752 Q226 759 260 759 Q282 761 308 757 Q331 754 360.5 746 Q390 738 425 721 Q442 750 478 773 Q514 796 576 796 Q607 798 643 791 Q674 785 713.5 770 Q753 755 798 724 L751 607 Q728 619 707.5 628 Q687 637 657 637 Q628 637 610.5 623.5 Q593 610 593 580 Q593 563 593 544.5 Q593 526 592 506 L904 506 Z M397 506 L397 589 Q385 594 371.5 597 Q358 600 341 600 Q312 600 294.5 586.5 Q277 573 277 543 Q277 534 277 531 Q277 528 277 525.5 Q277 523 276.5 519.5 Q276 516 276 506 L397 506 Z " />
<glyph glyph-name="ffl" unicode="&#xfb04;" horiz-adv-x="1086" d="M987 152 Q1003 152 1020 155 Q1037 158 1051 163 Q1068 168 1083 175 L1083 53 Q1056 31 1026.5 20.5 Q997 10 972 5 Q943 0 915 0 Q880 0 853.5 7 Q827 14 807.5 25.5 Q788 37 775.5 52 Q763 67 755 83 Q737 120 736 167 L736 546 Q736 575 715.5 596 Q695 617 666 618 Q637 618 616.5 603 Q596 588 596 559 L596 506 L677 506 L677 387 L596 387 L596 0 L405 0 L405 387 L275 387 Q274 333 273 279 Q272 225 271.5 174 Q271 123 270.5 78.5 Q270 34 270 0 L81 0 L81 387 L15 387 L15 506 L81 506 L81 593 Q84 639 103 676 Q111 691 124 706 Q137 721 156 733 Q175 745 200.5 752 Q226 759 260 759 Q285 760 315 756 Q341 752 374 742 Q407 732 445 710 Q477 751 530 771.5 Q583 792 646 792 L685 792 Q734 792 778 773 Q822 754 854.5 721.5 Q887 689 906.5 645.5 Q926 602 926 552 Q926 478 926.5 416.5 Q927 355 927.5 309.5 Q928 264 928 236 Q928 208 928 199 Q928 195 929 186 Q930 177 937 169 Q946 158 960.5 155 Q975 152 987 152 Z M406 585 Q392 592 376.5 596 Q361 600 341 600 Q312 600 294 586.5 Q276 573 276 543 L276 506 L406 506 L406 585 Z " />
<glyph glyph-name="ff" unicode="&#xfb00;" horiz-adv-x="809" d="M678 637 Q649 637 631 623.5 Q613 610 613 580 L613 506 L740 506 L740 387 L612 387 Q611 333 610.5 279 Q610 225 609.5 174 Q609 123 608.5 78.5 Q608 34 608 0 L418 0 L418 387 L285 387 Q284 333 283.5 279 Q283 225 282.5 174 Q282 123 281.5 78.5 Q281 34 281 0 L91 0 L91 387 L25 387 L25 506 L91 506 L91 593 Q94 639 113 676 Q121 691 134 706 Q147 721 166 733 Q185 745 210.5 752 Q236 759 270 759 Q293 761 320 757 Q343 754 375 745 Q407 736 443 717 Q452 732 465 746 Q478 760 496.5 771.5 Q515 783 540 789.5 Q565 796 597 796 Q628 798 664 791 Q695 785 734.5 770 Q774 755 819 724 L772 607 Q749 619 728.5 628 Q708 637 678 637 Z M418 584 Q403 591 387 595.5 Q371 600 351 600 Q322 600 304 586.5 Q286 573 286 543 L286 506 L418 506 L418 584 Z " />
<glyph glyph-name="questiondown" unicode="&#xbf;" horiz-adv-x="579" d="M218 531 L387 531 Q387 474 373.5 436.5 Q360 399 340.5 373 Q321 347 297.5 328 Q274 309 254.5 289.5 Q235 270 221.5 246 Q208 222 208 186 Q208 176 214 164 Q220 152 231 142 Q242 132 258 125.5 Q274 119 295 119 Q310 119 327 125.5 Q344 132 358 145 Q372 158 381 177 Q390 196 391 221 L559 201 Q550 148 525.5 109 Q501 70 465.5 44 Q430 18 384.5 5 Q339 -8 288 -8 Q225 -8 178 9 Q131 26 99 54 Q67 82 51 118 Q35 154 35 193 Q35 245 48.5 278.5 Q62 312 82.5 335.5 Q103 359 126.5 376.5 Q150 394 170.5 414.5 Q191 435 204.5 462 Q218 489 218 531 Z M219 795 L386 795 L386 621 L219 621 L219 795 Z " />
</font>
</svg>
