<?xml version="1.0" encoding="UTF-8"?>
<svg xmlns="http://www.w3.org/2000/svg" xmlns:xlink="http://www.w3.org/1999/xlink" version="1.2" >
<font id="Clinton SemiBold">
<font-face  font-family="Clinton" units-per-em="1000" ascent="750" descent="-250" font-style="normal" font-weight="600" font-stretch="normal" cap-height="700" x-height="500" underline-position="-75" underline-thickness="50" />
<missing-glyph  horiz-adv-x="272" d="" />
<glyph glyph-name="NULL" d="" />
<glyph glyph-name="nonmarkingreturn" unicode="&#xd;" horiz-adv-x="272" d="" />
<glyph glyph-name="space" unicode="&#x20;" horiz-adv-x="272" d="" />
<glyph glyph-name="e" unicode="e" horiz-adv-x="674" d="M151 273 Q155 228 171 192 Q187 156 212 130.5 Q237 105 270 91.5 Q303 78 340 78 Q403 78 448 113.5 Q493 149 514 206 L606 192 Q593 148 569.5 111.5 Q546 75 511 48.5 Q476 22 430.5 7 Q385 -8 329 -8 Q269 -8 216 14 Q163 36 124 75.5 Q85 115 62 171.5 Q39 228 39 297 Q39 360 61 415.5 Q83 471 121.5 512 Q160 553 213 577 Q266 601 329 601 Q395 601 448.5 577 Q502 553 540 512 Q578 471 599 415 Q620 359 620 296 Q620 291 620 285 Q620 279 619 273 L151 273 Z M340 515 Q301 515 269 502 Q237 489 213 466.5 Q189 444 174 413.5 Q159 383 155 349 L525 349 Q521 384 507 414 Q493 444 470 466.5 Q447 489 414.5 502 Q382 515 340 515 Z " />
<glyph glyph-name="f" unicode="f" horiz-adv-x="452" d="M189 634 L189 536 L316 536 L316 460 L188 460 Q188 410 188 371 Q188 332 188 298 Q188 264 187.5 232.5 Q187 201 187 166.5 Q187 132 187 91.5 Q187 51 187 0 L77 0 L77 460 L15 460 L15 536 L77 536 L77 630 Q77 676 92 713 Q98 728 108.5 743 Q119 758 134 770 Q149 782 170 789 Q191 796 219 796 Q241 796 267 789 Q290 783 320.5 770 Q351 757 388 731 L356 659 Q331 672 307 682.5 Q283 693 254 693 Q225 693 207 680 Q189 667 189 634 Z " />
<glyph glyph-name="g" unicode="g" horiz-adv-x="705" d="M395 133 Q454 133 504.5 122.5 Q555 112 592 92 Q629 72 650 42 Q671 12 671 -28 Q671 -71 644.5 -104 Q618 -137 573.5 -159.5 Q529 -182 470 -193.5 Q411 -205 345 -205 Q272 -205 216 -193 Q160 -181 122 -160.5 Q84 -140 64.5 -114 Q45 -88 45 -59 Q45 -27 61 -5 Q77 17 97 30 Q120 45 150 53 Q124 63 105 77 Q88 89 74.5 107.5 Q61 126 61 150 Q61 172 69.5 189 Q78 206 92.5 219 Q107 232 126 242 Q145 252 166 260 Q126 286 103.5 323 Q81 360 81 407 Q81 455 101.5 491.5 Q122 528 158 552.5 Q194 577 242 589.5 Q290 602 345 602 Q408 602 457.5 587 Q507 572 543 540 Q545 548 548.5 556 Q552 564 557 572 Q569 593 586.5 606.5 Q604 620 620.5 628 Q637 636 651 639 Q665 642 671 643 Q670 616 670 589 Q670 562 670 536 Q661 536 646.5 535 Q632 534 614 527 Q601 522 591.5 515 Q582 508 577 503 Q583 494 593 475 Q603 456 607 437 Q607 433 608 428 Q608 423 608.5 417.5 Q609 412 609 407 Q609 361 588.5 325 Q568 289 532 263.5 Q496 238 448 224.5 Q400 211 345 211 Q313 211 283.5 217.5 Q254 224 230 230 Q228 230 219.5 228 Q211 226 202 221 Q193 216 186 207.5 Q179 199 179 186 Q179 171 199 161 Q219 151 250.5 144.5 Q282 138 320.5 135.5 Q359 133 395 133 Z M345 543 Q312 543 284.5 533 Q257 523 236.5 504.5 Q216 486 204.5 461 Q193 436 193 406 Q193 376 203.5 351 Q214 326 233.5 307.5 Q253 289 281.5 278.5 Q310 268 345 268 Q377 268 405 278.5 Q433 289 453.5 307.5 Q474 326 485.5 351 Q497 376 497 406 Q497 436 486 461 Q475 486 454.5 504.5 Q434 523 406 533 Q378 543 345 543 Z M351 -127 Q400 -127 438.5 -120 Q477 -113 503 -101 Q529 -89 543 -74 Q557 -59 557 -43 Q557 -27 542 -12.5 Q527 2 500 13.5 Q473 25 435 32 Q397 39 351 39 Q303 39 264.5 36 Q226 33 199.5 24 Q173 15 159 -1 Q145 -17 145 -42 Q145 -58 157.5 -73 Q170 -88 195.5 -100 Q221 -112 259.5 -119.5 Q298 -127 351 -127 Z " />
<glyph glyph-name="h" unicode="h" horiz-adv-x="667" d="M556 0 L445 0 L445 370 Q445 392 435.5 415.5 Q426 439 407.5 458 Q389 477 362 489.5 Q335 502 301 502 Q272 502 245.5 491 Q219 480 199 462 Q179 444 167.5 420 Q156 396 156 371 L156 0 L45 0 L45 795 L156 795 L156 483 Q165 509 183 530.5 Q201 552 225.5 568 Q250 584 280.5 592.5 Q311 601 345 601 Q387 601 425.5 586 Q464 571 493 542.5 Q522 514 539 472.5 Q556 431 556 378 L556 0 Z " />
<glyph glyph-name="i" unicode="i" horiz-adv-x="299" d="M187 839 L187 731 L41 731 L41 839 L187 839 Z M169 590 L169 1 L58 1 L58 590 L169 590 Z " />
<glyph glyph-name="j" unicode="j" horiz-adv-x="428" d="M320 731 L175 731 L175 839 L320 839 L320 731 Z M302 -41 Q302 -88 284 -125 Q276 -141 264.5 -156 Q253 -171 235.5 -183 Q218 -195 194 -202 Q170 -209 138 -209 Q122 -210 105 -206 Q90 -204 72 -197.5 Q54 -191 35 -179 L35 -93 Q52 -100 75.5 -105.5 Q99 -111 119 -111 Q136 -111 150 -107 Q164 -103 172 -93 Q183 -82 187 -67.5 Q191 -53 191 -35 Q191 26 191 84.5 Q191 143 191.5 213 Q192 283 192 373.5 Q192 464 192 590 L302 590 L302 -41 Z " />
<glyph glyph-name="k" unicode="k" horiz-adv-x="687" d="M466 0 L260 270 L163 170 L163 0 L55 0 L55 795 L163 795 L163 280 L442 594 L569 594 L328 335 L588 0 L466 0 L466 0 Z " />
<glyph glyph-name="l" unicode="l" horiz-adv-x="421" d="M54 160 L54 795 L164 795 Q164 669 164 578 Q164 487 164.5 416 Q165 345 165 286 Q165 227 165 166 Q165 148 169 133.5 Q173 119 183 108 Q200 90 237 90 Q257 90 280.5 95.5 Q304 101 321 108 L321 22 Q302 10 283.5 3.5 Q265 -3 250 -5 Q232 -9 217 -8 Q185 -8 161 -1 Q137 6 119.5 18 Q102 30 90.5 45 Q79 60 72 76 Q54 113 54 160 Z " />
<glyph glyph-name="m" unicode="m" horiz-adv-x="1032" d="M885 377 L885 0 L775 0 L775 369 Q775 391 768 415 Q761 439 746 458 Q731 477 707.5 489.5 Q684 502 650 502 Q620 502 596 491 Q572 480 555.5 462 Q539 444 530 420 Q521 396 521 371 L521 0 L410 0 L410 370 Q410 392 402 415.5 Q394 439 378.5 458.5 Q363 478 339 490 Q315 502 282 502 Q254 502 230.5 491 Q207 480 190.5 462 Q174 444 165 420.5 Q156 397 156 372 L156 0 L45 0 L45 589 L156 589 L156 483 Q179 535 222 568 Q265 601 325 601 Q389 601 434.5 569.5 Q480 538 506 481 Q526 535 574.5 568 Q623 601 689 601 Q727 601 762.5 586 Q798 571 825 542.5 Q852 514 868.5 472.5 Q885 431 885 377 Z " />
<glyph glyph-name="n" unicode="n" horiz-adv-x="670" d="M556 0 L445 0 L445 370 Q445 392 435.5 415.5 Q426 439 407.5 458 Q389 477 362 489.5 Q335 502 301 502 Q272 502 245.5 491 Q219 480 199 462 Q179 444 167.5 420.5 Q156 397 156 371 L156 0 L45 0 L45 594 L156 594 L156 483 Q176 535 226 568 Q276 601 345 601 Q387 601 425.5 586 Q464 571 493 542.5 Q522 514 539 472.5 Q556 431 556 378 L556 0 Z " />
<glyph glyph-name="o" unicode="o" horiz-adv-x="672" d="M329 601 Q394 601 447.5 577 Q501 553 539 512 Q577 471 598 415.5 Q619 360 619 297 Q619 234 599.5 178 Q580 122 542.5 81 Q505 40 451.5 16 Q398 -8 329 -8 Q263 -8 209.5 16 Q156 40 118 81 Q80 122 59.5 178 Q39 234 39 297 Q39 360 60.5 415.5 Q82 471 120.5 512 Q159 553 212 577 Q265 601 329 601 Z M329 77 Q373 77 407.5 93.5 Q442 110 466 139.5 Q490 169 503 209 Q516 249 516 297 Q516 343 504 383.5 Q492 424 468.5 453 Q445 482 410 499 Q375 516 329 516 Q284 516 249 499.5 Q214 483 190 454 Q166 425 154 385 Q142 345 142 297 Q142 250 155.5 210 Q169 170 193.5 140.5 Q218 111 252.5 94 Q287 77 329 77 Z " />
<glyph glyph-name="p" unicode="p" horiz-adv-x="717" d="M55 -205 L55 594 L166 594 L166 467 Q194 530 245.5 565.5 Q297 601 377 601 Q432 601 478 578 Q524 555 558 514.5 Q592 474 611 418.5 Q630 363 630 297 Q630 234 613 178 Q596 122 563.5 81 Q531 40 484 16 Q437 -8 377 -8 Q305 -8 251 30 Q197 68 166 133 L166 -205 L55 -205 Z M339 516 Q296 516 263.5 498 Q231 480 209.5 450 Q188 420 177 380 Q166 340 166 296 Q166 252 178.5 214 Q191 176 214 148 Q237 120 268.5 104 Q300 88 339 88 Q382 88 415.5 105 Q449 122 472 151 Q495 180 507 219 Q519 258 519 302 Q519 348 505.5 387.5 Q492 427 468 455.5 Q444 484 411 500 Q378 516 339 516 Z " />
<glyph glyph-name="q" unicode="q" horiz-adv-x="717" d="M485 -205 L485 133 Q454 68 400 30 Q346 -8 274 -8 Q214 -8 167 16 Q120 40 87.5 81 Q55 122 38 178 Q21 234 21 297 Q21 363 40 418.5 Q59 474 92.5 515 Q126 556 172.5 579 Q219 602 274 602 Q354 602 405.5 566 Q457 530 485 467 L485 594 L596 594 L596 -205 L485 -205 Z M485 296 Q485 340 474 380 Q463 420 441 450 Q419 480 387 498 Q355 516 312 516 Q273 516 240 500 Q207 484 183 455.5 Q159 427 145.5 387.5 Q132 348 132 302 Q132 258 144 219 Q156 180 179 151 Q202 122 235.5 105.5 Q269 89 312 89 Q351 89 382.5 104.5 Q414 120 437 148 Q460 176 472.5 214 Q485 252 485 296 Z " />
<glyph glyph-name="r" unicode="r" horiz-adv-x="481" d="M397 513 Q391 514 373 515 Q355 516 331 512.5 Q307 509 279.5 498 Q252 487 226 465 Q202 444 189 422 Q176 400 170 385 L170 0 L54 0 L54 594 L165 594 L165 475 Q170 489 186 516.5 Q202 544 235 568 Q261 587 287.5 594 Q314 601 336.5 601.5 Q359 602 375.5 599 Q392 596 397 595 L397 513 Z " />
<glyph glyph-name="s" unicode="s" horiz-adv-x="628" d="M543 172 Q543 133 525 100 Q507 67 474 43 Q441 19 395 5.5 Q349 -8 293 -8 Q231 -8 184.5 10 Q138 28 106 56.5 Q74 85 57 119.5 Q40 154 37 187 L138 199 Q138 184 146.5 163 Q155 142 174 123 Q193 104 222.5 91 Q252 78 293 78 Q359 78 393.5 103.5 Q428 129 428 167 Q428 199 400.5 217.5 Q373 236 331.5 248.5 Q290 261 241.5 272.5 Q193 284 151.5 303 Q110 322 82.5 352.5 Q55 383 55 434 Q55 467 70.5 497 Q86 527 116.5 550.5 Q147 574 192 588 Q237 602 295 602 Q350 602 393.5 585 Q437 568 468 542 Q499 516 516.5 484.5 Q534 453 537 424 L433 412 Q433 427 426 445.5 Q419 464 401.5 479.5 Q384 495 356 506 Q328 517 286 517 Q234 517 202.5 497.5 Q171 478 171 438 Q171 411 198.5 395.5 Q226 380 267.5 368 Q309 356 357 343.5 Q405 331 446.5 310.5 Q488 290 515.5 257 Q543 224 543 172 Z " />
<glyph glyph-name="t" unicode="t" horiz-adv-x="477" d="M374 108 L374 22 Q355 10 336.5 3.5 Q318 -3 303 -5 Q285 -9 270 -8 Q238 -8 214 -1.5 Q190 5 172.5 15.5 Q155 26 143.5 40 Q132 54 125 68 Q107 101 107 145 L107 506 L24 506 L24 571 Q38 573 48.5 576 Q59 579 67 583 Q96 597 113 622.5 Q130 648 138.5 673.5 Q147 699 149.5 719 Q152 739 152 743 L217 743 L217 583 L372 583 L372 506 L217 506 Q217 453 217 409 Q217 365 217.5 325 Q218 285 218 246.5 Q218 208 218 166 Q218 148 222 133.5 Q226 119 236 108 Q253 90 290 90 Q310 90 333.5 95.5 Q357 101 374 108 Z " />
<glyph glyph-name="u" unicode="u" horiz-adv-x="682" d="M51 593 L163 593 L163 224 Q163 201 172.5 177.5 Q182 154 200.5 135 Q219 116 246 103.5 Q273 91 307 91 Q336 91 362.5 102 Q389 113 409 131 Q429 149 440.5 172.5 Q452 196 452 222 L452 593 L563 593 L563 0 L452 0 L452 110 Q432 58 382 25 Q332 -8 263 -8 Q221 -8 182.5 7 Q144 22 114.5 50.5 Q85 79 68 120.5 Q51 162 51 216 L51 593 Z " />
<glyph glyph-name="v" unicode="v" horiz-adv-x="688" d="M258 0 L25 594 L145 594 L310 117 L475 594 L594 594 L365 0 L258 0 L258 0 Z " />
<glyph glyph-name="w" unicode="w" horiz-adv-x="1013" d="M795 594 L910 594 L664 0 L573 0 L464 265 L356 0 L265 0 L15 594 L131 594 L313 118 L395 329 L291 594 L389 594 L464 389 L539 594 L637 594 L532 329 L616 118 L795 594 L795 594 Z " />
<glyph glyph-name="x" unicode="x" horiz-adv-x="702" d="M171 594 L295 404 L319 361 L342 404 L466 594 L596 594 L378 296 L601 0 L476 0 L342 181 L319 224 L296 181 L159 0 L35 0 L260 296 L42 594 L171 594 L171 594 Z " />
<glyph glyph-name="y" unicode="y" horiz-adv-x="668" d="M103 -92 Q113 -97 127.5 -102.5 Q142 -108 167 -108 Q209 -108 232.5 -77.5 Q256 -47 256 1 L15 594 L139 594 L322 115 L505 594 L626 594 L364 -54 Q349 -90 332 -119.5 Q315 -149 293.5 -170 Q272 -191 244.5 -202 Q217 -213 182 -213 Q129 -213 88 -194 L103 -92 Z " />
<glyph glyph-name="z" unicode="z" horiz-adv-x="617" d="M55 73 L423 505 L63 505 L63 594 L561 594 L561 521 L194 90 L568 90 L568 0 L55 0 L55 73 L55 73 Z " />
<glyph glyph-name="A" unicode="A" horiz-adv-x="857" d="M441 795 L745 0 L620 0 L555 187 L222 187 L159 0 L35 0 L329 795 L441 795 Z M247 264 L529 264 L386 677 L247 264 Z " />
<glyph glyph-name="B" unicode="B" horiz-adv-x="743" d="M658 216 Q658 173 640 134 Q622 95 587.5 65 Q553 35 503 17.5 Q453 0 390 0 L45 0 L45 795 L426 795 Q465 795 500 779.5 Q535 764 562 736.5 Q589 709 604.5 672 Q620 635 620 593 Q620 528 583.5 480 Q547 432 487 408 Q525 396 556.5 380 Q588 364 610.5 341.5 Q633 319 645.5 288.5 Q658 258 658 216 Z M156 706 L156 440 L397 440 Q425 440 446.5 451.5 Q468 463 483 482 Q498 501 506 524.5 Q514 548 514 572 Q514 597 506.5 621 Q499 645 484 664 Q469 683 447 694.5 Q425 706 397 706 L156 706 Z M549 218 Q549 243 540.5 268 Q532 293 515.5 312.5 Q499 332 474.5 344 Q450 356 419 356 L157 356 L157 90 L421 90 Q447 90 470.5 100.5 Q494 111 511.5 129 Q529 147 539 170 Q549 193 549 218 Z " />
<glyph glyph-name="C" unicode="C" horiz-adv-x="871" d="M812 298 Q799 232 770.5 176 Q742 120 695.5 79 Q649 38 583.5 15 Q518 -8 430 -8 Q352 -8 282 17.5 Q212 43 159.5 93.5 Q107 144 76 219 Q45 294 45 393 Q45 476 71.5 549.5 Q98 623 148.5 677.5 Q199 732 271 764 Q343 796 434 796 Q513 796 577 775 Q641 754 689 714.5 Q737 675 768 619.5 Q799 564 810 495 L713 484 Q703 532 681.5 572.5 Q660 613 627 641.5 Q594 670 548.5 686 Q503 702 446 702 Q380 702 327 678 Q274 654 237 612.5 Q200 571 180.5 515 Q161 459 161 395 Q161 332 180.5 276 Q200 220 236.5 178 Q273 136 326 112 Q379 88 446 88 Q503 88 548 104.5 Q593 121 626.5 150 Q660 179 681.5 219 Q703 259 713 306 L812 298 Z " />
<glyph glyph-name="D" unicode="D" horiz-adv-x="817" d="M45 0 L45 795 L333 795 Q414 795 486 766 Q558 737 611.5 684.5 Q665 632 696.5 559.5 Q728 487 728 399 Q728 311 696 237.5 Q664 164 610 111.5 Q556 59 484.5 29.5 Q413 0 333 0 L45 0 Z M619 399 Q619 466 598 522.5 Q577 579 537.5 620.5 Q498 662 441.5 685 Q385 708 315 708 L157 708 L157 86 L315 86 Q382 86 438 111.5 Q494 137 534.5 179.5 Q575 222 597 279 Q619 336 619 399 Z " />
<glyph glyph-name="E" unicode="E" horiz-adv-x="667" d="M157 708 L157 442 L521 442 L521 357 L157 357 L157 87 L576 87 L576 0 L45 0 L45 795 L576 795 L576 708 L157 708 Z " />
<glyph glyph-name="G" unicode="G" horiz-adv-x="873" d="M812 382 L812 298 Q812 297 811.5 297 Q811 297 811 296 L812 296 L812 0 L701 0 L701 121 Q684 100 660.5 77.5 Q637 55 604.5 36 Q572 17 528.5 4.5 Q485 -8 430 -8 Q352 -8 282 17.5 Q212 43 159.5 93.5 Q107 144 76 219 Q45 294 45 393 Q45 476 71.5 549.5 Q98 623 148.5 677.5 Q199 732 271 764 Q343 796 434 796 Q513 796 577 775 Q641 754 689 714.5 Q737 675 768 619.5 Q799 564 810 495 L713 484 Q703 532 681.5 572.5 Q660 613 627 641.5 Q594 670 548.5 686 Q503 702 446 702 Q380 702 327 678 Q274 654 237 612.5 Q200 571 180.5 515 Q161 459 161 395 Q161 332 180.5 276 Q200 220 236.5 178 Q273 136 326 112 Q379 88 446 88 Q458 88 476.5 89 Q495 90 517.5 94.5 Q540 99 564.5 109.5 Q589 120 614 138 Q642 159 660 183 Q678 207 688.5 229.5 Q699 252 703.5 270 Q708 288 710 296 L488 296 L488 382 L812 382 Z " />
<glyph glyph-name="F" unicode="F" horiz-adv-x="672" d="M157 708 L157 442 L521 442 L521 357 L157 357 L157 0 L45 0 L45 795 L576 795 L576 708 L157 708 Z " />
<glyph glyph-name="H" unicode="H" horiz-adv-x="806" d="M727 795 L727 0 L613 0 L613 340 L158 340 L158 0 L45 0 L45 795 L158 795 L158 427 L613 427 L613 795 L727 795 L727 795 Z " />
<glyph glyph-name="I" unicode="I" horiz-adv-x="293" d="M158 0 L45 0 L45 795 L158 795 L158 0 L158 0 Z " />
<glyph glyph-name="J" unicode="J" horiz-adv-x="629" d="M72 146 Q101 127 135 111.5 Q169 96 217 96 Q272 96 304.5 114.5 Q337 133 353 165.5 Q369 198 373.5 242.5 Q378 287 378 339 L378 795 L490 795 L490 301 Q490 239 477.5 183 Q465 127 435 84.5 Q405 42 356.5 17 Q308 -8 236 -8 Q167 -8 115 14 Q63 36 30 61 L72 146 Z " />
<glyph glyph-name="K" unicode="K" horiz-adv-x="806" d="M45 0 L45 795 L157 795 L157 353 L555 795 L697 795 L373 443 L723 0 L584 0 L299 376 L157 228 L157 0 L45 0 L45 0 Z " />
<glyph glyph-name="L" unicode="L" horiz-adv-x="647" d="M551 88 L551 0 L45 0 L45 795 L158 795 L158 88 L551 88 Z " />
<glyph glyph-name="M" unicode="M" horiz-adv-x="962" d="M778 0 L778 624 L504 124 L430 124 L157 624 L157 0 L45 0 L45 795 L188 795 L467 258 L747 795 L890 795 L890 0 L778 0 L778 0 Z " />
<glyph glyph-name="N" unicode="N" horiz-adv-x="804" d="M724 795 L724 0 L581 0 L156 675 L156 0 L45 0 L45 795 L188 795 L612 123 L612 795 L724 795 Z " />
<glyph glyph-name="O" unicode="O" horiz-adv-x="898" d="M433 798 Q529 798 602 767 Q675 736 724 682 Q773 628 797.5 554.5 Q822 481 822 395 Q822 306 796 232 Q770 158 720 104.5 Q670 51 597.5 21.5 Q525 -8 433 -8 Q344 -8 272.5 21.5 Q201 51 150.5 104 Q100 157 72.5 231 Q45 305 45 395 Q45 478 72 551.5 Q99 625 149.5 679.5 Q200 734 271.5 766 Q343 798 433 798 Z M433 88 Q502 88 554.5 110.5 Q607 133 642.5 173.5 Q678 214 696 270 Q714 326 714 394 Q714 459 697.5 515.5 Q681 572 646.5 613.5 Q612 655 559 678.5 Q506 702 433 702 Q368 702 316 677.5 Q264 653 228 611 Q192 569 172.5 513 Q153 457 153 394 Q153 326 172.5 269.5 Q192 213 228.5 172.5 Q265 132 317 110 Q369 88 433 88 Z " />
<glyph glyph-name="P" unicode="P" horiz-adv-x="740" d="M45 0 L45 794 L379 794 Q441 794 491.5 773 Q542 752 577.5 716 Q613 680 632.5 631 Q652 582 652 526 Q652 470 631.5 422 Q611 374 575 339 Q539 304 490 284 Q441 264 385 264 L156 264 L156 0 L45 0 Z M157 352 L392 352 Q428 352 457 367.5 Q486 383 507 408.5 Q528 434 539 466 Q550 498 550 531 Q550 564 537.5 595.5 Q525 627 502.5 651.5 Q480 676 449 691 Q418 706 382 706 L157 706 L157 352 Z " />
<glyph glyph-name="Q" unicode="Q" horiz-adv-x="902" d="M822 395 Q822 306 796.5 233.5 Q771 161 722 107 L821 1 L695 1 L651 48 Q606 21 552 6.5 Q498 -8 433 -8 Q344 -8 272.5 21.5 Q201 51 150.5 104 Q100 157 72.5 231 Q45 305 45 395 Q45 478 72 551.5 Q99 625 149.5 679.5 Q200 734 271.5 766 Q343 798 433 798 Q529 798 602 767 Q675 736 724 682 Q773 628 797.5 554.5 Q822 481 822 395 Z M650 184 Q714 265 714 394 Q714 459 697.5 515.5 Q681 572 646.5 613.5 Q612 655 559 678.5 Q506 702 433 702 Q368 702 316 677.5 Q264 653 228 611 Q192 569 172.5 513 Q153 457 153 394 Q153 326 172.5 269.5 Q192 213 228.5 172.5 Q265 132 317 110 Q369 88 433 88 Q477 88 513.5 97.5 Q550 107 581 124 L429 287 L555 287 L650 184 Z " />
<glyph glyph-name="R" unicode="R" horiz-adv-x="789" d="M689 0 L556 0 L375 264 L157 264 L157 0 L45 0 L45 795 L380 795 Q442 795 492.5 774 Q543 753 578.5 717 Q614 681 633.5 632 Q653 583 653 526 Q653 441 607.5 376.5 Q562 312 488 283 L689 0 Z M158 353 L393 353 Q429 353 458 368.5 Q487 384 508 409.5 Q529 435 540 467 Q551 499 551 532 Q551 565 538.5 596.5 Q526 628 503.5 652.5 Q481 677 450 691.5 Q419 706 382 706 L158 706 L158 353 Z " />
<glyph glyph-name="S" unicode="S" horiz-adv-x="817" d="M392 -8 Q327 -8 268.5 8.5 Q210 25 163.5 55.5 Q117 86 86 130 Q55 174 45 230 L152 244 Q153 217 172 189 Q191 161 223 138.5 Q255 116 298 101.5 Q341 87 391 87 Q435 87 475 95.5 Q515 104 545.5 120 Q576 136 594 159.5 Q612 183 612 214 Q612 252 589 276.5 Q566 301 528 317.5 Q490 334 441.5 345.5 Q393 357 342 369 Q291 381 242.5 395.5 Q194 410 156 433 Q118 456 95 491 Q72 526 72 577 Q72 633 98 674.5 Q124 716 167 743.5 Q210 771 266 784.5 Q322 798 383 798 Q450 798 506.5 782 Q563 766 606 737.5 Q649 709 676.5 669.5 Q704 630 713 584 L615 570 Q615 577 604 598.5 Q593 620 566.5 643.5 Q540 667 495.5 685.5 Q451 704 385 704 Q290 704 236 672.5 Q182 641 182 587 Q182 554 205 533 Q228 512 266.5 496.5 Q305 481 353.5 470 Q402 459 452.5 446 Q503 433 551.5 416 Q600 399 638.5 373.5 Q677 348 700 310.5 Q723 273 723 219 Q723 182 704.5 142 Q686 102 646 68.5 Q606 35 543 13.5 Q480 -8 392 -8 Z " />
<glyph glyph-name="T" unicode="T" horiz-adv-x="759" d="M733 795 L733 711 L435 711 L435 0 L323 0 L323 711 L25 711 L25 795 L733 795 L733 795 Z " />
<glyph glyph-name="U" unicode="U" horiz-adv-x="851" d="M799 795 L799 388 Q799 306 774.5 234 Q750 162 702.5 108 Q655 54 584.5 23 Q514 -8 422 -8 Q327 -8 256.5 23 Q186 54 139 108 Q92 162 68.5 234 Q45 306 45 388 L45 795 L156 795 L156 388 Q156 315 177 259 Q198 203 234 165 Q270 127 318.5 107.5 Q367 88 422 88 Q480 88 528.5 109.5 Q577 131 612.5 170.5 Q648 210 668 265 Q688 320 688 388 L688 795 L799 795 Z " />
<glyph glyph-name="V" unicode="V" horiz-adv-x="879" d="M770 795 L463 0 L347 0 L30 795 L160 795 Q221 624 282 456.5 Q343 289 404 118 Q464 289 522.5 456.5 Q581 624 641 795 L770 795 Z " />
<glyph glyph-name="W" unicode="W" horiz-adv-x="1311" d="M389 794 L503 794 L620 484 L737 794 L852 794 L695 424 L810 131 L1078 795 L1210 795 L869 0 L756 0 L620 346 L479 0 L366 0 L20 795 L153 795 L429 131 L543 424 L389 794 L389 794 Z " />
<glyph glyph-name="X" unicode="X" horiz-adv-x="877" d="M774 0 L642 0 L410 315 L177 0 L45 0 L345 403 L54 795 L188 795 L410 489 L632 795 L765 795 L474 403 L774 0 L774 0 Z " />
<glyph glyph-name="Y" unicode="Y" horiz-adv-x="833" d="M144 795 L360 374 L577 795 L701 795 L416 280 L416 0 L305 0 L305 282 L20 795 L144 795 L144 795 Z " />
<glyph glyph-name="Z" unicode="Z" horiz-adv-x="749" d="M30 75 L553 703 L41 703 L41 795 L700 795 L700 717 L179 89 L705 89 L705 0 L30 0 L30 75 L30 75 Z " />
<glyph glyph-name="zero" unicode="0" horiz-adv-x="636" d="M321 644 Q389 644 439.5 618.5 Q490 593 524 548.5 Q558 504 574.5 444.5 Q591 385 591 317 Q591 249 574.5 190 Q558 131 524.5 87 Q491 43 439.5 17.5 Q388 -8 318 -8 Q261 -8 211.5 14 Q162 36 125 78 Q88 120 66.5 180 Q45 240 45 317 Q45 390 66.5 450.5 Q88 511 125 554 Q162 597 212.5 620.5 Q263 644 321 644 Z M315 86 Q396 86 438 149.5 Q480 213 480 318 Q480 366 471 408.5 Q462 451 442 482.5 Q422 514 391 532.5 Q360 551 317 551 Q237 551 197 488 Q157 425 157 318 Q157 209 197.5 147.5 Q238 86 315 86 Z " />
<glyph glyph-name="one" unicode="1" horiz-adv-x="436" d="M202 0 L202 530 Q191 519 172.5 505.5 Q154 492 128 480 Q103 469 82 463.5 Q61 458 45 456 L45 540 Q62 545 85 553.5 Q108 562 134 579 Q158 595 174.5 611 Q191 627 202 641 L314 641 L314 0 L202 0 Z " />
<glyph glyph-name="two" unicode="2" horiz-adv-x="624" d="M45 0 L45 64 Q45 125 73 171.5 Q101 218 143.5 253.5 Q186 289 235 316.5 Q284 344 326.5 368 Q369 392 397 414.5 Q425 437 425 463 Q425 499 393 527.5 Q361 556 300 556 Q263 556 236.5 543.5 Q210 531 193 512 Q176 493 166 471 Q156 449 152 430 L56 443 Q79 542 142.5 595.5 Q206 649 300 649 Q356 649 399.5 635 Q443 621 473 596 Q503 571 518.5 536.5 Q534 502 534 460 Q534 416 508.5 382.5 Q483 349 444 320.5 Q405 292 358.5 266.5 Q312 241 271 215 Q230 189 200 159.5 Q170 130 164 93 L539 93 L539 0 L45 0 Z " />
<glyph glyph-name="three" unicode="3" horiz-adv-x="675" d="M273 292 Q318 292 357 301.5 Q396 311 425 329 Q454 347 470.5 373 Q487 399 487 432 Q487 456 477 477 Q467 498 448.5 514.5 Q430 531 402.5 540.5 Q375 550 340 550 Q274 550 234 515.5 Q194 481 180 423 L82 434 Q91 485 116.5 524 Q142 563 177 589 Q212 615 254.5 628 Q297 641 341 641 Q395 641 439.5 626 Q484 611 516 584 Q548 557 565.5 520 Q583 483 583 439 Q583 391 565 359 Q547 327 524.5 307 Q502 287 481.5 277 Q461 267 457 264 Q461 262 474 257 Q487 252 504.5 243.5 Q522 235 541.5 221 Q561 207 577 187 Q593 167 603.5 139.5 Q614 112 614 76 Q614 30 593 -12 Q572 -54 534.5 -86 Q497 -118 446 -137 Q395 -156 334 -156 Q279 -156 228.5 -139.5 Q178 -123 139 -91.5 Q100 -60 75 -15.5 Q50 29 45 86 L143 100 Q147 66 161.5 36.5 Q176 7 199.5 -14.5 Q223 -36 256 -48.5 Q289 -61 331 -61 Q369 -61 400.5 -49.5 Q432 -38 454.5 -18.5 Q477 1 489 27.5 Q501 54 501 83 Q501 149 444 185.5 Q387 222 273 222 L273 292 Z " />
<glyph glyph-name="four" unicode="4" horiz-adv-x="697" d="M161 89 L416 89 L416 468 L161 89 L161 89 Z M398 -148 L398 1 L45 1 L45 88 L416 641 L510 641 L510 88 L618 88 L618 1 L510 1 L510 -148 L398 -148 L398 -148 Z " />
<glyph glyph-name="five" unicode="5" horiz-adv-x="675" d="M371 368 Q424 368 470.5 351 Q517 334 551.5 302 Q586 270 606 224.5 Q626 179 626 121 Q626 66 605.5 17 Q585 -32 547.5 -68.5 Q510 -105 458 -126.5 Q406 -148 343 -148 Q284 -148 235 -131 Q186 -114 148 -82.5 Q110 -51 84 -6.5 Q58 38 45 92 L166 111 Q168 78 183 47.5 Q198 17 222.5 -5.5 Q247 -28 278.5 -41.5 Q310 -55 346 -55 Q385 -55 417.5 -41.5 Q450 -28 473 -4 Q496 20 509 52 Q522 84 522 120 Q522 157 510 189.5 Q498 222 475.5 245 Q453 268 421 281.5 Q389 295 348 295 Q291 295 244.5 266.5 Q198 238 178 186 L55 186 Q69 300 82 413 Q95 526 109 640 Q220 640 336 640 Q452 640 563 639 L563 556 Q472 557 385 557 Q298 557 208 558 L175 279 Q186 292 202.5 307.5 Q219 323 242 336.5 Q265 350 297 359 Q329 368 371 368 Z " />
<glyph glyph-name="six" unicode="6" horiz-adv-x="685" d="M347 84 Q386 84 419.5 97.5 Q453 111 478 135 Q503 159 517.5 192 Q532 225 532 264 Q532 298 522 330.5 Q512 363 490.5 389 Q469 415 434 431 Q399 447 349 447 Q307 447 274 431 Q241 415 217.5 389.5 Q194 364 182 331 Q170 298 170 264 Q170 230 183 197.5 Q196 165 219.5 140 Q243 115 275.5 99.5 Q308 84 347 84 Z M637 265 Q637 205 614.5 155 Q592 105 552 68.5 Q512 32 458.5 12 Q405 -8 343 -8 Q261 -8 204.5 22.5 Q148 53 112.5 105 Q77 157 61 224.5 Q45 292 45 366 Q45 438 61 513 Q77 588 113 649.5 Q149 711 207 750 Q265 789 348 789 Q415 789 463.5 769.5 Q512 750 544.5 720.5 Q577 691 595.5 657 Q614 623 623 593 L528 582 Q525 600 512.5 622 Q500 644 478 663.5 Q456 683 424.5 696 Q393 709 353 709 Q305 709 269 683.5 Q233 658 209.5 616 Q186 574 174 519 Q162 464 162 405 Q174 429 195 450.5 Q216 472 244 488.5 Q272 505 304 514.5 Q336 524 371 524 Q430 524 479 504.5 Q528 485 563 450.5 Q598 416 617.5 368.5 Q637 321 637 265 Z " />
<glyph glyph-name="seven" unicode="7" horiz-adv-x="678" d="M409 546 L45 546 L45 641 L573 641 L203 -147 L65 -147 L409 546 L409 546 Z " />
<glyph glyph-name="eight" unicode="8" horiz-adv-x="699" d="M653 228 Q653 175 627 131.5 Q601 88 558 57 Q515 26 460.5 9 Q406 -8 348 -8 Q289 -8 234 10 Q179 28 137 59.5 Q95 91 70 134 Q45 177 45 227 Q45 272 62.5 306.5 Q80 341 102.5 365.5 Q125 390 146.5 404.5 Q168 419 176 425 Q167 431 150.5 444 Q134 457 117.5 476 Q101 495 89 520.5 Q77 546 77 578 Q77 625 100 664.5 Q123 704 161 733 Q199 762 248 778 Q297 794 349 794 Q400 794 449 779 Q498 764 536 736 Q574 708 597 668.5 Q620 629 620 580 Q620 546 608 520 Q596 494 579.5 475 Q563 456 547 443.5 Q531 431 522 425 Q529 420 550.5 407 Q572 394 594.5 370.5 Q617 347 635 312 Q653 277 653 228 Z M544 231 Q544 260 530.5 288 Q517 316 492 337.5 Q467 359 431 372.5 Q395 386 350 386 Q305 386 268.5 374 Q232 362 206 341.5 Q180 321 166 294 Q152 267 152 238 Q152 211 164 183.5 Q176 156 200.5 133.5 Q225 111 262 97 Q299 83 350 83 Q397 83 433 96.5 Q469 110 494 131.5 Q519 153 531.5 179.5 Q544 206 544 231 Z M178 580 Q178 552 191 529 Q204 506 226.5 489.5 Q249 473 280.5 464 Q312 455 348 455 Q388 455 420 465 Q452 475 474.5 492 Q497 509 509 531.5 Q521 554 521 580 Q521 607 511 630.5 Q501 654 479.5 672 Q458 690 425.5 700 Q393 710 348 710 Q304 710 272 699 Q240 688 219 670 Q198 652 188 628.5 Q178 605 178 580 Z " />
<glyph glyph-name="nine" unicode="9" horiz-adv-x="685" d="M335 549 Q296 549 262.5 535.5 Q229 522 204 498 Q179 474 164.5 441 Q150 408 150 369 Q150 335 159.5 302.5 Q169 270 191 244 Q213 218 248 202 Q283 186 333 186 Q375 186 408.5 201.5 Q442 217 465 243 Q488 269 500.5 301.5 Q513 334 513 369 Q513 403 499.5 435.5 Q486 468 462.5 493 Q439 518 406.5 533.5 Q374 549 335 549 Z M45 367 Q45 427 67.5 477.5 Q90 528 130 564.5 Q170 601 223.5 621 Q277 641 339 641 Q421 641 477.5 610.5 Q534 580 569.5 528 Q605 476 621 408.5 Q637 341 637 267 Q637 195 621 120 Q605 45 569 -16.5 Q533 -78 475.5 -117 Q418 -156 335 -156 Q267 -156 218.5 -136.5 Q170 -117 137.5 -87.5 Q105 -58 86.5 -24 Q68 10 60 40 L154 51 Q157 33 169.5 11 Q182 -11 204 -30.5 Q226 -50 257.5 -63 Q289 -76 329 -76 Q377 -76 413 -50.5 Q449 -25 472.5 17 Q496 59 508 114 Q520 169 520 228 Q508 204 487 182 Q466 160 438 144 Q410 128 377.5 118.5 Q345 109 311 109 Q252 109 203 128.5 Q154 148 119 182.5 Q84 217 64.5 264 Q45 311 45 367 Z " />
<glyph glyph-name="ampersand" unicode="&#x26;" horiz-adv-x="867" d="M660 0 L579 75 Q528 40 467.5 16 Q407 -8 329 -8 Q278 -8 227 5 Q176 18 135.5 45 Q95 72 70 113 Q45 154 45 210 Q45 261 68 298 Q91 335 119.5 360.5 Q148 386 174 400.5 Q200 415 206 420 Q200 426 181.5 442.5 Q163 459 143 483 Q123 507 107.5 538 Q92 569 92 604 Q92 642 107.5 676.5 Q123 711 152.5 737.5 Q182 764 225.5 779.5 Q269 795 326 795 Q377 795 420 780.5 Q463 766 494 741 Q525 716 542.5 682.5 Q560 649 560 612 Q560 583 546.5 556.5 Q533 530 512.5 507 Q492 484 468 465.5 Q444 447 423 433.5 Q402 420 388 412 Q374 404 373 403 L584 216 Q596 232 604 257 Q612 282 616 309.5 Q620 337 620 364.5 Q620 392 615 413 L728 413 Q730 397 730.5 378.5 Q731 360 729 340 Q726 307 718 279 Q710 251 699.5 227 Q689 203 677.5 184.5 Q666 166 657 153 Q700 115 743 76.5 Q786 38 829 0 L660 0 Z M510 140 Q451 196 395 245.5 Q339 295 277 352 Q239 334 211 310 Q183 286 168 259.5 Q153 233 153.5 205.5 Q154 178 174 153 Q198 123 238.5 106.5 Q279 90 325.5 88.5 Q372 87 420.5 99.5 Q469 112 510 140 Z M199 617 Q199 597 210 576.5 Q221 556 236.5 536.5 Q252 517 269.5 500.5 Q287 484 300 472 Q319 484 345.5 499.5 Q372 515 396.5 533 Q421 551 438.5 571.5 Q456 592 456 615 Q456 636 445.5 653 Q435 670 417 682.5 Q399 695 375 702 Q351 709 325 709 Q265 709 232 683.5 Q199 658 199 617 Z " />
<glyph glyph-name="numbersign" unicode="&#x23;" horiz-adv-x="868" d="M829 483 L627 483 L582 302 L764 302 L764 221 L562 221 L508 0 L417 0 L471 221 L308 221 L254 0 L163 0 L217 221 L45 221 L45 302 L237 302 L282 483 L109 483 L109 564 L302 564 L359 795 L450 795 L393 564 L556 564 L613 795 L704 795 L647 564 L829 564 L829 483 Z M491 302 L536 483 L373 483 L328 302 L491 302 Z " />
<glyph glyph-name="question" unicode="&#x3f;" horiz-adv-x="609" d="M353 260 L244 260 Q244 314 259.5 351 Q275 388 298.5 413.5 Q322 439 349.5 458.5 Q377 478 400.5 497.5 Q424 517 439.5 541 Q455 565 455 601 Q455 619 446 638 Q437 657 418.5 672 Q400 687 372 697 Q344 707 306 707 Q269 707 239.5 696 Q210 685 188.5 666.5 Q167 648 155.5 624 Q144 600 143 575 L45 587 Q54 639 77.5 678.5 Q101 718 136 743.5 Q171 769 215.5 782 Q260 795 310 795 Q371 795 417.5 778 Q464 761 495.5 733.5 Q527 706 542.5 670 Q558 634 558 595 Q558 547 543 515.5 Q528 484 505 461.5 Q482 439 455.5 420.5 Q429 402 406 381 Q383 360 368 331.5 Q353 303 353 260 Z M356 0 L244 0 L244 148 L356 148 L356 0 Z " />
<glyph glyph-name="exclam" unicode="&#x21;" horiz-adv-x="256" d="M157 148 L157 0 L45 0 L45 148 L157 148 Z M157 795 L157 254 L45 254 L45 795 L157 795 Z " />
<glyph glyph-name="parenleft" unicode="&#x28;" horiz-adv-x="415" d="M312 795 Q266 743 230 677 Q199 620 173.5 540 Q148 460 148 361 Q148 261 173.5 180 Q199 99 231 40 Q267 -29 314 -83 L204 -83 Q159 -20 124 53 Q94 115 69.5 195 Q45 275 45 363 Q45 450 69 528 Q93 606 122 666 Q156 736 200 795 L312 795 Z " />
<glyph glyph-name="parenright" unicode="&#x29;" horiz-adv-x="415" d="M159 795 Q202 736 236 666 Q251 636 265 601.5 Q279 567 290 528 Q301 489 307.5 447.5 Q314 406 314 363 Q314 319 307 277 Q300 235 289 195.5 Q278 156 263.5 120 Q249 84 234 53 Q199 -20 155 -83 L45 -83 Q91 -29 128 40 Q159 98 185 179.5 Q211 261 211 361 Q211 460 185.5 540 Q160 620 129 677 Q93 743 47 795 L159 795 Z " />
<glyph glyph-name="slash" unicode="&#x2f;" horiz-adv-x="847" d="M731 795 L170 6 L45 6 L605 795 L731 795 L731 795 Z " />
<glyph glyph-name="backslash" unicode="&#x5c;" horiz-adv-x="728" d="M148 795 L605 6 L487 6 L29 795 L148 795 L148 795 Z " />
<glyph glyph-name="underscore" unicode="&#x5f;" horiz-adv-x="430" d="M385 0 L45 0 L45 94 L385 94 L385 0 L385 0 Z " />
<glyph glyph-name="plus" unicode="&#x2b;" horiz-adv-x="422" d="M379 339 L379 245 L259 245 L259 125 L165 125 L165 245 L45 245 L45 339 L165 339 L165 459 L259 459 L259 339 L379 339 L379 339 Z " />
<glyph glyph-name="hyphen" unicode="&#x2d;" horiz-adv-x="386" d="M341 245 L45 245 L45 339 L341 339 L341 245 L341 245 Z " />
<glyph glyph-name="equal" unicode="&#x3d;" horiz-adv-x="390" d="M45 351 L45 433 L345 433 L345 351 L45 351 L45 351 Z M45 150 L45 232 L345 232 L345 150 L45 150 L45 150 Z " />
<glyph glyph-name="bracketleft" unicode="&#x5b;" horiz-adv-x="284" d="M45 -55 L45 841 L194 841 L194 750 L140 750 L140 37 L194 37 L194 -55 L45 -55 L45 -55 Z " />
<glyph glyph-name="bracketright" unicode="&#x5d;" horiz-adv-x="284" d="M45 -55 L45 37 L99 37 L99 750 L45 750 L45 841 L194 841 L194 -55 L45 -55 L45 -55 Z " />
<glyph glyph-name="semicolon" unicode="&#x3b;" horiz-adv-x="235" d="M98 0 L45 -107 L76 -107 L154 0 L154 125 L45 125 L45 0 L98 0 L98 0 Z M154 361 L45 361 L45 486 L154 486 L154 361 L154 361 Z " />
<glyph glyph-name="comma" unicode="&#x2c;" horiz-adv-x="235" d="M98 0 L45 0 L45 125 L154 125 L154 0 L76 -107 L45 -107 L98 0 L98 0 Z " />
<glyph glyph-name="quotesingle" unicode="&#x27;" horiz-adv-x="235" d="M98 701 L45 701 L45 826 L154 826 L154 701 L76 594 L45 594 L98 701 L98 701 Z " />
<glyph glyph-name="quotedbl" unicode="&#x22;" horiz-adv-x="435" d="M98 701 L45 701 L45 826 L154 826 L154 701 L76 594 L45 594 L98 701 Z M264 701 L211 701 L211 826 L320 826 L320 701 L242 594 L211 594 L264 701 Z " />
<glyph glyph-name="colon" unicode="&#x3a;" horiz-adv-x="235" d="M154 361 L45 361 L45 486 L154 486 L154 361 L154 361 Z M154 0 L45 0 L45 125 L154 125 L154 0 L154 0 Z " />
<glyph glyph-name="period" unicode="&#x2e;" horiz-adv-x="225" d="M149 0 L40 0 L40 125 L149 125 L149 0 L149 0 Z " />
<glyph glyph-name="quotedblleft" unicode="&#x201c;" horiz-adv-x="355" d="M234 719 L287 719 L287 594 L178 594 L178 719 L257 826 L287 826 L234 719 Z M71 719 L124 719 L124 594 L15 594 L15 719 L94 826 L124 826 L71 719 Z " />
<glyph glyph-name="quotedblright" unicode="&#x201d;" horiz-adv-x="355" d="M68 701 L15 701 L15 826 L124 826 L124 701 L45 594 L15 594 L68 701 Z M231 701 L178 701 L178 826 L287 826 L287 701 L208 594 L178 594 L231 701 Z " />
<glyph glyph-name="quoteright" unicode="&#x2019;" horiz-adv-x="155" d="M68 701 L15 701 L15 826 L124 826 L124 701 L45 594 L15 594 L68 701 L68 701 Z " />
<glyph glyph-name="quoteleft" unicode="&#x2018;" horiz-adv-x="155" d="M71 719 L124 719 L124 594 L15 594 L15 719 L94 826 L124 826 L71 719 L71 719 Z " />
<glyph glyph-name="braceleft" unicode="&#x7b;" horiz-adv-x="337" d="M205 53 Q214 44 228.5 39.5 Q243 35 248 34 L248 -49 Q236 -47 220.5 -43 Q205 -39 189.5 -31.5 Q174 -24 159 -12 Q144 0 133 18 Q128 27 119 48 Q110 69 111 102 L111 247 Q111 252 111 262 Q111 272 108.5 285 Q106 298 99.5 311 Q93 324 80 335 Q70 343 61 346 Q52 349 45 350 L45 442 Q52 443 61 446.5 Q70 450 80 458 Q93 468 99.5 481.5 Q106 495 108.5 508 Q111 521 111 531 Q111 541 111 545 L111 690 Q110 723 118.5 744 Q127 765 133 774 Q144 792 159 804 Q174 816 189.5 823.5 Q205 831 220.5 835 Q236 839 248 841 L248 757 Q243 756 228.5 751.5 Q214 747 205 738 Q192 724 191 711 Q190 698 190 679 L190 552 Q190 492 169 456 Q158 439 145 423.5 Q132 408 108 396 Q132 384 145 368.5 Q158 353 169 336 Q190 300 190 240 L190 112 Q190 93 191 80 Q192 67 205 53 Z " />
<glyph glyph-name="braceright" unicode="&#x7d;" horiz-adv-x="337" d="M88 53 Q101 67 102 80 Q103 93 103 112 L103 240 Q103 300 124 336 Q135 353 148 368.5 Q161 384 185 396 Q161 408 148 423.5 Q135 439 124 456 Q103 492 103 552 L103 679 Q103 698 102 711 Q101 724 88 738 Q79 747 64.5 751.5 Q50 756 45 757 L45 841 Q57 839 72 835 Q87 831 103 823.5 Q119 816 134 804 Q149 792 160 774 Q165 765 174 744 Q183 723 182 690 L182 545 Q182 541 182 531 Q182 521 184.5 508 Q187 495 193.5 481.5 Q200 468 213 458 Q223 450 232 446.5 Q241 443 248 442 L248 350 Q241 349 232 346 Q223 343 213 335 Q200 324 193.5 311 Q187 298 184.5 285 Q182 272 182 262 Q182 252 182 247 L182 102 Q183 69 174 48 Q165 27 160 18 Q149 0 134 -12 Q119 -24 103 -31.5 Q87 -39 72 -43 Q57 -47 45 -49 L45 34 Q50 35 64.5 39.5 Q79 44 88 53 Z " />
<glyph glyph-name="bar" unicode="&#x7c;" horiz-adv-x="222" d="M128 -107 L45 -107 L45 865 L128 865 L128 -107 L128 -107 Z " />
<glyph glyph-name="less" unicode="&#x3c;" horiz-adv-x="523" d="M45 320 L475 590 L475 479 L174 296 L475 111 L475 0 L45 263 L45 320 L45 320 Z " />
<glyph glyph-name="greater" unicode="&#x3e;" horiz-adv-x="523" d="M475 263 L45 0 L45 111 L346 296 L45 479 L45 590 L475 320 L475 263 L475 263 Z " />
<glyph glyph-name="trademark" unicode="&#x2122;" horiz-adv-x="764" d="M323 796 L323 762 L197 762 L197 483 L151 483 L151 762 L25 762 L25 796 L323 796 L323 796 Z M661 483 L661 728 L545 532 L514 532 L399 728 L399 483 L352 483 L352 796 L412 796 L530 584 L648 796 L708 796 L708 483 L661 483 L661 483 Z " />
<glyph glyph-name="dagger" unicode="&#x2020;" horiz-adv-x="331" d="M108 -107 L25 -107 L25 865 L108 865 L108 -107 L108 -107 Z M321 245 L25 245 L25 339 L321 339 L321 245 L321 245 Z " />
<glyph glyph-name="daggerdbl" unicode="&#x2021;" horiz-adv-x="335" d="M108 -107 L25 -107 L25 865 L108 865 L108 -107 L108 -107 Z M25 351 L25 433 L325 433 L325 351 L25 351 L25 351 Z M25 150 L25 232 L325 232 L325 150 L25 150 L25 150 Z " />
<glyph glyph-name="fraction" unicode="&#x2044;" horiz-adv-x="300" d="M458 795 L-103 6 L-228 6 L332 795 L458 795 Z " />
<glyph glyph-name="guillemotleft" unicode="&#xab;" horiz-adv-x="623" d="M270 244 L440 487 L534 487 L364 244 L534 1 L440 1 L270 244 Z M45 244 L215 487 L309 487 L139 244 L309 1 L215 1 L45 244 Z " />
<glyph glyph-name="guillemotright" unicode="&#xbb;" horiz-adv-x="623" d="M309 244 L139 1 L45 1 L215 244 L45 487 L139 487 L309 244 L309 244 Z M534 244 L364 1 L270 1 L440 244 L270 487 L364 487 L534 244 L534 244 Z " />
<glyph glyph-name="dollar" unicode="&#x24;" horiz-adv-x="818" d="M412 454 Q467 440 522.5 424 Q578 408 623 381.5 Q668 355 696 316 Q724 277 724 217 Q724 182 707 143.5 Q690 105 653.5 72.5 Q617 40 560.5 17.5 Q504 -5 425 -9 L425 -98 L354 -98 L354 -9 Q295 -5 243 13.5 Q191 32 150 62.5 Q109 93 81.5 134.5 Q54 176 45 227 L151 241 Q152 216 169 190 Q186 164 214.5 142 Q243 120 281.5 104.5 Q320 89 365 85 L365 361 Q312 373 259.5 387.5 Q207 402 165.5 425.5 Q124 449 98 484.5 Q72 520 72 574 Q72 626 94.5 666 Q117 706 155.5 733.5 Q194 761 245 776 Q296 791 352 794 L352 883 L423 883 L423 794 Q482 789 531.5 771 Q581 753 619 725.5 Q657 698 681.5 661 Q706 624 714 582 L615 568 Q615 574 605 594 Q595 614 571.5 636.5 Q548 659 509 678 Q470 697 412 701 L412 454 Z M182 585 Q182 559 196.5 541 Q211 523 236 509 Q261 495 294 484.5 Q327 474 365 465 L365 702 Q279 698 230.5 667 Q182 636 182 585 Z M412 85 Q453 87 489.5 96 Q526 105 553 121.5 Q580 138 596 160.5 Q612 183 612 212 Q612 243 596 265 Q580 287 552.5 303 Q525 319 488.5 330 Q452 341 412 351 L412 85 Z " />
<glyph glyph-name="copyright" unicode="&#xa9;" horiz-adv-x="864" d="M432 796 Q518 796 594 764.5 Q670 733 726.5 678.5 Q783 624 816 550.5 Q849 477 849 394 Q849 311 816 237.5 Q783 164 726.5 109.5 Q670 55 594 23.5 Q518 -8 432 -8 Q346 -8 270 23.5 Q194 55 137.5 109.5 Q81 164 48 237.5 Q15 311 15 394 Q15 477 48 550.5 Q81 624 137.5 678.5 Q194 733 270 764.5 Q346 796 432 796 Z M431 58 Q503 58 566 84.5 Q629 111 676.5 156.5 Q724 202 751 263 Q778 324 778 393 Q778 462 751 523 Q724 584 676.5 629.5 Q629 675 566 701.5 Q503 728 431 728 Q359 728 296 701.5 Q233 675 185.5 629.5 Q138 584 111 523 Q84 462 84 393 Q84 324 111 263 Q138 202 185.5 156.5 Q233 111 296 84.5 Q359 58 431 58 Z M440 211 Q503 211 547 247.5 Q591 284 605 346 L685 337 Q677 295 657.5 258.5 Q638 222 606.5 195.5 Q575 169 531 154 Q487 139 430 139 Q372 139 323.5 158.5 Q275 178 240.5 212 Q206 246 186.5 292.5 Q167 339 167 394 Q167 447 186.5 493.5 Q206 540 241 574.5 Q276 609 324.5 629 Q373 649 430 649 Q483 649 527 633 Q571 617 604 589 Q637 561 658 523 Q679 485 686 440 L607 433 Q596 499 552.5 538 Q509 577 440 577 Q398 577 365.5 563 Q333 549 311.5 524.5 Q290 500 279 466.5 Q268 433 268 394 Q268 354 280.5 320.5 Q293 287 315.5 262.5 Q338 238 370 224.5 Q402 211 440 211 Z " />
<glyph glyph-name="registered" unicode="&#xae;" horiz-adv-x="864" d="M432 797 Q518 797 594 765.5 Q670 734 726.5 679 Q783 624 816 551 Q849 478 849 394 Q849 311 816 237.5 Q783 164 726.5 109.5 Q670 55 594 23.5 Q518 -8 432 -8 Q346 -8 270 23.5 Q194 55 137.5 109.5 Q81 164 48 237.5 Q15 311 15 394 Q15 478 48 551 Q81 624 137.5 679 Q194 734 270 765.5 Q346 797 432 797 Z M431 58 Q503 58 566 84.5 Q629 111 676.5 156.5 Q724 202 751 263 Q778 324 778 393 Q778 463 751 524 Q724 585 676.5 630.5 Q629 676 566 702.5 Q503 729 431 729 Q359 729 296 702.5 Q233 676 185.5 630.5 Q138 585 111 524 Q84 463 84 393 Q84 324 111 263 Q138 202 185.5 156.5 Q233 111 296 84.5 Q359 58 431 58 Z M632 173 L555 173 L452 325 L326 325 L326 173 L262 173 L262 630 L454 630 Q490 630 519 618 Q548 606 568.5 585 Q589 564 600 536 Q611 508 611 475 Q611 427 585 390 Q559 353 517 336 L632 173 Z M327 376 L462 376 Q483 376 499.5 385 Q516 394 528 408.5 Q540 423 546.5 441.5 Q553 460 553 479 Q553 498 545.5 516 Q538 534 525.5 548.5 Q513 563 495 571.5 Q477 580 456 580 L327 580 L327 376 Z " />
<glyph glyph-name="yen" unicode="&#xa5;" horiz-adv-x="766" d="M643 281 L67 281 L67 353 L643 353 L643 281 Z M643 146 L67 146 L67 218 L643 218 L643 146 Z M676 297 L676 295 L675 295 Q676 296 676 297 Z M139 794 L354 374 L572 794 L696 794 L411 280 L411 0 L300 0 L300 282 L15 794 L139 794 Z " />
<glyph glyph-name="Euro" unicode="&#x20ac;" horiz-adv-x="902" d="M854 298 Q841 232 812.5 176 Q784 120 737.5 79 Q691 38 625.5 15 Q560 -8 472 -8 Q406 -8 346 10 Q286 28 237 63.5 Q188 99 152.5 152 Q117 205 100 275 L20 275 L53 355 L88 355 Q87 364 87 373.5 Q87 383 87 393 Q87 401 87 407.5 Q87 414 88 421 L20 421 L53 501 L99 501 Q114 565 146.5 619 Q179 673 227 712.5 Q275 752 337.5 774 Q400 796 476 796 Q555 796 619 775 Q683 754 731 714.5 Q779 675 810 619.5 Q841 564 852 495 L755 484 Q745 532 723.5 572.5 Q702 613 669 641.5 Q636 670 590.5 686 Q545 702 488 702 Q436 702 392.5 687 Q349 672 314.5 645.5 Q280 619 255.5 582 Q231 545 218 501 L608 501 L575 421 L204 421 Q203 415 203 408.5 Q203 402 203 395 Q203 385 203 375 Q203 365 205 355 L550 355 L517 275 L222 275 Q237 234 261.5 199.5 Q286 165 319.5 140 Q353 115 395.5 101.5 Q438 88 488 88 Q545 88 590 104.5 Q635 121 668.5 150 Q702 179 723.5 219 Q745 259 755 306 L854 298 Z " />
<glyph glyph-name="ff" unicode="&#xfb00;" horiz-adv-x="650" d="M503 693 Q474 693 456 680 Q438 667 438 634 L438 536 L565 536 L565 460 L437 460 Q437 410 437 371 Q437 332 437 298 Q437 264 436.5 232.5 Q436 201 436 166.5 Q436 132 436 91.5 Q436 51 436 0 L326 0 L326 460 L198 460 Q198 410 198 371 Q198 332 198 298 Q198 264 197.5 232.5 Q197 201 197 166.5 Q197 132 197 91.5 Q197 51 197 0 L87 0 L87 460 L25 460 L25 536 L87 536 L87 593 Q87 639 102 676 Q108 691 118.5 706 Q129 721 144 733 Q159 745 180 752 Q201 759 229 759 Q244 760 262 756 Q278 753 299.5 746 Q321 739 347 725 Q361 753 389 774.5 Q417 796 468 796 Q490 796 516 789 Q539 783 569.5 770 Q600 757 637 731 L605 659 Q580 672 556 682.5 Q532 693 503 693 Z M326 642 Q312 648 296.5 652 Q281 656 264 656 Q235 656 217 643 Q199 630 199 597 L199 536 L326 536 L326 630 L326 642 Z " />
<glyph glyph-name="ffi" unicode="&#xfb03;" horiz-adv-x="698" d="M660 536 L660 0 L548 0 L548 460 L427 460 Q427 410 427 371 Q427 332 427 298 Q427 264 426.5 232.5 Q426 201 426 166.5 Q426 132 426 91.5 Q426 51 426 0 L316 0 L316 460 L188 460 Q188 410 188 371 Q188 332 188 298 Q188 264 187.5 232.5 Q187 201 187 166.5 Q187 132 187 91.5 Q187 51 187 0 L77 0 L77 460 L15 460 L15 536 L77 536 L77 593 Q77 639 92 676 Q98 691 108.5 706 Q119 721 134 733 Q149 745 170 752 Q191 759 219 759 Q234 760 252 756 Q268 753 289.5 746 Q311 739 337 725 Q351 753 379 774.5 Q407 796 458 796 Q480 796 506 789 Q529 783 559.5 770 Q590 757 627 731 L595 659 Q570 672 546 682.5 Q522 693 493 693 Q464 693 446 680 Q428 667 428 634 L428 536 L660 536 Z M316 642 Q302 648 286.5 652 Q271 656 254 656 Q225 656 207 643 Q189 630 189 597 L189 536 L316 536 L316 630 L316 642 Z " />
<glyph glyph-name="fi" unicode="&#xfb01;" horiz-adv-x="499" d="M469 536 L469 0 L357 0 L357 460 L188 460 Q188 410 188 371 Q188 332 188 298 Q188 264 187.5 232.5 Q187 201 187 166.5 Q187 132 187 91.5 Q187 51 187 0 L77 0 L77 460 L15 460 L15 536 L77 536 L77 630 Q77 676 92 713 Q98 728 108.5 743 Q119 758 134 770 Q149 782 170 789 Q191 796 219 796 Q241 796 267 789 Q290 783 320.5 770 Q351 757 388 731 L356 659 Q331 672 307 682.5 Q283 693 254 693 Q225 693 207 680 Q189 667 189 634 L189 536 L469 536 Z " />
<glyph glyph-name="florin" unicode="&#x192;" horiz-adv-x="539" d="M294 633 L294 535 L421 535 L421 459 L293 459 Q293 334 292.5 211 Q292 88 292 -37 Q292 -84 274 -121 Q266 -137 254.5 -152 Q243 -167 225.5 -179 Q208 -191 184 -198 Q160 -205 128 -205 Q112 -206 95 -202 Q80 -200 62 -193.5 Q44 -187 25 -175 L25 -89 Q42 -96 65.5 -101.5 Q89 -107 109 -107 Q126 -107 140 -103 Q154 -99 162 -89 Q182 -69 182 -31 L182 86 L182 459 L120 459 L120 535 L182 535 L182 629 Q182 675 197 712 Q203 727 213.5 742 Q224 757 239 769 Q254 781 275 788 Q296 795 324 795 Q346 795 372 788 Q395 782 425.5 769 Q456 756 493 730 L461 658 Q436 671 412 681.5 Q388 692 359 692 Q330 692 312 679 Q294 666 294 633 Z " />
<glyph glyph-name="fl" unicode="&#xfb02;" horiz-adv-x="604" d="M583 108 L583 22 Q564 10 545.5 3.5 Q527 -3 512 -5 Q494 -9 479 -8 Q447 -8 423 -1 Q399 6 381.5 18 Q364 30 352.5 45 Q341 60 334 76 Q316 113 316 160 Q316 278 316.5 397 Q317 516 317 634 Q317 660 298.5 676.5 Q280 693 254 693 Q229 693 209 677.5 Q189 662 189 634 L189 536 L264 536 L264 460 L188 460 Q188 410 188 371 Q188 332 188 298 Q188 264 187.5 232.5 Q187 201 187 166.5 Q187 132 187 91.5 Q187 51 187 0 L77 0 L77 460 L15 460 L15 536 L77 536 L77 630 Q77 668 90.5 698.5 Q104 729 127.5 750 Q151 771 183.5 782.5 Q216 794 254 794 Q293 794 324.5 781 Q356 768 378.5 745.5 Q401 723 413.5 692 Q426 661 426 626 L426 538 Q426 472 426 413.5 Q426 355 426.5 307 Q427 259 427 223 Q427 187 427 166 Q427 157 429 139.5 Q431 122 445 108 Q462 90 499 90 Q519 90 542.5 95.5 Q566 101 583 108 Z " />
<glyph glyph-name="ffl" unicode="&#xfb04;" horiz-adv-x="860" d="M771 90 Q791 90 814.5 95.5 Q838 101 855 108 L855 22 Q836 10 817.5 3.5 Q799 -3 784 -5 Q766 -9 751 -8 Q719 -8 695 -1 Q671 6 653.5 18 Q636 30 624.5 45 Q613 60 606 76 Q588 113 588 160 Q588 278 588.5 397 Q589 516 589 634 Q589 660 570.5 676.5 Q552 693 526 693 Q501 693 481 677.5 Q461 662 461 634 L461 536 L536 536 L536 460 L460 460 Q460 410 460 371 Q460 332 460 298 Q460 264 459.5 232.5 Q459 201 459 166.5 Q459 132 459 91.5 Q459 51 459 0 L349 0 L349 460 L218 460 Q218 410 218 371 Q218 332 218 298 Q218 264 217.5 232.5 Q217 201 217 166.5 Q217 132 217 91.5 Q217 51 217 0 L107 0 L107 460 L45 460 L45 536 L107 536 L107 593 Q107 639 122 676 Q128 691 138.5 706 Q149 721 164 733 Q179 745 200 752 Q221 759 249 759 Q265 759 284 755 Q301 752 323.5 744 Q346 736 375 721 Q398 756 437 775 Q476 794 526 794 Q565 794 596.5 781 Q628 768 650.5 745.5 Q673 723 685.5 692 Q698 661 698 626 L698 538 Q698 472 698 413.5 Q698 355 698.5 307 Q699 259 699 223 Q699 187 699 166 Q699 157 701 139.5 Q703 122 717 108 Q734 90 771 90 Z M349 640 Q334 647 318 651.5 Q302 656 284 656 Q255 656 237 643 Q219 630 219 597 L219 536 L349 536 L349 630 L349 640 Z " />
<glyph glyph-name="asciicircum" unicode="&#x5e;" horiz-adv-x="591" d="M41 418 L240 795 L347 795 L546 418 L451 418 L294 713 L135 418 L41 418 L41 418 Z " />
<glyph glyph-name="questiondown" unicode="&#xbf;" horiz-adv-x="579" d="M242 532 L352 532 Q352 477 336 440 Q320 403 296.5 377 Q273 351 245.5 332 Q218 313 194.5 293 Q171 273 155 248.5 Q139 224 139 188 Q139 170 148 151 Q157 132 176 116.5 Q195 101 223 91 Q251 81 290 81 Q327 81 357 92 Q387 103 408.5 122 Q430 141 442 164.5 Q454 188 455 214 L553 202 Q544 149 519.5 109.5 Q495 70 460 44 Q425 18 380.5 5 Q336 -8 285 -8 Q223 -8 176 9 Q129 26 97.5 54 Q66 82 50.5 118.5 Q35 155 35 194 Q35 242 50.5 274 Q66 306 89 329 Q112 352 138.5 370.5 Q165 389 188 410.5 Q211 432 226.5 460.5 Q242 489 242 532 Z M239 795 L352 795 L352 646 L239 646 L239 795 Z " />
<glyph glyph-name="paragraph" unicode="&#xb6;" horiz-adv-x="675" d="M15 520 Q15 649 98 723 Q180 795 331 795 L619 795 L619 719 L541 719 L541 -91 L456 -91 L456 250 L381 250 L381 -91 L295 -91 L295 250 Q263 251 234 255.5 Q205 260 179 270 Q127 289 91 324 Q55 357 35 409 Q15 456 15 520 Z M99 522 Q99 472 115 439 Q130 403 157 379 Q182 355 220 341 Q254 329 295 326 L295 719 Q199 716 150 664 Q99 613 99 522 Z M456 719 L381 719 L381 326 L456 326 L456 719 Z " />
<glyph glyph-name="percent" unicode="&#x25;" horiz-adv-x="899" d="M232 796 Q274 796 308.5 782.5 Q343 769 367.5 745.5 Q392 722 405.5 690.5 Q419 659 419 623 Q419 587 406.5 556 Q394 525 370 501.5 Q346 478 311 464.5 Q276 451 232 451 Q190 451 155.5 464.5 Q121 478 96.5 501.5 Q72 525 58.5 556 Q45 587 45 623 Q45 659 59 690.5 Q73 722 97.5 745.5 Q122 769 156.5 782.5 Q191 796 232 796 Z M232 499 Q289 499 320.5 534 Q352 569 352 623 Q352 676 321.5 712 Q291 748 232 748 Q173 748 142 712.5 Q111 677 111 623 Q111 597 119.5 574 Q128 551 144 534.5 Q160 518 182.5 508.5 Q205 499 232 499 Z M669 336 Q711 336 745.5 322.5 Q780 309 804.5 285.5 Q829 262 842.5 230.5 Q856 199 856 163 Q856 127 843.5 96 Q831 65 807 41.5 Q783 18 748 4.5 Q713 -9 669 -9 Q627 -9 592.5 4.5 Q558 18 533.5 41.5 Q509 65 495.5 96 Q482 127 482 163 Q482 199 496 230.5 Q510 262 534.5 285.5 Q559 309 593.5 322.5 Q628 336 669 336 Z M669 39 Q726 39 758 74 Q790 109 790 163 Q790 217 759.5 252 Q729 287 669 287 Q610 287 579.5 252 Q549 217 549 163 Q549 136 557.5 113.5 Q566 91 582 74.5 Q598 58 620 48.5 Q642 39 669 39 Z M782 741 Q708 654 634 565.5 Q560 477 484 384 Q404 287 327.5 193 Q251 99 176 6 Q162 17 148 28.5 Q134 40 120 52 Q196 143 273.5 235 Q351 327 430 424 Q507 518 580 608 Q653 698 725 788 L782 741 Z " />
<glyph glyph-name="asterisk" unicode="&#x2a;" horiz-adv-x="396" d="M314 569 L262 537 Q245 563 229 588.5 Q213 614 196 640 Q179 614 163 588.5 Q147 563 130 537 L79 569 L142 662 Q118 671 93.5 680 Q69 689 45 697 L67 752 Q114 731 164 708 Q162 736 161.5 763 Q161 790 160 818 L232 818 Q230 790 229.5 763 Q229 736 227 709 Q252 720 276.5 731 Q301 742 326 753 L348 697 Q323 689 299 680 Q275 671 250 662 Q266 639 281.5 615.5 Q297 592 314 569 Z " />
<glyph glyph-name="sterling" unicode="&#xa3;" horiz-adv-x="559" d="M45 422 L130 422 Q101 467 84 507.5 Q67 548 67 596 Q67 644 83.5 681 Q100 718 128 744 Q156 770 194 783.5 Q232 797 276 797 Q320 797 357.5 786 Q395 775 424.5 759.5 Q454 744 475.5 727.5 Q497 711 509 701 L470 622 Q454 634 438 646.5 Q422 659 404 669.5 Q386 680 365.5 686.5 Q345 693 320 693 Q251 693 218 662.5 Q185 632 185 578 Q185 557 193 536 Q201 515 212 495 Q223 475 234 456.5 Q245 438 251 422 L457 422 L457 338 L269 338 Q269 321 264.5 291 Q260 261 249.5 226.5 Q239 192 221.5 156.5 Q204 121 178 94 Q204 102 232.5 107 Q261 112 292 112 Q318 112 344 106.5 Q370 101 398 97 Q426 93 455 93 Q484 93 516 104 L539 19 Q521 8 500.5 0.5 Q480 -7 445 -7 Q419 -7 395 -2 Q371 3 346.5 8.5 Q322 14 295 19 Q268 24 237 24 Q202 24 162.5 16.5 Q123 9 76 -8 L53 98 Q72 114 89 142.5 Q106 171 119 204.5 Q132 238 139 273 Q146 308 146 338 L45 338 L45 422 Z " />
<glyph glyph-name="at" unicode="&#x40;" horiz-adv-x="1005" d="M294 232 Q294 276 316 303.5 Q338 331 367.5 347 Q397 363 426.5 370 Q456 377 472 380 Q514 388 548 394 Q582 400 613 406 Q613 422 608.5 444 Q604 466 592 485.5 Q580 505 558.5 518.5 Q537 532 502 532 Q471 532 449.5 520.5 Q428 509 414.5 492 Q401 475 394 456 Q387 437 386 422 Q367 424 348.5 425 Q330 426 310 428 Q314 465 330 496.5 Q346 528 371.5 551.5 Q397 575 431 588.5 Q465 602 505 602 Q552 602 587.5 585.5 Q623 569 646.5 543.5 Q670 518 681.5 485.5 Q693 453 693 422 L693 290 Q693 274 695 253 Q697 232 704.5 213 Q712 194 727 180.5 Q742 167 768 167 Q798 167 821 180.5 Q844 194 860.5 216.5 Q877 239 886.5 269 Q896 299 899 332 L899 338 Q902 376 891 420 Q880 464 856.5 508 Q833 552 797.5 592.5 Q762 633 717 664.5 Q672 696 618 715 Q564 734 503 734 Q421 734 348.5 703 Q276 672 222 618 Q168 564 137 492 Q106 420 106 338 Q106 249 139 176 Q172 103 227 51 Q282 -1 354 -30 Q426 -59 503 -59 Q562 -59 604 -48.5 Q646 -38 675 -23.5 Q704 -9 723 6.5 Q742 22 756 33 L795 -12 Q777 -29 749 -47.5 Q721 -66 684.5 -82.5 Q648 -99 602.5 -109.5 Q557 -120 503 -120 Q415 -120 332.5 -86.5 Q250 -53 186 7 Q122 67 83.5 151.5 Q45 236 45 338 Q45 435 82 519 Q119 603 182 664 Q245 725 328 760 Q411 795 503 795 Q604 795 688 757 Q772 719 832.5 655.5 Q893 592 926.5 509.5 Q960 427 960 338 Q960 330 956.5 304.5 Q953 279 942 246.5 Q931 214 910.5 181 Q890 148 855 125 Q851 123 842.5 118 Q834 113 823 108.5 Q812 104 800 100.5 Q788 97 776 97 Q771 97 757 96.5 Q743 96 725 99.5 Q707 103 686 112.5 Q665 122 646 141 Q635 152 628 162.5 Q621 173 616 181 Q592 146 551 122 Q510 98 450 98 Q415 98 386.5 108 Q358 118 337.5 136 Q317 154 305.5 178.5 Q294 203 294 232 Z M551 189 Q613 229 613 348 Q581 340 540 334 Q499 328 463 317.5 Q427 307 402 288 Q377 269 377 235 Q377 211 392 192.5 Q407 174 432 166.5 Q457 159 488 163.5 Q519 168 551 189 Z " />
<glyph glyph-name="d" unicode="d" horiz-adv-x="729" d="M620 795 L620 0 L509 0 L509 127 Q481 64 429.5 28 Q378 -8 298 -8 Q243 -8 196.5 15 Q150 38 116.5 78.5 Q83 119 64 175 Q45 231 45 297 Q45 360 62 415.5 Q79 471 111.5 512.5 Q144 554 191 578 Q238 602 298 602 Q370 602 424 563.5 Q478 525 509 460 L509 795 L620 795 Z M336 78 Q379 78 411 95.5 Q443 113 465 143 Q487 173 498 213 Q509 253 509 298 Q509 342 496.5 380 Q484 418 461 445.5 Q438 473 406.5 489 Q375 505 336 505 Q293 505 259.5 488 Q226 471 203 442 Q180 413 168 374 Q156 335 156 291 Q156 245 169.5 206 Q183 167 207 138.5 Q231 110 264 94 Q297 78 336 78 Z " />
<glyph glyph-name="a" unicode="a" horiz-adv-x="728" d="M434 92 Q405 50 355 21 Q305 -8 234 -8 Q192 -8 157 4.5 Q122 17 97 38.5 Q72 60 58.5 90 Q45 120 45 155 Q45 208 71.5 241 Q98 274 133.5 293 Q169 312 205 320.5 Q241 329 260 333 Q310 344 351.5 350.5 Q393 357 431 365 Q431 385 426 411 Q421 437 406 460.5 Q391 484 364.5 500.5 Q338 517 296 517 Q258 517 232.5 503 Q207 489 190.5 468.5 Q174 448 166 425 Q158 402 156 384 Q139 385 129 386 Q119 387 110 388 Q101 389 91 389.5 Q81 390 64 391 Q69 436 88.5 474.5 Q108 513 138.5 541.5 Q169 570 210 586 Q251 602 300 602 Q357 602 400 582.5 Q443 563 471 531.5 Q499 500 513 461 Q527 422 527 384 L527 123 Q527 115 530.5 101.5 Q534 88 545 80 Q552 75 559.5 74.5 Q567 74 574.5 75.5 Q582 77 588.5 79.5 Q595 82 598 83 L598 11 Q591 6 577 -1 Q563 -8 540 -8 Q521 -8 502.5 -1 Q484 6 469 19.5 Q454 33 444.5 51 Q435 69 434 92 Z M145 158 Q145 128 163.5 106.5 Q182 85 212 75.5 Q242 66 279.5 71.5 Q317 77 355 102 Q392 126 411.5 174 Q431 222 431 294 Q392 284 342.5 277 Q293 270 249 257.5 Q205 245 175 222 Q145 199 145 158 Z " />
<glyph glyph-name="b" unicode="b" horiz-adv-x="733" d="M156 795 L156 460 Q187 525 241 563.5 Q295 602 367 602 Q427 602 474 578 Q521 554 553.5 512.5 Q586 471 603 415.5 Q620 360 620 297 Q620 231 601 175 Q582 119 548 78.5 Q514 38 468 15 Q422 -8 367 -8 Q287 -8 235.5 28 Q184 64 156 127 L156 0 L45 0 L45 795 L156 795 Z M156 298 Q156 253 167 213 Q178 173 199.5 143 Q221 113 253.5 95.5 Q286 78 329 78 Q368 78 401 94 Q434 110 458 138.5 Q482 167 495.5 206 Q509 245 509 291 Q509 335 497 374 Q485 413 462 442 Q439 471 405.5 488 Q372 505 329 505 Q290 505 258.5 489 Q227 473 204 445.5 Q181 418 168.5 380 Q156 342 156 298 Z " />
<glyph glyph-name="c" unicode="c" horiz-adv-x="669" d="M340 79 Q409 79 458.5 122.5 Q508 166 522 240 L611 230 Q603 179 581.5 135.5 Q560 92 524.5 60 Q489 28 440.5 10 Q392 -8 330 -8 Q265 -8 211.5 15 Q158 38 120 79 Q82 120 60.5 176 Q39 232 39 297 Q39 360 60.5 415.5 Q82 471 121 512.5 Q160 554 213.5 578 Q267 602 330 602 Q388 602 436.5 583 Q485 564 521.5 530.5 Q558 497 581 451 Q604 405 612 352 L524 344 Q513 422 465 469 Q417 516 340 516 Q293 516 258 499.5 Q223 483 199 453.5 Q175 424 163 384 Q151 344 151 297 Q151 250 165 210 Q179 170 203.5 141 Q228 112 263 95.5 Q298 79 340 79 Z " />
</font>
</svg>
