<?xml version="1.0" standalone="no"?>
<!DOCTYPE svg PUBLIC "-//W3C//DTD SVG 20010904//EN"
 "http://www.w3.org/TR/2001/REC-SVG-20010904/DTD/svg10.dtd">
<svg version="1.0" xmlns="http://www.w3.org/2000/svg"
 width="530.000000pt" height="530.000000pt" viewBox="0 0 530.000000 530.000000"
 preserveAspectRatio="xMidYMid meet">
<metadata>
Created by potrace 1.14, written by Peter Selinger 2001-2017
</metadata>
<g transform="translate(0.000000,530.000000) scale(0.100000,-0.100000)"
fill="#000000" stroke="none">
<path d="M2400 5038 c-573 -73 -1029 -286 -1419 -663 -384 -370 -620 -829
-706 -1370 -24 -150 -30 -462 -12 -620 43 -373 179 -748 381 -1055 42 -63 76
-118 76 -122 0 -4 5 -8 10 -8 6 0 10 -5 10 -11 0 -34 244 -288 385 -402 551
-444 1263 -625 1955 -496 480 90 907 316 1255 664 210 209 369 436 486 695
292 640 292 1360 0 2000 -118 259 -277 487 -486 695 -392 392 -863 619 -1426
690 -131 16 -394 18 -509 3z m564 -553 c-3 -8 5 -28 19 -45 14 -16 28 -38 30
-47 19 -67 37 -183 42 -268 7 -120 10 -143 17 -151 6 -5 4 -55 -6 -157 -2 -20
0 -35 4 -32 5 3 6 -20 3 -52 -3 -32 -4 -84 -4 -115 l2 -57 -36 -7 c-20 -3 -72
-4 -116 -2 l-79 5 0 -41 c0 -25 8 -51 20 -66 24 -31 28 -108 5 -116 -34 -14
-11 -24 54 -24 78 0 101 6 101 26 0 17 -17 18 -23 2 -2 -8 -8 -9 -13 -4 -5 5
-4 11 4 13 17 6 15 18 -5 39 -17 17 -17 17 5 12 26 -7 32 16 6 26 -8 3 -13 10
-9 15 3 6 12 8 20 4 10 -3 15 1 15 15 0 12 5 24 11 27 7 5 8 -5 3 -32 -5 -30
-4 -36 6 -26 7 6 15 35 18 62 2 28 8 51 12 51 7 0 6 -91 -1 -126 -1 -5 -1 -36
0 -69 1 -43 4 -56 11 -45 6 10 10 11 10 3 0 -7 4 -12 9 -10 5 1 9 -2 9 -8 0
-5 -5 -9 -11 -7 -7 2 -9 0 -5 -4 4 -4 3 -13 -2 -19 -6 -7 -8 -20 -4 -29 7 -19
34 -22 35 -3 0 10 2 10 6 0 2 -7 14 -13 26 -13 18 0 19 -2 7 -10 -10 -6 -11
-10 -2 -10 6 0 12 -7 12 -16 0 -14 -2 -15 -17 -3 -10 8 -14 9 -10 2 4 -6 3
-14 -3 -18 -6 -4 -8 -10 -5 -15 3 -5 0 -12 -6 -16 -8 -4 -7 -9 2 -15 11 -7 12
-12 2 -29 -7 -11 -13 -22 -13 -24 0 -7 69 -27 122 -35 l47 -7 3 50 c3 50 4 51
37 54 l33 3 -4 53 -4 53 87 37 c56 24 90 45 94 57 5 15 9 16 25 7 14 -9 23 -8
43 5 15 9 28 12 33 7 6 -6 24 -6 47 1 29 8 43 6 68 -7 17 -8 42 -14 55 -11 13
2 24 1 24 -3 0 -11 94 -27 115 -20 13 4 25 0 35 -11 8 -9 51 -31 96 -49 l81
-33 99 65 c54 35 104 67 109 70 6 3 86 14 178 23 132 13 171 14 182 5 13 -11
51 -116 69 -192 6 -25 4 -27 -36 -32 -24 -3 -194 -15 -378 -27 -184 -12 -338
-26 -341 -31 -4 -6 -14 -6 -26 1 -18 9 -20 7 -15 -14 2 -14 8 -25 13 -25 5 0
8 -48 6 -107 l-2 -108 300 4 c165 2 341 6 390 10 142 10 167 2 128 -41 -9 -11
-11 -18 -5 -18 16 0 15 -47 0 -54 -9 -3 -8 -9 6 -20 17 -13 19 -29 18 -123 -2
-121 -11 -228 -22 -259 -7 -16 -15 -20 -38 -16 -16 2 -33 -1 -36 -7 -5 -7 7
-11 34 -11 48 0 46 -20 -3 -21 l-32 -1 33 -9 c36 -11 40 -24 15 -51 -14 -15
-14 -21 -4 -27 10 -7 10 -9 -2 -14 -19 -7 -27 1 -27 25 0 21 -32 25 -49 5 -6
-7 -10 -27 -10 -43 0 -16 -1 -57 -4 -92 -2 -34 -1 -64 3 -67 4 -2 6 -14 5 -27
-1 -13 2 -33 6 -45 5 -13 5 -23 1 -23 -4 0 -8 -12 -8 -28 -1 -15 -13 -53 -28
-84 l-26 -58 -59 0 c-115 0 -140 16 -111 70 9 17 7 18 -21 15 -35 -5 -46 -11
-36 -22 4 -4 13 -1 19 5 19 19 30 14 18 -9 -9 -16 -8 -26 4 -44 14 -21 14 -24
-1 -29 -9 -4 -25 -4 -36 0 -14 4 -18 2 -15 -7 3 -9 24 -15 59 -16 37 -2 48 0
34 6 -16 7 -17 10 -5 15 8 3 24 4 35 2 11 -3 39 -5 62 -5 l43 -1 -21 -43 -21
-43 -62 4 c-75 6 -119 20 -66 22 42 2 64 11 68 28 2 10 -4 10 -25 -1 -16 -9
-42 -12 -62 -9 -29 4 -33 2 -28 -12 7 -18 -6 -19 -58 -6 -16 4 -22 8 -12 9 10
0 15 6 12 11 -3 6 -41 11 -83 12 -47 1 -60 3 -35 5 36 4 42 7 40 25 -1 11 4
23 12 26 10 3 12 0 8 -12 -7 -18 22 -29 60 -23 37 5 36 14 -1 19 -22 2 -33 0
-29 -7 2 -5 -4 0 -14 11 -11 14 -36 25 -68 30 -47 7 -48 8 -20 15 l30 7 -32 1
c-17 0 -35 6 -39 12 -4 7 0 9 13 5 12 -4 25 -1 32 8 7 8 20 12 29 9 9 -3 5 4
-10 15 -14 12 -31 22 -37 22 -6 0 -20 9 -31 20 -20 20 -47 19 -34 -1 3 -5 10
-7 15 -4 5 4 9 1 9 -4 0 -6 -9 -11 -20 -11 -11 0 -20 -5 -20 -10 0 -7 -6 -7
-19 0 -11 5 -31 10 -46 10 -15 0 -24 4 -20 10 4 6 24 8 48 4 31 -4 38 -3 27 5
-8 6 -22 11 -31 11 -8 0 -25 13 -37 29 -17 23 -18 30 -7 35 7 2 15 22 17 43 3
37 4 38 42 38 37 0 39 -2 42 -35 6 -50 11 -60 31 -60 15 0 16 2 3 10 -8 5 -10
10 -5 10 7 0 12 38 13 100 1 55 6 108 11 119 6 10 8 21 4 24 -3 4 2 9 11 13 9
3 16 10 16 16 0 5 -4 6 -10 3 -9 -5 -14 16 -13 53 1 6 -3 12 -8 12 -18 0 -9
40 9 40 9 0 25 7 35 14 15 12 15 14 2 19 -11 5 -13 12 -5 32 8 20 6 27 -5 31
-8 4 -13 10 -10 14 13 21 -277 28 -318 7 -16 -7 -17 -16 -11 -65 3 -31 10 -61
15 -66 6 -6 9 -5 9 2 0 19 21 14 41 -9 17 -20 19 -40 18 -203 -1 -99 0 -185 1
-191 8 -36 0 -47 -32 -40 -26 5 -29 4 -15 -5 19 -12 23 -30 6 -30 -5 0 -7 5
-4 10 3 6 -3 10 -15 10 -12 0 -18 5 -15 10 7 12 -11 12 -40 1 -18 -7 -17 -9
10 -19 29 -12 28 -12 -12 -7 -43 5 -53 -1 -32 -22 7 -7 21 -8 42 -2 44 12 110
12 102 -1 -4 -6 -10 -8 -15 -5 -5 3 -18 -5 -29 -17 -12 -12 -21 -16 -21 -10 0
18 -26 15 -46 -6 -24 -23 -90 -42 -102 -30 -7 7 -27 7 -59 0 -63 -14 -251 -15
-208 -1 17 5 41 9 55 8 46 -2 57 1 57 15 0 10 -5 12 -16 7 -9 -4 -32 -6 -51
-5 -19 1 -66 3 -105 4 -38 1 -64 4 -57 7 6 2 10 9 6 14 -3 5 21 10 53 10 32 1
49 4 38 6 -11 3 -24 11 -28 19 -4 8 -19 14 -32 14 -14 0 -25 5 -25 11 0 6 -9
8 -21 4 -15 -5 -19 -4 -15 4 4 6 2 11 -5 11 -8 0 -9 3 0 14 9 10 8 16 -3 25
-8 7 -13 21 -11 32 2 10 -1 19 -7 19 -5 0 -8 7 -4 15 3 8 2 14 -2 14 -23 -4
-24 4 -2 16 20 11 21 14 7 15 -10 0 -20 6 -23 14 -3 8 -12 12 -20 9 -9 -3 -14
2 -14 16 0 13 -7 21 -17 22 -12 0 -13 2 -5 6 7 3 19 -1 27 -7 12 -10 15 -9 15
4 0 9 3 16 8 16 4 0 8 32 8 70 1 73 -8 85 -46 60 -13 -8 -12 -10 3 -10 10 0
15 -5 12 -10 -4 -6 -2 -17 5 -25 15 -18 -19 -38 -41 -24 -11 7 -11 9 0 9 11 0
11 3 1 15 -7 8 -9 15 -4 15 5 0 2 5 -6 10 -9 6 -10 10 -3 10 8 0 10 11 6 34
-4 25 -1 35 12 40 21 8 35 0 35 -20 0 -8 7 -14 15 -14 8 0 15 5 15 10 0 6 11
15 25 20 14 5 25 14 25 20 0 5 7 10 15 10 9 0 12 -6 9 -15 -4 -10 0 -15 10
-15 9 0 21 11 26 25 11 30 34 32 57 5 10 -11 25 -20 34 -20 18 0 33 26 23 41
-9 14 13 10 29 -6 18 -18 27 -10 27 27 0 20 5 28 18 29 16 1 16 2 0 6 -10 2
-18 9 -18 14 0 6 -12 10 -27 9 -16 -1 -32 -1 -38 0 -5 1 -72 1 -149 0 -97 -1
-136 1 -132 9 4 7 -1 11 -14 11 -12 0 -18 -4 -15 -10 3 -5 -1 -10 -9 -10 -9 0
-16 5 -16 10 0 6 -12 10 -27 9 l-28 -1 25 -8 c21 -7 22 -8 5 -10 -11 0 -38 -3
-60 -4 -22 -2 -45 1 -52 6 -7 5 -16 7 -21 4 -6 -3 -54 -9 -108 -12 -55 -4
-107 -10 -116 -15 -9 -5 -26 -9 -37 -9 -12 0 -21 -7 -21 -16 0 -8 -4 -12 -10
-9 -6 4 -10 -6 -11 -22 l-1 -28 -13 30 c-7 17 -11 34 -8 38 3 4 -75 5 -174 1
-98 -3 -193 -6 -210 -7 -36 0 -41 -8 -18 -27 9 -8 13 -20 9 -29 -21 -51 -22
-71 -7 -87 10 -9 12 -18 6 -22 -5 -4 -9 -24 -8 -44 1 -20 -2 -43 -6 -50 -7
-10 -9 -10 -9 0 0 6 -4 12 -10 12 -5 0 -8 -23 -6 -50 1 -28 -2 -53 -7 -57 -5
-3 -3 -9 4 -14 10 -6 10 -13 0 -35 -11 -24 -10 -30 4 -40 10 -8 12 -14 6 -19
-6 -3 -11 -29 -11 -56 0 -42 -3 -50 -17 -48 -10 1 -22 1 -26 0 -11 -1 19 -31
31 -31 6 0 12 -7 16 -15 8 -21 -23 -35 -51 -22 -25 11 -31 32 -10 40 8 4 8 8
2 14 -20 16 -5 80 16 68 5 -4 9 -1 9 4 0 6 -7 11 -15 11 -15 0 -21 19 -16 50
1 8 4 65 6 125 5 111 7 141 20 205 5 28 2 40 -15 58 -12 12 -18 27 -15 32 3 6
1 10 -4 10 -6 0 -11 7 -11 16 0 14 -3 14 -15 4 -10 -9 -40 -11 -95 -8 -48 3
-80 1 -80 -5 0 -5 -7 -4 -15 3 -9 8 -28 10 -54 5 -22 -4 -46 -3 -52 1 -23 14
-339 5 -370 -10 -15 -7 -31 -10 -36 -6 -4 5 -24 10 -43 12 -30 3 -35 0 -38
-20 -2 -12 -7 -22 -12 -22 -4 0 -6 -10 -2 -22 5 -20 3 -21 -10 -10 -12 10 -18
10 -23 1 -4 -6 -2 -15 5 -19 8 -5 15 -19 17 -32 2 -13 8 -24 13 -26 6 -2 10
-8 10 -13 0 -6 -4 -7 -10 -4 -11 7 -13 -8 -15 -137 0 -48 -4 -90 -8 -94 -3 -4
-2 -15 4 -25 5 -11 6 -19 2 -19 -4 0 0 -5 10 -11 18 -11 24 -39 7 -39 -5 0
-10 -4 -10 -10 0 -5 7 -10 15 -10 8 0 12 -6 9 -14 -6 -17 12 -31 21 -16 7 12
26 14 24 3 -4 -22 3 -24 21 -8 14 12 24 15 32 8 28 -21 44 -21 42 1 -1 11 -5
28 -8 37 -4 10 -3 34 2 55 13 56 7 152 -12 182 -5 8 -4 18 3 25 19 19 12 27
-21 27 -17 0 -28 3 -24 8 4 4 16 7 27 7 10 0 18 5 18 10 0 6 -6 9 -14 9 -8 -1
-16 5 -19 13 -4 10 -1 13 13 8 14 -4 23 0 31 15 13 25 30 26 30 2 0 -19 18
-42 33 -42 5 0 4 7 -3 15 -7 8 -11 15 -9 16 65 14 69 8 56 -86 -4 -33 -5 -70
-2 -82 5 -20 8 -21 24 -11 11 7 17 18 13 26 -4 10 -1 13 7 8 12 -8 10 -30 -5
-70 -4 -10 -1 -16 8 -16 22 0 37 -34 31 -73 -3 -27 -1 -37 9 -37 7 0 0 -11
-16 -25 -21 -18 -25 -25 -13 -25 10 0 17 -7 17 -15 0 -8 5 -15 11 -15 24 0 -4
-20 -37 -26 -19 -3 -33 -9 -30 -11 3 -3 0 -11 -7 -17 -15 -16 -85 -28 -92 -16
-3 5 -27 12 -53 16 -26 3 -55 11 -65 16 -12 6 -24 3 -42 -9 -23 -17 -36 -41
-16 -28 5 3 12 1 16 -5 3 -5 -3 -10 -14 -10 -12 0 -21 4 -21 8 0 5 -23 9 -51
10 -28 0 -56 6 -63 12 -9 7 -39 7 -89 2 -41 -4 -83 -5 -93 -1 -11 4 -13 8 -6
8 32 2 -3 21 -36 20 -33 -1 -34 -2 -12 -9 24 -8 24 -8 3 -9 -13 -1 -23 -7 -23
-15 0 -8 10 -16 23 -18 16 -3 6 -9 -35 -21 -31 -9 -63 -17 -72 -17 -9 0 -16
-4 -16 -8 0 -4 17 -7 37 -5 21 1 29 0 18 -3 -45 -13 -34 -23 21 -19 47 3 52 3
24 -4 -76 -18 -107 -39 -80 -56 5 -3 7 -12 4 -19 -3 -8 0 -17 7 -21 8 -6 5
-13 -12 -27 -13 -10 -17 -16 -8 -12 10 3 20 1 24 -5 3 -7 -3 -11 -15 -11 -15
0 -20 -5 -17 -15 4 -8 1 -17 -5 -21 -7 -4 -6 -9 3 -15 11 -6 11 -13 3 -26 -9
-14 -8 -20 4 -29 13 -10 11 -14 -14 -27 -27 -15 -28 -16 -6 -17 13 0 20 -4 17
-10 -3 -5 -17 -10 -30 -10 -32 0 -100 98 -211 305 -41 77 -105 231 -107 259 0
11 -6 24 -12 28 -6 5 -1 8 10 8 15 0 17 2 6 9 -9 6 -10 11 -2 15 19 12 12 36
-10 36 -18 0 -19 -2 -9 -15 8 -10 9 -15 2 -15 -26 0 -94 300 -111 490 -17 182
-11 387 10 374 5 -3 9 0 9 5 0 6 -4 11 -10 11 -20 0 -10 41 13 50 17 7 18 9 5
9 -10 1 -18 8 -18 16 0 8 8 15 18 15 15 1 15 2 1 13 -14 11 -14 22 5 117 11
58 22 97 24 87 2 -10 11 -17 20 -15 25 5 26 27 0 37 l-23 10 24 0 c23 1 24 3
18 60 -6 53 -2 71 33 165 44 119 113 270 127 279 5 3 28 3 52 0 36 -5 45 -11
53 -34 12 -36 38 -38 38 -4 0 53 20 20 54 -87 19 -62 38 -126 42 -141 5 -22
11 -27 25 -24 20 5 27 -9 8 -15 -13 -4 9 -78 23 -78 4 0 8 -9 8 -20 0 -24 -8
-25 -34 -5 -26 20 -36 19 -36 -4 0 -24 48 -43 71 -28 12 8 25 4 49 -13 38 -27
25 -40 -14 -14 -24 15 -26 15 -26 0 0 -9 8 -16 19 -16 11 0 23 -4 26 -10 9
-15 35 -12 35 5 0 11 5 12 24 5 13 -5 27 -6 30 -3 3 4 6 1 6 -6 0 -8 5 -7 16
3 19 20 30 20 37 2 7 -16 52 -1 161 53 60 30 95 31 97 2 1 -9 4 -5 9 9 4 14 8
19 9 13 1 -19 21 -16 21 3 0 15 8 16 58 9 31 -5 72 -9 90 -9 17 -1 32 -4 32
-8 0 -5 9 -8 19 -8 32 0 50 -11 44 -26 -7 -19 12 -18 31 1 11 11 17 12 22 3 4
-6 2 -14 -4 -16 -6 -2 -22 -12 -34 -22 -16 -14 -19 -19 -8 -19 25 0 83 56 77
73 -5 11 0 16 13 16 11 0 20 6 20 14 0 7 43 31 100 55 l100 41 92 -10 c51 -5
112 -10 136 -10 40 0 42 1 42 30 0 17 -4 30 -10 30 -5 0 -10 5 -10 11 0 5 6 7
13 3 7 -5 6 0 -3 11 -11 14 -12 19 -2 22 17 6 15 32 -4 40 -13 5 -13 7 -2 14
10 7 10 9 1 9 -16 0 -19 235 -3 245 6 3 10 2 10 -3 0 -17 61 -34 76 -21 10 8
22 8 43 1 20 -7 32 -7 40 1 22 22 10 26 -63 21 -48 -4 -76 -2 -80 5 -4 6 -15
11 -24 11 -15 0 -17 12 -15 92 2 110 11 158 28 158 9 0 14 30 18 103 10 173
29 239 80 271 34 22 84 -38 92 -110 2 -22 9 -55 15 -74 13 -44 13 -100 0 -100
-5 0 -10 7 -10 15 0 8 -5 15 -10 15 -13 0 -9 32 5 42 7 5 7 8 0 8 -5 0 -15 -4
-21 -8 -14 -9 -25 -102 -13 -102 5 0 4 -9 -3 -20 -15 -24 -9 -31 20 -23 16 4
22 13 22 34 0 16 4 29 9 29 5 0 7 -18 4 -39 -4 -25 0 -49 10 -67 26 -48 29
-80 28 -296 l-1 -208 23 0 c14 0 40 17 67 45 40 41 71 60 55 35 -3 -5 0 -10 9
-10 10 0 13 -8 9 -31 -3 -21 -1 -29 6 -24 6 3 9 10 6 15 -10 16 13 20 25 5 36
-44 43 -12 55 250 12 242 14 270 25 273 6 2 10 35 10 76 0 106 32 242 66 277
18 19 25 35 21 48 -3 14 0 21 9 21 8 0 11 -6 8 -15z m-504 -15 c0 -5 -2 -10
-4 -10 -3 0 -8 5 -11 10 -3 6 -1 10 4 10 6 0 11 -4 11 -10z m571 -963 c-8 -8
-11 -7 -11 4 0 20 13 34 18 19 3 -7 -1 -17 -7 -23z m-146 3 c-3 -5 -11 -10
-16 -10 -6 0 -7 5 -4 10 3 6 11 10 16 10 6 0 7 -4 4 -10z m88 -142 c7 -5 3 -8
-10 -8 -19 0 -23 5 -23 33 0 45 14 57 18 16 2 -19 9 -37 15 -41z m-1863 6 c0
-14 -4 -23 -10 -19 -5 3 -10 15 -10 26 0 10 5 19 10 19 6 0 10 -12 10 -26z
m88 -1 c3 -18 -2 -23 -17 -23 -12 0 -21 4 -21 9 0 5 -3 17 -6 26 -5 13 -2 16
17 13 16 -2 25 -11 27 -25z m67 7 c3 -5 2 -17 -3 -26 -8 -14 -10 -12 -14 10
-5 26 5 35 17 16z m-135 -106 c0 -21 -4 -25 -22 -22 -15 2 -24 11 -26 26 -3
18 1 22 22 22 21 0 26 -5 26 -26z m3608 -163 c8 -4 12 -19 10 -32 -7 -53 -110
-50 -116 3 -2 19 2 28 15 31 31 8 77 7 91 -2z m-140 -30 c4 -25 -12 -41 -38
-40 -10 0 -11 2 -2 6 6 2 12 16 12 29 0 19 -5 24 -25 24 -21 0 -25 -5 -25 -31
0 -24 -4 -30 -17 -27 -12 3 -17 12 -15 28 3 32 19 41 67 38 34 -3 41 -7 43
-27z m-148 4 c17 -20 6 -43 -27 -56 -43 -16 -73 -4 -73 30 0 16 6 32 13 34 26
11 75 6 87 -8z m-132 -27 c3 -22 -2 -29 -21 -33 -39 -10 -81 -2 -85 16 -5 28
27 50 67 47 31 -3 36 -7 39 -30z m-128 -3 c0 -31 -36 -51 -74 -41 -19 5 -26
13 -26 30 0 28 11 34 63 35 33 1 37 -2 37 -24z m392 -117 l-4 -68 -33 0 c-33
0 -33 1 -37 53 -2 28 -8 60 -12 69 -6 14 -1 17 36 20 23 2 45 1 48 -2 3 -3 4
-35 2 -72z m153 65 c-4 -10 -10 -44 -13 -75 l-4 -58 -34 0 -34 0 0 53 c0 28
-4 59 -9 67 -15 23 -3 30 51 30 44 0 49 -2 43 -17z m-290 -10 c0 -6 3 -15 8
-19 13 -13 8 -91 -7 -103 -8 -7 -32 -11 -53 -9 l-38 3 -3 67 -3 67 33 4 c47 6
63 3 63 -10z m-131 -24 c10 -49 7 -94 -6 -107 -17 -17 -73 -15 -88 3 -12 15
-9 103 5 125 3 6 23 10 44 10 35 0 39 -3 45 -31z m-138 -46 l-1 -68 -45 0 -45
0 0 50 c1 74 8 85 54 85 l39 0 -2 -67z m-1218 -567 c6 -13 9 -38 7 -55 -3 -22
0 -31 10 -31 7 0 15 12 17 28 l3 27 23 -23 c13 -13 21 -30 18 -38 -3 -8 1 -14
9 -14 13 0 31 36 27 53 -1 4 3 7 8 7 6 0 10 7 10 15 0 9 10 15 26 15 20 0 25
-4 20 -16 -7 -18 3 -64 14 -64 4 0 10 18 14 40 4 26 11 40 21 40 8 0 15 -6 15
-14 0 -8 3 -21 6 -30 4 -11 1 -16 -11 -16 -12 0 -15 -5 -11 -16 3 -9 6 -22 6
-30 0 -8 8 -14 18 -15 14 0 14 -2 -3 -8 -11 -5 -26 -6 -34 -3 -9 3 -12 1 -7
-6 4 -7 2 -12 -3 -12 -19 0 -12 -17 12 -27 20 -10 18 -11 -23 -21 -34 -7 -38
-10 -17 -11 31 -1 36 -15 10 -26 -14 -6 -7 -11 27 -20 l45 -13 -42 -1 c-31 -1
-43 -5 -43 -16 0 -9 9 -15 25 -15 14 0 25 -4 25 -10 0 -5 -10 -10 -22 -10 -19
0 -20 -2 -8 -10 13 -9 13 -10 0 -10 -8 0 -26 -9 -39 -19 l-24 -18 42 -7 c49
-7 55 -25 9 -27 l-33 -2 35 -7 35 -7 -33 -2 c-18 0 -31 -5 -28 -10 3 -5 -9
-12 -27 -16 -27 -7 -28 -9 -10 -12 17 -3 20 -10 17 -29 -3 -19 0 -24 16 -24
11 0 20 -4 20 -10 0 -5 -5 -10 -10 -10 -6 0 -20 -9 -32 -20 -16 -14 -18 -20
-7 -20 12 0 12 -2 -1 -10 -10 -6 -11 -10 -2 -10 6 0 12 -7 12 -15 0 -8 -7 -15
-15 -15 -17 0 -19 -9 -5 -30 6 -9 5 -17 -3 -23 -8 -6 -9 -10 -1 -13 13 -6 6
-64 -8 -64 -7 0 -6 -5 1 -14 8 -10 8 -16 -3 -25 -18 -15 -15 -34 8 -60 10 -11
16 -27 13 -35 -4 -9 -2 -18 4 -22 15 -9 -12 -36 -32 -31 -24 6 -43 -8 -36 -28
4 -9 11 -13 17 -10 17 10 11 -7 -7 -20 -10 -8 -12 -14 -5 -19 6 -3 18 1 26 10
15 14 16 13 16 -8 0 -13 -4 -28 -9 -33 -11 -12 -2 -65 11 -65 5 0 6 -5 3 -10
-4 -6 -10 -8 -15 -5 -5 3 -17 -6 -26 -20 -9 -14 -22 -25 -30 -25 -24 0 -23
-16 2 -18 13 -1 24 3 24 8 0 6 5 10 11 10 5 0 8 -4 5 -9 -3 -5 1 -11 9 -15 22
-8 18 -26 -4 -26 -30 0 -35 -19 -6 -26 15 -4 25 -14 26 -25 1 -10 2 -27 3 -36
1 -14 -8 -19 -34 -21 -37 -4 -63 -19 -55 -32 3 -5 -1 -11 -7 -13 -9 -4 -8 -6
3 -6 8 -1 20 4 26 10 14 14 53 2 53 -17 0 -8 7 -14 15 -14 24 0 18 -16 -11
-29 -20 -9 -24 -15 -15 -25 16 -19 3 -76 -17 -76 -12 0 -13 -3 -4 -12 18 -18
15 -28 -10 -29 -23 -2 -23 -2 -1 -6 12 -2 27 -11 35 -20 11 -14 10 -15 -10 -9
-16 6 -22 3 -22 -8 0 -9 7 -16 15 -16 8 0 15 -4 15 -10 0 -5 7 -7 15 -4 8 4
15 1 15 -5 0 -6 -3 -10 -7 -10 -5 1 -19 1 -33 0 -19 -1 -22 -3 -10 -10 8 -6
18 -7 22 -5 4 3 8 1 8 -4 0 -6 -12 -13 -26 -16 -19 -5 -24 -11 -19 -26 4 -13
1 -22 -9 -26 -9 -3 -13 -10 -10 -15 7 -12 54 -11 54 1 0 6 5 10 10 10 6 0 10
-7 10 -15 0 -8 -6 -15 -14 -15 -7 0 -19 -6 -25 -14 -10 -12 -6 -15 19 -21 35
-8 52 1 30 15 -11 7 -12 10 -2 10 8 0 10 5 6 12 -5 7 -2 9 8 5 15 -5 38 9 38
25 0 5 -10 13 -22 18 -14 5 -17 9 -7 9 8 1 23 -5 32 -12 14 -10 15 -19 6 -60
l-11 -47 -62 0 c-35 0 -66 3 -69 6 -4 4 -47 6 -97 5 -58 -1 -90 2 -90 8 0 6
14 11 30 11 17 0 30 5 30 10 0 6 -5 10 -11 10 -5 0 -7 5 -3 11 4 8 9 7 15 -2
6 -11 11 -11 20 -2 9 9 6 15 -14 24 -26 12 -27 35 -1 25 8 -3 14 -1 14 4 0 6
-13 10 -30 10 -18 0 -30 5 -30 13 0 9 11 12 35 11 39 -3 42 0 20 22 -19 20
-19 44 0 44 22 0 7 25 -23 38 -15 6 -18 9 -6 6 18 -4 21 0 19 21 -2 17 2 25
13 26 10 1 6 4 -8 8 -14 4 -24 13 -22 20 1 7 -3 20 -10 28 -9 11 -9 16 1 23 8
4 10 13 7 19 -4 6 0 11 11 11 14 0 15 2 4 9 -7 5 -10 14 -7 20 4 6 1 11 -6 11
-9 0 -9 3 2 10 10 6 11 10 3 10 -7 0 -13 11 -13 24 0 13 -7 26 -15 30 -19 7
-20 26 -1 26 10 0 14 10 14 30 -1 24 -6 30 -32 36 -27 6 -29 8 -11 15 11 4 16
8 12 8 -5 1 -5 6 -2 11 4 7 12 7 25 0 22 -12 50 -3 50 15 0 7 6 15 12 17 18 6
16 42 -2 50 -8 4 -27 7 -42 7 -26 1 -57 35 -44 49 3 3 6 0 6 -7 0 -9 5 -9 21
0 17 9 19 13 8 20 -8 5 -24 9 -36 9 -13 0 -24 3 -24 8 -5 25 -4 62 1 62 11 0
5 47 -9 63 -12 15 -11 17 8 17 26 0 28 26 2 33 -10 2 -39 3 -65 0 -33 -2 -51
1 -62 12 -10 10 -33 15 -67 14 -29 0 -46 -3 -38 -6 10 -4 8 -9 -10 -19 -21
-12 -15 -13 63 -14 48 0 90 -4 93 -10 4 -6 -5 -7 -24 -4 -17 4 -46 3 -64 0
-30 -6 -35 -11 -40 -43 -4 -24 -2 -40 6 -45 8 -5 7 -8 -6 -8 -11 0 -20 -10
-23 -30 -6 -30 -13 -34 -46 -31 -10 1 -18 -3 -18 -8 0 -6 7 -11 15 -11 18 0
20 -16 3 -24 -7 -3 -2 -4 12 -3 21 2 25 -3 28 -28 3 -29 1 -30 -37 -31 -22 0
-38 3 -35 8 3 4 -10 8 -28 8 l-33 -1 24 -19 c13 -11 30 -20 38 -20 12 0 14 -7
10 -30 -4 -16 -3 -30 2 -30 5 0 12 17 16 37 6 34 8 36 20 20 6 -9 17 -17 24
-17 6 0 11 -7 11 -15 0 -8 -4 -15 -10 -15 -5 0 -10 -5 -10 -11 0 -5 6 -7 13
-4 6 4 4 0 -6 -8 -10 -9 -15 -21 -11 -31 5 -13 -1 -16 -27 -16 -32 -1 -33 -1
-15 -15 11 -8 28 -15 39 -15 10 0 16 -4 12 -9 -3 -5 -20 -7 -38 -5 -17 3 -43
1 -57 -5 -21 -10 -19 -11 20 -6 31 4 40 2 30 -4 -12 -9 -12 -11 3 -17 25 -9
21 -19 -15 -42 -27 -18 -30 -22 -15 -28 9 -3 17 -10 17 -15 0 -4 -6 -6 -13 -3
-8 3 -20 -3 -28 -12 -12 -15 -12 -16 9 -10 12 4 22 3 22 -2 0 -5 13 -7 29 -4
22 3 29 -1 34 -17 3 -13 0 -21 -8 -21 -24 0 -39 -29 -27 -54 12 -27 5 -41 -13
-26 -9 8 -14 6 -19 -5 -4 -11 2 -15 24 -15 44 0 36 -15 -12 -26 -27 -6 -43
-14 -43 -24 0 -16 -37 -25 -63 -15 -14 5 -14 7 -2 15 13 8 13 12 -3 27 -10 10
-25 18 -33 18 -9 0 -24 11 -33 25 -15 24 -15 24 2 11 11 -8 17 -9 17 -2 0 6
-13 17 -30 26 -16 9 -30 17 -30 19 0 2 21 2 48 0 26 -1 37 -1 26 2 -24 6 -31
54 -8 54 22 0 17 12 -16 44 -17 16 -28 31 -26 34 3 3 1 11 -5 18 -8 10 -3 17
23 28 l33 14 -32 1 c-37 1 -67 37 -35 43 15 3 15 6 -5 23 l-22 19 22 18 c18
16 19 21 7 28 -12 7 -11 10 5 16 58 19 73 29 67 43 -4 10 -1 13 11 8 21 -8 21
-3 1 17 -8 9 -29 16 -45 16 -16 0 -36 5 -43 12 -15 14 -9 48 8 48 6 0 4 5 -4
10 -13 9 -13 10 0 11 8 1 18 1 23 0 4 0 7 4 7 9 0 6 -7 10 -15 10 -9 0 -15 9
-15 24 0 14 -4 28 -10 31 -18 11 -10 22 13 18 18 -4 23 0 25 21 1 20 -6 30
-36 46 l-37 19 33 -6 c31 -5 32 -5 30 26 -1 17 -6 31 -10 31 -4 0 -5 7 -2 15
4 8 1 15 -6 15 -6 0 -9 4 -5 10 3 5 13 6 22 3 11 -5 10 0 -6 16 -12 12 -19 26
-16 31 3 4 -1 10 -7 13 -7 3 0 10 16 16 16 6 26 14 23 17 -2 3 -21 -2 -41 -10
-20 -8 -34 -11 -31 -6 3 4 -1 10 -7 13 -7 2 14 10 47 18 l60 13 -47 6 c-26 3
-51 10 -55 14 -4 5 4 7 19 4 20 -4 29 0 37 18 10 23 12 24 128 19 65 -3 126
-8 136 -11 9 -3 17 -3 17 1 0 3 -8 18 -17 32 -10 15 -12 24 -5 20 7 -5 12 -3
12 7 0 9 -5 16 -11 16 -6 0 -7 5 -2 13 4 6 8 15 8 19 0 12 15 21 15 9 0 -9 5
-9 20 -1 16 9 21 8 25 -5 14 -44 17 -50 22 -37 3 6 16 12 30 12 18 0 24 -4 19
-15 -3 -10 1 -15 12 -16 11 0 12 -2 4 -6 -7 -3 -20 -1 -30 3 -31 14 -60 10
-72 -10 -10 -16 -9 -18 2 -13 8 3 30 2 49 -3 19 -4 26 -8 17 -9 -10 -1 -18 -5
-18 -11 0 -6 36 -10 88 -10 l87 0 17 35 c13 25 14 35 5 35 -8 0 -7 4 3 10 12
8 12 12 2 18 -9 6 -10 16 -4 32 5 13 5 40 1 59 -4 20 -4 40 0 46 5 5 7 19 5
30 -5 25 -5 281 -1 315 2 14 11 26 20 28 9 2 17 7 17 12 0 5 6 7 14 4 8 -3 17
-1 21 5 11 19 31 12 43 -13z m1012 10 c0 -3 -4 -8 -10 -11 -5 -3 -10 -1 -10 4
0 6 5 11 10 11 6 0 10 -2 10 -4z m-1344 -56 c2 -18 -1 -30 -8 -30 -9 0 -9 -3
0 -12 10 -10 15 -10 22 2 5 8 10 23 10 33 0 33 31 9 34 -28 1 -5 11 -11 23
-13 15 -2 23 4 28 19 6 19 9 20 16 6 12 -21 1 -47 -19 -45 -48 4 -54 -1 -49
-39 7 -53 -7 -75 -46 -71 -28 3 -32 0 -35 -22 -1 -14 -5 -45 -8 -69 -5 -37 -4
-43 9 -38 13 5 14 1 6 -25 -4 -17 -7 -33 -7 -37 1 -3 -3 -16 -10 -27 -6 -12
-9 -24 -6 -27 3 -3 -6 -4 -19 -3 -15 0 -22 5 -18 11 11 13 10 45 0 45 -5 0 -5
10 0 23 4 12 7 53 6 90 -1 37 2 70 7 73 5 3 4 12 -3 20 -6 7 -9 21 -5 29 7 18
-38 50 -55 39 -7 -4 -27 -9 -45 -11 -29 -3 -33 0 -39 27 -4 16 -13 30 -21 30
-10 0 -13 -7 -8 -25 8 -32 -13 -60 -32 -44 -11 9 -14 8 -14 -1 0 -8 -3 -10 -6
-7 -4 4 -1 14 6 22 7 9 13 34 12 55 -2 44 0 45 27 28 11 -7 26 -8 37 -3 34 15
73 15 88 0 12 -12 16 -13 23 -2 4 7 24 13 43 13 31 -1 35 2 38 27 4 35 13 29
18 -13z m1545 28 c5 -46 6 -200 2 -234 -5 -38 -7 -41 -39 -42 -18 -1 -36 4
-40 10 -13 20 -5 83 12 95 12 9 15 21 11 41 -3 16 -3 33 0 36 4 4 6 26 4 50
-2 36 1 45 16 49 30 8 33 7 34 -5z m-1441 -33 c0 -8 -4 -15 -10 -15 -5 0 -10
7 -10 15 0 8 5 15 10 15 6 0 10 -7 10 -15z m-745 -104 c-8 -57 -10 -65 -18
-78 -5 -7 -4 -13 1 -13 6 0 9 -29 8 -64 -1 -35 1 -71 4 -82 4 -10 2 -38 -3
-62 -6 -32 -6 -47 2 -52 9 -5 8 -10 -4 -20 -8 -7 -15 -20 -15 -30 0 -9 -10
-22 -22 -28 -20 -10 -19 -10 12 -6 25 4 31 3 21 -4 -8 -6 -11 -17 -8 -26 4 -9
2 -17 -3 -17 -6 -1 -14 -3 -20 -4 -5 -1 -16 -3 -22 -4 -8 -1 -6 -6 5 -12 10
-6 25 -8 34 -5 23 9 34 -3 21 -23 -9 -15 -17 -17 -42 -10 -38 11 -38 11 -32 0
3 -5 0 -11 -7 -14 -8 -3 -19 4 -25 14 -11 17 -9 19 15 19 20 0 24 3 14 9 -7 5
-10 14 -7 20 4 6 3 11 -3 11 -5 0 -11 10 -13 23 -2 16 -10 22 -31 23 -15 1
-33 6 -40 13 -8 8 1 10 37 5 38 -6 48 -4 44 6 -2 8 -10 16 -18 18 -8 3 -10 0
-5 -8 6 -9 3 -9 -15 0 -16 8 -30 9 -52 1 -37 -13 -38 -13 -38 -3 0 5 11 15 25
22 27 14 33 28 13 27 -40 -1 -68 4 -68 13 0 7 16 9 40 6 45 -5 56 4 40 35 -11
19 -10 20 10 14 11 -4 26 -2 33 3 7 6 29 13 49 17 21 4 36 11 33 15 -3 5 -13
6 -23 4 -9 -3 -28 -1 -42 5 -24 9 -24 10 -3 10 12 1 24 5 27 10 3 5 15 7 26 4
23 -6 22 -15 24 142 1 66 5 126 10 134 15 24 36 -16 31 -58z m35 49 c0 -5 -5
-10 -11 -10 -5 0 -7 5 -4 10 3 6 8 10 11 10 2 0 4 -4 4 -10z m135 -16 c1 -10
5 -37 10 -59 11 -54 12 -67 3 -86 -4 -8 -8 -61 -9 -117 -1 -56 -6 -102 -11
-102 -5 0 -6 -9 -3 -20 5 -14 2 -20 -9 -20 -13 0 -16 9 -13 38 2 20 0 49 -4
65 -4 15 -4 27 0 27 4 0 5 26 3 58 -2 31 -3 74 -3 96 1 26 -4 43 -17 55 -15
12 -17 19 -8 27 6 6 16 9 23 7 6 -2 11 2 10 9 -1 33 4 49 15 46 6 -2 12 -13
13 -24z m-385 -11 c8 -13 13 -14 16 -5 12 26 21 10 15 -25 -5 -32 -11 -39 -32
-41 -22 -3 -28 2 -33 24 -5 18 -3 30 6 35 10 7 9 9 -4 9 -9 0 -20 5 -23 10 -3
6 5 10 19 10 14 0 30 -8 36 -17z m130 -43 c0 -5 -4 -10 -10 -10 -5 0 -10 5
-10 10 0 6 5 10 10 10 6 0 10 -4 10 -10z m-37 -22 c-5 -19 -3 -21 8 -10 21 19
29 14 29 -19 0 -27 -3 -30 -22 -23 -33 10 -51 48 -31 67 13 14 21 6 16 -15z
m181 -15 c8 -19 -1 -33 -21 -33 -13 0 -13 3 -3 15 10 12 10 18 0 30 -11 13
-10 14 3 9 8 -3 18 -12 21 -21z m449 10 c-7 -2 -21 -2 -30 0 -10 3 -4 5 12 5
17 0 24 -2 18 -5z m797 -3 c0 -5 -7 -10 -15 -10 -8 0 -15 5 -15 10 0 6 7 10
15 10 8 0 15 -4 15 -10z m-1493 -24 c0 -8 -13 -16 -29 -18 -28 -5 -41 15 -15
25 24 10 44 7 44 -7z m888 -25 c3 -5 1 -12 -4 -15 -5 -4 -8 -26 -5 -51 3 -36
1 -46 -15 -55 -24 -12 -39 4 -22 24 6 7 8 16 4 20 -11 10 -11 49 -1 69 9 18
33 23 43 8z m-815 -15 c0 -3 -4 -8 -10 -11 -5 -3 -10 -1 -10 4 0 6 5 11 10 11
6 0 10 -2 10 -4z m-30 -126 c0 -5 -7 -10 -15 -10 -8 0 -15 5 -15 10 0 6 7 10
15 10 8 0 15 -4 15 -10z m845 -10 c-3 -5 -13 -10 -21 -10 -8 0 -12 5 -9 10 3
6 13 10 21 10 8 0 12 -4 9 -10z m-1158 -33 c-2 -7 -26 -13 -53 -15 -46 -2 -48
-2 -24 11 32 17 83 20 77 4z m1143 -21 c-14 -14 -24 0 -16 21 6 15 8 15 16 3
6 -9 5 -19 0 -24z m-1148 -18 c-9 -9 -15 -9 -24 0 -9 9 -7 12 12 12 19 0 21
-3 12 -12z m2518 2 c0 -5 -7 -10 -16 -10 -8 0 -12 5 -9 10 3 6 10 10 16 10 5
0 9 -4 9 -10z m-1369 -27 c-8 -15 -10 -15 -11 -2 0 17 10 32 18 25 2 -3 -1
-13 -7 -23z m119 -7 c0 -3 -4 -8 -10 -11 -5 -3 -10 -1 -10 4 0 6 5 11 10 11 6
0 10 -2 10 -4z m-631 -62 c4 3 7 -4 7 -15 0 -23 -19 -25 -37 -3 -10 13 -10 17
2 24 8 6 15 6 17 0 2 -6 7 -8 11 -6z m303 9 c-6 -2 -10 -9 -6 -14 3 -5 -2 -12
-11 -16 -17 -6 -38 14 -29 29 3 4 17 8 32 7 15 0 21 -3 14 -6z m315 1 c-3 -3
-12 -4 -19 -1 -8 3 -5 6 6 6 11 1 17 -2 13 -5z m-1327 -24 c0 -5 -5 -10 -11
-10 -5 0 -7 5 -4 10 3 6 8 10 11 10 2 0 4 -4 4 -10z m2515 0 c-3 -5 -12 -10
-20 -10 -8 0 -17 5 -20 10 -4 6 5 10 20 10 15 0 24 -4 20 -10z m-1229 -9 c-3
-5 -15 -7 -26 -4 -28 7 -25 13 6 13 14 0 23 -4 20 -9z m-1489 -7 c-3 -3 -12
-4 -19 -1 -8 3 -5 6 6 6 11 1 17 -2 13 -5z m962 -9 c4 2 21 0 37 -5 28 -9 27
-9 -10 -7 -23 1 -41 7 -42 15 -1 7 0 8 3 2 2 -5 8 -8 12 -5z m-1059 -5 c0 -5
-9 -10 -21 -10 -11 0 -17 5 -14 10 3 6 13 10 21 10 8 0 14 -4 14 -10z m47 4
c-3 -3 -12 -4 -19 -1 -8 3 -5 6 6 6 11 1 17 -2 13 -5z m318 -4 c4 -6 -8 -10
-29 -10 -20 0 -36 5 -36 10 0 6 13 10 29 10 17 0 33 -4 36 -10z m2338 3 c-7
-2 -19 -2 -25 0 -7 3 -2 5 12 5 14 0 19 -2 13 -5z m90 0 c-7 -2 -21 -2 -30 0
-10 3 -4 5 12 5 17 0 24 -2 18 -5z m-2367 -18 c17 -16 14 -18 -10 -9 -9 3 -16
10 -16 15 0 13 9 11 26 -6z m602 3 c-3 -7 -14 -17 -26 -23 -28 -12 -23 -31 8
-27 14 2 20 0 15 -7 -3 -6 -11 -9 -16 -6 -5 4 -9 1 -9 -4 0 -6 8 -11 18 -12
11 -1 8 -4 -8 -8 -32 -10 -62 9 -33 20 10 4 12 8 6 8 -8 1 -13 15 -13 36 0 32
2 35 31 35 20 0 29 -4 27 -12z m1625 -2 c-3 -5 -30 -6 -60 -3 -30 3 -51 2 -48
-3 3 -5 -8 -4 -25 2 -17 6 -54 8 -81 6 -27 -3 -52 -1 -55 4 -4 6 48 8 134 6
77 -1 138 -7 135 -12z m-2475 -3 c-10 -2 -28 -2 -40 0 -13 2 -5 4 17 4 22 1
32 -1 23 -4z m2885 0 c-7 -2 -21 -2 -30 0 -10 3 -4 5 12 5 17 0 24 -2 18 -5z
m-2970 -10 c-7 -2 -19 -2 -25 0 -7 3 -2 5 12 5 14 0 19 -2 13 -5z m2312 -13
c3 -5 1 -10 -4 -10 -6 0 -11 5 -11 10 0 6 2 10 4 10 3 0 8 -4 11 -10z m78 3
c-7 -2 -21 -2 -30 0 -10 3 -4 5 12 5 17 0 24 -2 18 -5z m-2527 -20 c-3 -17
-26 -32 -26 -16 0 8 20 33 26 33 1 0 1 -8 0 -17z m1129 6 c-4 -5 -15 -9 -26
-9 -26 0 -17 15 10 17 12 1 19 -2 16 -8z m1500 1 c3 -5 -1 -10 -10 -10 -9 0
-13 5 -10 10 3 6 8 10 10 10 2 0 7 -4 10 -10z m-2122 -27 c-7 -2 -19 -2 -25 0
-7 3 -2 5 12 5 14 0 19 -2 13 -5z m77 -3 c11 -7 7 -10 -17 -10 -18 0 -33 5
-33 10 0 13 30 13 50 0z m127 4 c-3 -3 -12 -4 -19 -1 -8 3 -5 6 6 6 11 1 17
-2 13 -5z m203 -44 c0 -5 -4 -10 -10 -10 -5 0 -10 5 -10 10 0 6 5 10 10 10 6
0 10 -4 10 -10z m2380 0 c0 -5 -2 -10 -4 -10 -3 0 -8 5 -11 10 -3 6 -1 10 4
10 6 0 11 -4 11 -10z m-2324 -27 c-10 -11 -37 -12 -30 -2 3 5 12 9 21 9 9 0
13 -3 9 -7z m39 -11 c-3 -3 -11 0 -18 7 -9 10 -8 11 6 5 10 -3 15 -9 12 -12z
m130 -1 c-8 -13 -42 -14 -50 -2 -3 5 7 11 22 13 33 4 37 3 28 -11z m-125 -21
l25 -8 -25 0 c-14 0 -34 3 -45 8 l-20 9 20 -1 c11 0 31 -4 45 -8z m759 -368
c-7 -3 -17 -10 -21 -16 -5 -7 -8 -5 -8 5 0 22 9 29 28 21 13 -5 14 -6 1 -10z
m201 -222 c8 -5 11 -12 8 -16 -4 -3 -14 1 -23 10 -18 17 -9 21 15 6z m-600
-294 c0 -3 -4 -8 -10 -11 -5 -3 -10 -1 -10 4 0 6 5 11 10 11 6 0 10 -2 10 -4z
m-101 -32 c26 -13 38 -14 58 -5 14 7 28 10 30 7 8 -8 -7 -26 -22 -26 -7 0 -15
-7 -19 -15 -3 -8 -1 -15 5 -15 6 0 17 -7 25 -15 14 -13 14 -15 -1 -15 -11 0
-15 -5 -11 -15 3 -9 0 -15 -8 -15 -8 0 -20 -2 -28 -3 -7 -2 -10 -2 -5 0 14 9
7 33 -10 33 -16 1 -16 2 1 15 18 14 17 15 -25 16 l-44 2 40 6 40 6 -43 8 c-27
5 -40 11 -36 18 4 6 0 15 -7 20 -26 16 26 10 60 -7z m406 -14 c-11 -5 -29 -9
-40 -9 -17 -1 -17 1 -5 9 8 5 26 9 40 9 23 0 23 -1 5 -9z m306 -48 c-7 -2 -18
1 -23 6 -8 8 -4 9 13 5 13 -4 18 -8 10 -11z m-575 -18 c-30 -21 -45 -16 -16 6
14 10 27 16 30 13 3 -2 -4 -11 -14 -19z m-146 -3 c0 -5 8 -11 18 -13 11 -2 1
-11 -30 -26 -53 -24 -73 -28 -62 -11 3 6 0 15 -7 20 -9 5 1 6 24 2 33 -5 37
-3 37 16 0 11 5 21 10 21 6 0 10 -4 10 -9z m257 -7 c-3 -3 -12 -4 -19 -1 -8 3
-5 6 6 6 11 1 17 -2 13 -5z m143 -40 c0 -9 -11 -14 -32 -13 -32 2 -32 2 -5 6
23 4 26 7 16 19 -10 12 -9 13 5 8 9 -3 16 -12 16 -20z m-300 -4 c11 -7 7 -10
-18 -10 -20 0 -31 4 -27 10 8 13 26 13 45 0z"/>
<path d="M2435 4360 c-3 -5 1 -10 9 -10 9 0 16 5 16 10 0 6 -4 10 -9 10 -6 0
-13 -4 -16 -10z"/>
<path d="M2975 4310 c3 -5 8 -10 11 -10 2 0 4 5 4 10 0 6 -5 10 -11 10 -5 0
-7 -4 -4 -10z"/>
<path d="M2410 4300 c0 -6 7 -10 15 -10 8 0 15 2 15 4 0 2 -7 6 -15 10 -8 3
-15 1 -15 -4z"/>
<path d="M2919 4258 c-6 -14 -8 -83 -3 -125 4 -44 9 -53 25 -53 16 0 19 7 19
54 0 39 -4 55 -15 60 -8 3 -15 12 -15 21 0 9 7 18 15 21 22 9 18 24 -5 24 -11
0 -20 -1 -21 -2z"/>
<path d="M2407 4237 c-10 -28 -8 -177 3 -177 39 0 52 72 24 128 -8 18 -13 36
-10 41 4 5 2 12 -3 15 -5 3 -11 0 -14 -7z"/>
<path d="M2475 4240 c-3 -5 -1 -10 4 -10 6 0 11 5 11 10 0 6 -2 10 -4 10 -3 0
-8 -4 -11 -10z"/>
<path d="M2997 4224 c-11 -11 -8 -134 2 -134 5 0 16 -2 23 -5 12 -5 13 5 5 62
-9 68 -18 89 -30 77z"/>
<path d="M2330 3975 c0 -8 4 -15 10 -15 5 0 7 7 4 15 -4 8 -8 15 -10 15 -2 0
-4 -7 -4 -15z"/>
<path d="M2510 3986 c0 -2 7 -6 15 -10 8 -3 15 -1 15 4 0 6 -7 10 -15 10 -8 0
-15 -2 -15 -4z"/>
<path d="M2967 3983 c-9 -8 12 -33 28 -33 11 0 25 20 25 36 0 7 -46 5 -53 -3z"/>
<path d="M2401 3894 c0 -11 3 -14 6 -6 3 7 2 16 -1 19 -3 4 -6 -2 -5 -13z"/>
<path d="M2507 3804 c-4 -4 -7 -12 -7 -17 0 -6 3 -7 7 -4 3 4 13 1 21 -5 12
-10 14 -9 11 6 -4 21 -21 31 -32 20z"/>
<path d="M2846 3803 c5 -5 12 -12 16 -18 4 -6 8 -2 8 8 0 9 -7 17 -17 17 -9 0
-12 -3 -7 -7z"/>
<path d="M2898 3793 c-18 -5 -24 -28 -10 -37 5 -3 21 3 37 14 15 10 34 16 41
13 8 -3 14 0 14 6 0 11 -48 13 -82 4z"/>
<path d="M2995 3779 c-4 -13 -2 -27 7 -36 13 -12 15 -9 16 21 2 39 -13 48 -23
15z"/>
<path d="M2503 3685 c0 -44 2 -61 4 -37 2 23 2 59 0 80 -2 20 -4 1 -4 -43z"/>
<path d="M3031 3720 c0 -33 1 -34 11 -12 8 17 8 26 0 34 -9 9 -12 4 -11 -22z"/>
<path d="M2880 3715 c0 -8 2 -15 4 -15 2 0 6 7 10 15 3 8 1 15 -4 15 -6 0 -10
-7 -10 -15z"/>
<path d="M2870 3638 c0 -50 2 -54 25 -56 14 -1 25 3 25 8 0 6 -4 10 -10 10 -5
0 -13 18 -16 40 -10 60 -24 59 -24 -2z"/>
<path d="M2950 3680 c0 -5 5 -10 10 -10 6 0 10 5 10 10 0 6 -4 10 -10 10 -5 0
-10 -4 -10 -10z"/>
<path d="M3006 3671 c-4 -7 -5 -15 -2 -18 9 -9 19 4 14 18 -4 11 -6 11 -12 0z"/>
<path d="M2841 3644 c0 -11 3 -14 6 -6 3 7 2 16 -1 19 -3 4 -6 -2 -5 -13z"/>
<path d="M3031 3617 c2 -34 3 -36 6 -12 3 16 9 33 15 36 5 4 3 9 -6 12 -13 5
-16 -1 -15 -36z"/>
<path d="M2950 3640 c0 -5 5 -10 10 -10 6 0 10 5 10 10 0 6 -4 10 -10 10 -5 0
-10 -4 -10 -10z"/>
<path d="M2343 3605 c0 -22 2 -30 4 -17 2 12 2 30 0 40 -3 9 -5 -1 -4 -23z"/>
<path d="M2841 3604 c0 -11 3 -14 6 -6 3 7 2 16 -1 19 -3 4 -6 -2 -5 -13z"/>
<path d="M2980 3584 c0 -8 5 -12 10 -9 6 4 8 11 5 16 -9 14 -15 11 -15 -7z"/>
<path d="M2676 3561 c-12 -13 -14 -21 -6 -26 16 -10 40 2 40 19 0 24 -16 27
-34 7z"/>
<path d="M2513 3539 c-6 -6 -47 -12 -90 -13 l-78 -1 2 -75 c2 -72 2 -75 29
-82 34 -9 44 -3 37 21 -3 10 0 22 6 25 7 5 11 -2 11 -18 0 -27 11 -33 80 -40
22 -2 42 2 53 12 16 15 17 14 11 -1 -4 -13 -1 -17 15 -17 12 0 24 8 28 18 3 9
13 25 21 35 14 16 11 17 -41 17 -50 0 -56 -2 -60 -22 -4 -19 -4 -18 -6 5 0 16
-5 26 -10 23 -5 -3 -12 2 -15 11 -4 9 -2 19 4 23 14 9 29 65 21 79 -5 8 -10 8
-18 0z"/>
<path d="M672 3433 c2 -10 12 -18 23 -18 11 0 21 8 23 18 3 13 -3 17 -23 17
-20 0 -26 -4 -23 -17z"/>
<path d="M2720 3422 c0 -4 7 -17 15 -28 8 -10 15 -34 15 -51 0 -32 2 -33 40
-33 l40 0 0 54 c0 60 -3 62 -72 65 -21 1 -38 -2 -38 -7z"/>
<path d="M2848 3384 c-2 -19 0 -37 4 -40 4 -3 8 3 9 13 0 10 2 28 3 41 2 12
-1 22 -5 22 -4 0 -9 -16 -11 -36z"/>
<path d="M3030 3370 c0 -5 5 -10 10 -10 6 0 10 5 10 10 0 6 -4 10 -10 10 -5 0
-10 -4 -10 -10z"/>
<path d="M3030 3326 c0 -9 5 -16 10 -16 6 0 10 4 10 9 0 6 -4 13 -10 16 -5 3
-10 -1 -10 -9z"/>
<path d="M1990 3259 c0 -33 4 -59 8 -59 15 0 32 24 32 47 0 13 4 23 8 23 5 0
6 -19 3 -42 -5 -36 -10 -44 -31 -47 -31 -4 -36 -12 -38 -61 -1 -29 4 -45 20
-60 28 -26 20 -33 -30 -22 -22 5 -46 6 -53 1 -9 -6 1 -9 29 -9 24 0 42 -5 42
-11 0 -8 15 -10 49 -5 26 3 79 2 117 -3 38 -6 117 -11 176 -13 l106 -3 -3 -25
c-1 -14 -3 -32 -4 -40 -1 -13 -2 -13 -11 0 -8 13 -10 12 -10 -2 0 -11 -8 -18
-20 -18 -11 0 -20 5 -20 10 0 6 -3 9 -7 9 -26 -4 -43 3 -43 19 0 10 -10 1 -24
-23 -14 -22 -21 -44 -17 -48 5 -5 50 -9 100 -9 50 -1 91 -4 91 -8 0 -3 29 -6
65 -5 60 0 65 2 65 22 0 30 -12 35 -81 35 l-59 0 0 33 c0 30 3 33 41 39 22 4
64 4 92 1 33 -3 45 -2 32 3 -11 5 -22 20 -25 33 -5 19 -14 25 -45 30 -30 5
-33 7 -12 8 25 1 32 9 28 39 -1 7 11 12 33 12 19 0 36 6 39 13 4 10 7 10 18 0
7 -7 23 -13 34 -13 18 0 21 -5 17 -30 -3 -20 0 -30 9 -30 10 0 10 -3 1 -12 -7
-7 -12 -21 -12 -31 0 -15 -5 -18 -25 -15 -14 3 -25 1 -25 -3 0 -5 26 -9 58 -9
89 0 102 -6 102 -47 l0 -34 -44 6 c-36 6 -48 3 -64 -13 -24 -24 -13 -32 41
-32 44 -1 67 -21 67 -59 0 -28 3 -31 30 -31 l30 0 0 129 c0 94 3 131 13 134
10 4 10 6 0 6 -8 1 -13 16 -13 40 0 34 -3 40 -27 46 -20 5 -23 9 -13 15 7 4
19 6 27 3 8 -3 13 2 13 15 0 17 5 19 37 17 46 -5 69 7 77 40 4 14 11 25 16 25
6 0 10 4 10 8 0 11 -61 33 -72 26 -5 -3 -15 0 -23 6 -12 10 -17 7 -25 -14 -7
-20 -15 -25 -32 -22 -13 3 -72 10 -133 17 -60 6 -117 13 -126 14 -52 10 -383
36 -400 32 -10 -3 -19 -1 -19 3 0 5 -43 8 -95 8 l-95 -1 0 -58z m107 15 c-3
-3 -12 -4 -19 -1 -8 3 -5 6 6 6 11 1 17 -2 13 -5z m83 -49 c0 -31 -3 -35 -25
-35 -22 0 -25 4 -25 35 0 31 3 35 25 35 22 0 25 -4 25 -35z m143 19 c81 -4 77
-2 77 -40 0 -33 -2 -36 -22 -30 -13 3 -26 6 -30 6 -5 0 -8 12 -9 28 -1 26 -1
27 -8 3 -5 -18 -14 -25 -36 -27 -51 -3 -66 5 -63 34 2 21 9 28 33 32 17 3 32
3 35 0 3 -3 13 -5 23 -6z m114 0 c-3 -3 -12 -4 -19 -1 -8 3 -5 6 6 6 11 1 17
-2 13 -5z m106 -11 c-18 -3 -23 -11 -23 -34 0 -27 -3 -29 -35 -29 -33 0 -35 2
-35 33 l0 32 58 1 c31 1 47 -1 35 -3z m157 -13 c25 -1 37 -4 28 -7 -17 -4 -20
-9 -22 -43 -1 -8 -10 -15 -21 -15 -14 0 -21 8 -25 30 -7 42 -40 47 -40 6 0
-16 -4 -32 -9 -35 -19 -12 -37 6 -37 37 0 36 -4 35 126 27z m91 -10 c5 0 9
-16 9 -36 0 -44 -23 -42 -28 2 -2 16 -9 33 -15 37 -8 6 -5 7 6 3 10 -3 23 -6
28 -6z m-689 -85 c-3 -29 -8 -35 -28 -35 -21 0 -24 5 -24 35 0 32 3 35 28 35
26 0 28 -2 24 -35z m238 13 c0 -5 15 -8 33 -8 31 0 33 -2 31 -31 -3 -40 -9
-45 -42 -33 -19 7 -27 16 -27 34 0 15 -7 26 -18 28 -10 2 -17 -3 -17 -13 0 -9
5 -13 10 -10 6 3 10 -4 10 -15 0 -16 -4 -20 -16 -16 -21 8 -44 -11 -44 -36 0
-17 -6 -19 -52 -16 -48 3 -53 5 -56 28 -2 14 -8 29 -13 35 -5 5 -9 22 -9 37
l0 28 105 -3 c58 -1 105 -5 105 -9z m156 -54 c0 -30 -3 -35 -20 -32 -16 2 -22
11 -24 39 -3 33 -1 36 20 32 19 -4 23 -11 24 -39z m314 -14 c0 -28 -2 -30 -37
-29 -21 0 -32 3 -25 6 6 2 12 16 12 29 0 19 5 24 25 24 21 0 25 -5 25 -30z
m-370 0 c0 -5 -2 -10 -4 -10 -3 0 -8 5 -11 10 -3 6 -1 10 4 10 6 0 11 -4 11
-10z"/>
<path d="M2301 3214 c0 -11 3 -14 6 -6 3 7 2 16 -1 19 -3 4 -6 -2 -5 -13z"/>
<path d="M2180 3115 c0 -14 5 -25 10 -25 6 0 10 11 10 25 0 14 -4 25 -10 25
-5 0 -10 -11 -10 -25z"/>
<path d="M2177 3060 c-5 -21 8 -26 32 -11 7 5 10 14 7 20 -11 18 -33 13 -39
-9z"/>
<path d="M1913 3295 c-30 -13 -33 -18 -33 -60 0 -25 4 -45 9 -45 14 0 23 35
15 64 -4 16 -2 26 5 26 6 0 11 -16 11 -35 0 -19 5 -35 10 -35 6 0 10 18 10 40
0 22 5 40 10 40 6 0 10 -16 10 -35 0 -19 5 -35 11 -35 6 0 9 17 7 42 -3 49
-16 55 -65 33z"/>
<path d="M4501 3294 c0 -11 3 -14 6 -6 3 7 2 16 -1 19 -3 4 -6 -2 -5 -13z"/>
<path d="M2850 3279 c0 -5 5 -7 10 -4 6 3 10 8 10 11 0 2 -4 4 -10 4 -5 0 -10
-5 -10 -11z"/>
<path d="M550 3236 c0 -40 3 -46 21 -46 18 0 20 5 17 42 -2 31 -8 44 -20 46
-15 3 -18 -4 -18 -42z"/>
<path d="M3036 3265 c-9 -26 -7 -32 5 -12 6 10 9 21 6 23 -2 3 -7 -2 -11 -11z"/>
<path d="M1398 3243 c-2 -18 -10 -29 -22 -31 -12 -3 -17 1 -13 10 2 7 10 12
16 11 6 -2 11 4 11 12 0 11 -4 13 -13 8 -134 -85 -128 -106 16 -48 65 26 67
28 51 46 -24 27 -42 23 -46 -8z"/>
<path d="M4535 3260 c-3 -5 3 -10 15 -10 12 0 18 5 15 10 -3 6 -10 10 -15 10
-5 0 -12 -4 -15 -10z"/>
<path d="M700 3220 c0 -33 3 -40 20 -40 17 0 20 7 20 40 0 33 -3 40 -20 40
-17 0 -20 -7 -20 -40z"/>
<path d="M760 3250 c0 -5 4 -10 9 -10 6 0 13 5 16 10 3 6 -1 10 -9 10 -9 0
-16 -4 -16 -10z"/>
<path d="M807 3253 c-11 -17 -4 -123 8 -133 9 -8 14 -5 18 10 3 12 -1 24 -11
30 -15 8 -15 9 1 10 15 0 18 7 15 42 -3 38 -19 60 -31 41z"/>
<path d="M4558 3242 c-22 -3 -28 -9 -28 -28 0 -20 5 -24 29 -24 21 0 32 6 36
21 9 26 -2 36 -37 31z"/>
<path d="M894 3204 c-6 -34 0 -101 10 -111 3 -3 12 -3 21 0 26 11 18 130 -11
141 -9 3 -15 -6 -20 -30z"/>
<path d="M3666 3230 c-1 -3 -3 -19 -4 -36 -2 -23 4 -36 21 -47 22 -14 23 -14
25 15 1 17 -3 37 -9 44 -8 10 -8 14 0 14 6 0 11 4 11 8 0 9 -40 11 -44 2z"/>
<path d="M3760 3230 c0 -5 6 -10 13 -10 7 0 8 -3 2 -8 -15 -11 -14 -52 2 -52
9 0 13 -15 13 -50 0 -27 5 -50 10 -50 6 0 10 14 10 31 0 17 4 28 10 24 6 -3
10 -17 10 -30 0 -13 5 -27 10 -30 6 -4 10 7 10 24 0 35 17 42 22 11 6 -40 23
-19 23 29 0 27 3 53 8 57 4 4 7 -20 7 -54 0 -33 5 -64 11 -68 7 -4 9 2 7 17
-3 21 1 24 25 21 18 -2 27 2 26 10 -4 32 2 68 11 68 6 0 10 -7 10 -15 0 -8 5
-15 10 -15 6 0 10 5 10 10 0 6 10 8 23 5 22 -6 67 18 56 30 -4 3 -22 7 -40 8
-19 1 -39 5 -44 9 -6 3 -25 5 -43 4 -17 -1 -32 2 -32 7 0 4 -9 6 -19 2 -11 -3
-22 -1 -25 4 -4 6 -22 9 -42 7 -19 -1 -37 1 -40 6 -7 12 -54 10 -54 -2z m70
-66 c0 -13 -4 -24 -10 -24 -5 0 -10 14 -10 31 0 17 4 28 10 24 6 -3 10 -17 10
-31z m40 -4 c0 -16 -4 -30 -10 -30 -5 0 -10 14 -10 30 0 17 5 30 10 30 6 0 10
-13 10 -30z m77 -37 c-3 -10 -5 -2 -5 17 0 19 2 27 5 18 2 -10 2 -26 0 -35z"/>
<path d="M4278 3233 c7 -3 16 -2 19 1 4 3 -2 6 -13 5 -11 0 -14 -3 -6 -6z"/>
<path d="M610 3210 c0 -11 4 -20 9 -20 11 0 22 26 14 34 -12 12 -23 5 -23 -14z"/>
<path d="M3602 3222 c-18 -3 -22 -8 -16 -20 7 -18 12 -44 13 -77 1 -18 3 -18
21 5 17 23 25 87 11 93 -3 2 -16 1 -29 -1z"/>
<path d="M646 3205 c-6 -17 17 -31 34 -20 5 3 10 13 10 21 0 19 -36 18 -44 -1z"/>
<path d="M3000 3210 c0 -5 5 -10 11 -10 5 0 7 5 4 10 -3 6 -8 10 -11 10 -2 0
-4 -4 -4 -10z"/>
<path d="M3447 3214 c-3 -3 -3 -14 0 -25 6 -22 33 -26 33 -4 0 8 5 15 12 15 6
0 9 2 6 5 -8 8 -45 14 -51 9z"/>
<path d="M3515 3210 c-3 -5 -2 -10 3 -10 6 0 8 -9 5 -20 -4 -16 0 -20 17 -20
17 0 21 4 17 20 -3 11 -1 20 4 20 5 0 9 5 9 10 0 6 -11 10 -24 10 -14 0 -28
-4 -31 -10z"/>
<path d="M4283 3213 c-15 -3 -23 -12 -23 -24 0 -31 54 -22 58 9 2 12 0 21 -5
21 -4 -1 -18 -4 -30 -6z"/>
<path d="M857 3203 c-8 -16 -1 -67 10 -70 7 -3 11 10 10 36 -2 38 -10 52 -20
34z"/>
<path d="M550 3155 c0 -8 9 -15 20 -15 11 0 20 7 20 15 0 8 -9 15 -20 15 -11
0 -20 -7 -20 -15z"/>
<path d="M606 3161 c-4 -7 -5 -15 -2 -18 9 -9 19 4 14 18 -4 11 -6 11 -12 0z"/>
<path d="M634 3159 c-10 -17 17 -29 38 -16 10 7 18 15 18 19 0 12 -48 9 -56
-3z"/>
<path d="M970 3160 c0 -5 7 -10 15 -10 8 0 15 5 15 10 0 6 -7 10 -15 10 -8 0
-15 -4 -15 -10z"/>
<path d="M700 3150 c0 -5 9 -10 20 -10 11 0 20 5 20 10 0 6 -9 10 -20 10 -11
0 -20 -4 -20 -10z"/>
<path d="M2890 3141 c7 -14 6 -21 -3 -24 -9 -4 -9 -7 1 -18 10 -11 15 -11 27
1 19 20 9 60 -17 60 -15 0 -17 -3 -8 -19z"/>
<path d="M1940 3121 c0 -16 5 -33 10 -36 6 -4 10 5 10 19 0 14 0 29 1 33 0 4
-4 9 -10 11 -6 2 -11 -9 -11 -27z"/>
<path d="M3530 3140 c0 -5 5 -10 11 -10 5 0 7 5 4 10 -3 6 -8 10 -11 10 -2 0
-4 -4 -4 -10z"/>
<path d="M3704 3106 c-3 -8 -4 -23 -1 -33 3 -12 5 -9 6 9 1 16 8 28 19 31 16
4 16 5 -1 6 -10 0 -20 -5 -23 -13z"/>
<path d="M2635 3098 c-10 -26 2 -55 17 -40 8 8 8 18 1 34 -10 21 -12 21 -18 6z"/>
<path d="M3625 3090 c4 -6 1 -18 -6 -26 -10 -12 -9 -13 5 -8 18 7 22 44 5 44
-5 0 -7 -5 -4 -10z"/>
<path d="M1355 3072 c11 -12 205 -21 205 -9 0 4 -37 7 -82 7 -46 0 -94 3 -108
6 -17 5 -22 3 -15 -4z"/>
<path d="M1670 3070 c0 -5 12 -10 26 -10 14 0 23 4 19 10 -3 6 -15 10 -26 10
-10 0 -19 -4 -19 -10z"/>
<path d="M1603 3053 c9 -2 23 -2 30 0 6 3 -1 5 -18 5 -16 0 -22 -2 -12 -5z"/>
<path d="M1655 3041 c-28 -6 -30 -9 -33 -61 -2 -30 -1 -52 2 -49 3 3 7 24 8
47 1 28 6 42 15 42 7 0 13 -5 13 -11 0 -8 4 -9 13 0 19 15 27 4 28 -43 1 -39
2 -39 9 -11 l7 30 11 -25 c11 -24 12 -24 9 10 -2 33 0 35 28 34 17 -1 34 -2
38 -3 5 -1 7 -20 5 -43 -3 -39 -5 -43 -28 -40 -37 4 -70 -6 -70 -22 0 -15 47
-23 165 -29 49 -3 44 -4 -30 -7 -49 -1 -78 -5 -62 -7 24 -4 27 -8 27 -44 l0
-39 -46 0 -46 0 4 50 c3 51 -1 56 -42 50 -21 -3 -22 -4 -11 -31 l10 -24 0 23
c1 41 26 18 29 -27 3 -39 1 -42 -20 -40 -45 4 -68 -1 -68 -15 0 -9 16 -16 44
-20 49 -8 275 -11 281 -4 9 8 15 110 8 121 -4 7 -6 44 -5 83 2 52 0 71 -10 72
-7 0 -56 4 -108 8 -63 5 -98 11 -103 20 -8 15 -23 16 -72 5z m255 -87 c0 -32
-4 -44 -15 -44 -8 0 -15 4 -15 9 0 5 -9 7 -20 4 -18 -5 -20 0 -20 35 0 39 1
40 35 40 35 0 35 0 35 -44z m1 -111 c8 -72 7 -73 -33 -73 -38 0 -38 0 -38 40
0 39 1 40 35 40 19 0 35 -3 36 -7z"/>
<path d="M1783 3043 c20 -2 54 -2 75 0 20 2 3 4 -38 4 -41 0 -58 -2 -37 -4z"/>
<path d="M860 3030 c0 -5 4 -10 9 -10 5 0 4 -11 -2 -25 -10 -21 -19 -25 -54
-25 -36 0 -43 3 -43 19 0 25 -11 28 -110 26 -111 -3 -107 -2 -82 -25 12 -12
23 -24 23 -28 6 -32 5 -52 -3 -52 -5 0 -7 -4 -3 -9 9 -16 89 -23 136 -13 24 5
34 10 23 11 -26 1 -39 47 -17 55 23 9 81 7 87 -3 4 -5 2 -21 -3 -34 -8 -19 -6
-27 5 -31 9 -4 14 1 14 14 0 11 5 20 10 20 6 0 10 -9 10 -20 0 -12 7 -20 18
-21 13 0 12 -3 -6 -12 -18 -8 -22 -16 -17 -31 4 -12 8 -39 9 -61 1 -23 6 -46
10 -53 5 -8 0 -12 -13 -12 -24 0 -25 -4 -11 -31 6 -11 21 -19 35 -19 19 0 25
5 25 23 0 13 -5 28 -10 33 -7 7 -7 19 -1 35 5 14 9 48 8 77 0 29 3 55 6 59 4
3 7 39 7 80 l0 73 -30 0 c-16 0 -30 -4 -30 -10z m-204 -76 c-9 -9 -20 -14 -23
-10 -4 3 2 13 13 20 25 18 31 12 10 -10z"/>
<path d="M1371 2966 c1 -68 3 -75 23 -79 20 -4 20 -4 -2 -6 -21 -1 -22 -5 -21
-70 1 -59 4 -70 21 -74 11 -3 18 -11 17 -19 -1 -7 -1 -22 0 -33 2 -19 2 -19
15 -2 8 10 20 17 28 16 27 -3 37 1 32 16 -5 12 3 15 35 15 34 0 41 3 41 20 0
14 -7 20 -22 20 -12 0 -18 3 -15 7 4 3 2 11 -3 18 -12 14 9 65 28 65 12 0 14
4 17 51 2 21 -2 25 -17 22 -15 -4 -18 0 -18 28 0 34 11 62 24 60 22 -3 16 3
-9 9 -16 4 -63 8 -103 9 l-72 1 1 -74z m78 42 c8 -20 10 -21 16 -5 10 25 22
21 28 -9 9 -47 -2 -65 -37 -62 -30 3 -31 5 -32 51 -2 50 11 62 25 25z m-5
-154 c9 -8 16 -11 16 -5 0 15 30 14 31 -1 7 -84 10 -78 -32 -78 l-39 0 0 50
c0 28 2 50 4 50 3 0 12 -7 20 -16z m13 -130 c-3 -3 -12 -4 -19 -1 -8 3 -5 6 6
6 11 1 17 -2 13 -5z"/>
<path d="M2624 3026 c-10 -10 -6 -13 16 -14 21 0 27 3 23 14 -6 17 -24 18 -39
0z"/>
<path d="M3786 3023 c-4 -9 -2 -21 4 -27 7 -7 10 -2 10 17 0 31 -5 34 -14 10z"/>
<path d="M1598 2993 c6 -65 10 -70 11 -15 0 28 -3 52 -7 52 -4 0 -6 -17 -4
-37z"/>
<path d="M3310 3008 c0 -8 7 -15 15 -15 18 0 15 19 -3 25 -7 2 -12 -3 -12 -10z"/>
<path d="M474 2989 c-3 -5 6 -9 20 -9 31 0 34 6 6 13 -11 3 -23 1 -26 -4z"/>
<path d="M3190 2990 c0 -5 7 -10 16 -10 8 0 12 5 9 10 -3 6 -10 10 -16 10 -5
0 -9 -4 -9 -10z"/>
<path d="M2061 2974 c0 -11 3 -14 6 -6 3 7 2 16 -1 19 -3 4 -6 -2 -5 -13z"/>
<path d="M2091 2974 c0 -11 3 -14 6 -6 3 7 2 16 -1 19 -3 4 -6 -2 -5 -13z"/>
<path d="M3310 2965 c0 -9 -10 -15 -22 -16 l-23 0 23 -9 c16 -7 22 -18 22 -40
0 -26 2 -29 13 -18 16 18 17 86 0 92 -7 3 -13 -1 -13 -9z"/>
<path d="M3350 2960 c0 -5 5 -10 10 -10 6 0 10 5 10 10 0 6 -4 10 -10 10 -5 0
-10 -4 -10 -10z"/>
<path d="M496 2953 c-3 -4 -6 -17 -6 -30 0 -16 6 -23 20 -23 14 0 20 7 20 24
0 23 -22 41 -34 29z"/>
<path d="M1665 2940 c3 -5 8 -10 11 -10 2 0 4 5 4 10 0 6 -5 10 -11 10 -5 0
-7 -4 -4 -10z"/>
<path d="M2045 2938 c-9 -6 -30 -7 -46 -4 l-29 6 0 -58 c0 -36 6 -66 16 -80 8
-12 12 -23 7 -24 -4 -1 26 -4 67 -8 41 -3 79 -3 85 2 5 4 -11 8 -36 8 -44 0
-45 0 -43 33 1 22 0 24 -3 7 -5 -26 -19 -40 -40 -40 -20 0 -17 80 3 94 10 8
34 10 65 6 48 -6 49 -6 49 21 0 15 -4 30 -9 34 -18 10 -69 12 -86 3z"/>
<path d="M2186 2933 c-13 -14 -5 -41 14 -46 16 -4 20 0 20 18 0 22 -22 40 -34
28z"/>
<path d="M1580 2900 c0 -11 7 -20 15 -20 8 0 15 9 15 20 0 11 -7 20 -15 20 -8
0 -15 -9 -15 -20z"/>
<path d="M1622 2909 c5 -17 48 -25 48 -10 0 6 -4 11 -9 11 -5 0 -17 3 -27 7
-12 4 -15 2 -12 -8z"/>
<path d="M2640 2891 c0 -25 6 -27 13 -6 4 8 2 17 -3 20 -6 4 -10 -3 -10 -14z"/>
<path d="M3355 2900 c3 -5 8 -10 11 -10 2 0 4 5 4 10 0 6 -5 10 -11 10 -5 0
-7 -4 -4 -10z"/>
<path d="M2610 2890 c0 -5 5 -10 10 -10 6 0 10 5 10 10 0 6 -4 10 -10 10 -5 0
-10 -4 -10 -10z"/>
<path d="M688 2863 c7 -3 16 -2 19 1 4 3 -2 6 -13 5 -11 0 -14 -3 -6 -6z"/>
<path d="M1598 2845 c2 -14 6 -25 8 -25 2 0 4 11 4 25 0 14 -4 25 -9 25 -4 0
-6 -11 -3 -25z"/>
<path d="M2093 2825 c0 -22 2 -30 4 -17 2 12 2 30 0 40 -3 9 -5 -1 -4 -23z"/>
<path d="M2419 2843 c-1 -10 0 -26 1 -36 1 -10 -4 -25 -10 -33 -10 -11 -9 -14
3 -14 18 0 27 21 27 66 0 34 -19 49 -21 17z"/>
<path d="M1621 2834 c0 -11 3 -14 6 -6 3 7 2 16 -1 19 -3 4 -6 -2 -5 -13z"/>
<path d="M1732 2830 c0 -14 2 -19 5 -12 2 6 2 18 0 25 -3 6 -5 1 -5 -13z"/>
<path d="M2321 2834 c0 -11 3 -14 6 -6 3 7 2 16 -1 19 -3 4 -6 -2 -5 -13z"/>
<path d="M625 2830 c3 -5 8 -10 11 -10 2 0 4 5 4 10 0 6 -5 10 -11 10 -5 0 -7
-4 -4 -10z"/>
<path d="M4635 2810 c-3 -5 -1 -10 4 -10 6 0 11 5 11 10 0 6 -2 10 -4 10 -3 0
-8 -4 -11 -10z"/>
<path d="M4478 2803 c-11 -3 -18 -14 -18 -29 0 -31 4 -30 43 6 27 25 29 30 12
29 -11 -1 -28 -3 -37 -6z"/>
<path d="M2317 2787 c-3 -9 -16 -17 -29 -20 -13 -2 6 -5 42 -5 52 0 59 1 36 8
-16 5 -32 14 -36 20 -5 8 -9 7 -13 -3z"/>
<path d="M4600 2791 c0 -6 5 -13 10 -16 6 -3 10 1 10 9 0 9 -4 16 -10 16 -5 0
-10 -4 -10 -9z"/>
<path d="M2177 2784 c-10 -11 3 -24 24 -24 10 0 19 7 19 15 0 15 -31 21 -43 9z"/>
<path d="M2527 2784 c-3 -3 -19 -6 -36 -6 -58 -2 -31 -16 30 -17 34 0 60 1 58
3 -13 11 -47 24 -52 20z"/>
<path d="M4190 2770 c0 -15 5 -20 18 -18 9 2 17 10 17 18 0 8 -8 16 -17 18
-13 2 -18 -3 -18 -18z"/>
<path d="M2713 2773 c-41 -8 -24 -20 30 -21 50 -1 51 0 27 13 -14 8 -27 14
-30 13 -3 0 -15 -3 -27 -5z"/>
<path d="M4077 2774 c-4 -4 -7 -14 -7 -23 0 -11 3 -12 11 -4 6 6 10 16 7 23
-2 6 -7 8 -11 4z"/>
<path d="M1580 2750 c0 -11 7 -20 15 -20 8 0 15 9 15 20 0 11 -7 20 -15 20 -8
0 -15 -9 -15 -20z"/>
<path d="M2987 2764 c-14 -14 -7 -50 13 -67 19 -16 20 -16 20 9 0 22 3 25 23
20 12 -3 25 -6 28 -6 3 0 5 -12 4 -27 -2 -16 0 -19 2 -8 10 42 22 46 107 39
90 -7 136 -7 144 0 2 3 2 12 -1 21 -5 13 -30 15 -156 15 -82 0 -156 2 -163 5
-8 3 -17 2 -21 -1z"/>
<path d="M4750 2761 c0 -6 5 -13 10 -16 6 -3 10 1 10 9 0 9 -4 16 -10 16 -5 0
-10 -4 -10 -9z"/>
<path d="M3389 2743 c-11 -3 -16 -14 -15 -33 1 -33 16 -42 16 -10 0 18 6 20
58 19 43 -1 51 -3 32 -9 l-25 -8 27 -1 c14 -1 29 -7 31 -13 4 -8 6 -7 6 3 1
10 14 19 34 24 l32 7 -30 8 c-36 10 -144 18 -166 13z"/>
<path d="M4240 2736 c0 -9 7 -16 16 -16 9 0 14 5 12 12 -6 18 -28 21 -28 4z"/>
<path d="M4390 2741 c-17 -5 -21 -9 -12 -15 15 -9 52 1 52 15 0 10 -4 10 -40
0z"/>
<path d="M1980 2731 c0 -6 7 -11 15 -11 9 0 18 -12 22 -30 4 -22 11 -30 28
-30 16 0 21 6 21 23 -1 18 5 23 30 25 30 3 37 -1 72 -43 18 -21 25 -19 60 15
18 17 42 30 55 30 25 0 57 -28 57 -48 0 -24 19 -11 22 15 2 21 10 29 36 35 60
16 25 24 -110 26 -100 2 -129 0 -118 -9 12 -9 11 -9 -5 -3 -33 13 -185 17
-185 5z"/>
<path d="M4115 2730 c3 -5 8 -10 11 -10 2 0 4 5 4 10 0 6 -5 10 -11 10 -5 0
-7 -4 -4 -10z"/>
<path d="M4280 2729 c0 -5 5 -7 10 -4 6 3 10 8 10 11 0 2 -4 4 -10 4 -5 0 -10
-5 -10 -11z"/>
<path d="M4462 2718 c2 -12 9 -23 16 -26 7 -2 10 2 6 12 -3 9 -1 16 5 16 20 0
11 16 -10 17 -15 1 -19 -3 -17 -19z"/>
<path d="M2484 2715 c3 -9 6 -25 6 -36 0 -25 15 -24 41 2 11 11 26 19 32 16
53 -20 59 -19 55 5 -3 21 -8 23 -72 26 -60 3 -68 1 -62 -13z"/>
<path d="M2675 2700 c-9 -40 -2 -46 27 -26 25 18 64 21 73 6 4 -6 11 -7 17 -4
6 4 14 0 19 -7 7 -10 9 -3 7 21 l-3 35 -67 3 -66 3 -7 -31z"/>
<path d="M1362 2709 c2 -6 8 -10 13 -10 5 0 11 4 13 10 2 6 -4 11 -13 11 -9 0
-15 -5 -13 -11z"/>
<path d="M1538 2713 c7 -3 16 -2 19 1 4 3 -2 6 -13 5 -11 0 -14 -3 -6 -6z"/>
<path d="M1590 2709 c0 -5 5 -7 10 -4 6 3 10 8 10 11 0 2 -4 4 -10 4 -5 0 -10
-5 -10 -11z"/>
<path d="M2642 2695 c0 -16 2 -22 5 -12 2 9 2 23 0 30 -3 6 -5 -1 -5 -18z"/>
<path d="M622 2688 c5 -32 28 -36 26 -4 -1 14 -8 26 -16 26 -8 0 -12 -9 -10
-22z"/>
<path d="M1839 2683 c23 -20 27 -20 38 -6 8 10 22 14 43 11 19 -3 29 -1 27 6
-2 6 -31 11 -69 11 l-64 1 25 -23z"/>
<path d="M2842 2678 c6 -18 28 -21 28 -4 0 9 -7 16 -16 16 -9 0 -14 -5 -12
-12z"/>
<path d="M3248 2683 c7 -3 16 -2 19 1 4 3 -2 6 -13 5 -11 0 -14 -3 -6 -6z"/>
<path d="M620 2628 c0 -4 7 -8 15 -8 8 0 15 4 15 8 0 5 -7 9 -15 9 -8 0 -15
-4 -15 -9z"/>
<path d="M860 2625 c0 -8 3 -15 6 -15 3 0 12 7 20 15 14 13 13 15 -5 15 -12 0
-21 -6 -21 -15z"/>
<path d="M4027 2605 c-15 -8 -45 -13 -65 -12 -32 2 -37 -1 -40 -20 -3 -17 0
-21 12 -17 17 7 19 1 10 -32 -5 -18 -11 -20 -61 -16 -38 3 -54 1 -49 -6 4 -6
45 -10 104 -9 86 2 97 4 94 20 -2 9 2 17 8 17 5 0 10 -7 10 -15 0 -8 6 -12 13
-9 9 3 12 16 9 34 -3 18 0 30 7 30 6 0 11 -9 11 -19 0 -22 4 -26 41 -34 19 -5
26 -3 26 8 0 9 -10 15 -24 15 -18 0 -23 5 -23 25 0 14 7 28 15 31 8 4 15 10
15 15 0 14 -82 10 -113 -6z m20 -52 c-3 -10 -5 -2 -5 17 0 19 2 27 5 18 2 -10
2 -26 0 -35z"/>
<path d="M2648 2587 l-23 -9 25 -11 c14 -7 30 -18 37 -27 10 -13 13 -13 30 2
13 12 23 14 36 6 27 -15 42 4 20 24 -21 19 -93 27 -125 15z"/>
<path d="M3340 2585 c-7 -8 -26 -15 -42 -15 -21 0 -29 -4 -25 -13 4 -10 -6
-13 -39 -11 -24 2 -49 6 -54 9 -6 3 -10 -1 -10 -9 0 -24 -40 -15 -47 12 -5 21
-10 23 -62 20 -49 -3 -56 -5 -54 -23 1 -18 -12 -34 -28 -35 -10 0 -49 37 -49
46 0 5 -27 11 -60 12 -56 3 -76 -7 -50 -23 6 -4 7 -12 1 -22 -13 -23 12 -45
47 -41 15 1 30 7 35 13 4 7 10 6 15 -2 5 -8 71 -11 235 -11 l228 1 -5 41 c-2
23 -5 47 -5 54 -1 16 -16 15 -31 -3z"/>
<path d="M1656 2581 c-4 -6 -12 -9 -17 -5 -17 10 -59 -5 -59 -21 0 -23 -17
-18 -23 7 -6 21 -7 20 -30 -12 -17 -24 -21 -39 -14 -47 5 -7 6 -13 3 -13 -4 0
-1 -6 6 -13 19 -17 68 -18 68 -1 0 8 -4 14 -10 14 -5 0 -10 7 -10 15 0 8 7 15
15 15 10 0 15 -10 15 -30 l0 -30 88 1 c48 0 96 4 107 8 20 8 21 11 24 51 1 19
2 19 21 2 l21 -17 -23 -6 c-22 -5 -22 -6 8 -22 l32 -16 16 32 c11 23 16 27 16
13 0 -20 0 -20 16 0 10 12 14 14 11 4 -4 -14 19 -39 37 -40 4 0 6 9 3 20 -6
24 7 25 102 9 50 -8 66 -7 72 3 4 6 6 15 3 19 -2 4 15 10 38 14 61 10 77 25
41 40 -15 7 -32 10 -38 6 -5 -3 -28 -6 -50 -6 -206 -4 -225 -5 -225 -19 0 -8
-7 -17 -16 -20 -22 -8 -24 -8 -24 9 0 22 -36 38 -59 25 -11 -5 -28 -10 -38
-10 -15 0 -16 2 -3 10 11 7 6 10 -21 10 -20 0 -50 3 -67 6 -17 4 -32 1 -36 -5z
m68 -32 c-16 -18 -19 -19 -22 -5 -4 21 -22 21 -22 0 0 -8 -4 -12 -10 -9 -5 3
-10 13 -10 21 0 10 12 14 42 14 l41 0 -19 -21z"/>
<path d="M4150 2580 c0 -5 6 -10 14 -10 8 0 18 5 21 10 3 6 -3 10 -14 10 -12
0 -21 -4 -21 -10z"/>
<path d="M1168 2573 c7 -3 16 -2 19 1 4 3 -2 6 -13 5 -11 0 -14 -3 -6 -6z"/>
<path d="M1230 2567 c0 -7 -5 -18 -12 -25 -9 -9 -14 -7 -24 6 -19 26 -38 3
-25 -31 7 -17 7 -28 1 -32 -6 -4 -10 -12 -10 -18 0 -9 2 -9 8 0 6 10 17 10 42
3 19 -6 37 -10 41 -10 3 0 6 27 6 60 1 45 -3 60 -13 60 -8 0 -14 -6 -14 -13z
m-14 -74 c-10 -10 -19 5 -10 18 6 11 8 11 12 0 2 -7 1 -15 -2 -18z"/>
<path d="M1280 2515 c0 -71 19 -92 21 -22 1 23 0 47 -1 52 -1 6 -3 16 -3 23 0
6 -4 12 -9 12 -4 0 -8 -29 -8 -65z"/>
<path d="M2569 2553 c-12 -15 -12 -16 4 -10 9 3 17 2 17 -3 0 -17 -19 -20 -34
-4 -9 8 -28 15 -44 13 -15 -1 -35 2 -45 6 -39 16 -117 -18 -117 -52 0 -7 -3
-12 -7 -12 -21 3 -34 -2 -31 -12 2 -6 20 -13 41 -15 28 -2 39 1 47 16 6 12 21
20 36 20 22 0 23 2 14 20 -12 22 -1 27 18 8 10 -10 14 -10 21 0 6 10 15 4 36
-22 32 -40 56 -48 48 -16 -4 16 -2 19 11 14 10 -4 15 -13 12 -20 -9 -24 41
-16 58 8 15 21 15 23 -5 30 -11 5 -25 6 -30 2 -5 -3 -13 6 -19 20 -11 31 -13
31 -31 9z m-155 -31 c2 -4 -7 -12 -20 -19 -26 -12 -27 -12 -18 11 6 17 29 22
38 8z"/>
<path d="M3404 2555 c3 -8 1 -26 -4 -40 -9 -22 -7 -25 15 -25 14 0 25 5 25 11
0 8 4 9 13 0 8 -6 17 -8 20 -4 12 11 8 23 -8 23 -9 0 -20 11 -25 25 -5 14 -17
25 -26 25 -10 0 -14 -5 -10 -15z"/>
<path d="M3450 2560 c0 -5 5 -10 11 -10 5 0 7 5 4 10 -3 6 -8 10 -11 10 -2 0
-4 -4 -4 -10z"/>
<path d="M1005 2549 c-4 -6 -13 -8 -20 -5 -7 2 -15 -4 -18 -15 -6 -21 7 -26
19 -7 5 7 11 5 21 -7 12 -17 13 -16 13 13 0 33 -4 39 -15 21z"/>
<path d="M1081 2546 c-17 -20 -4 -56 20 -56 20 0 26 8 31 45 4 25 -33 33 -51
11z"/>
<path d="M1320 2550 c0 -5 5 -10 10 -10 6 0 10 -11 10 -24 0 -34 18 -42 29
-14 9 23 10 23 22 -9 12 -28 16 -31 43 -26 40 8 38 6 40 49 1 36 0 37 -38 41
-21 2 -44 -1 -52 -8 -10 -8 -14 -8 -14 0 0 6 -11 11 -25 11 -14 0 -25 -4 -25
-10z"/>
<path d="M849 2530 c-2 -14 -3 -33 -4 -42 -1 -21 -15 -37 -15 -18 0 11 -3 11
-12 2 -6 -6 -10 -14 -7 -16 14 -13 99 -9 99 5 0 7 -10 9 -25 7 -27 -6 -34 6
-10 16 20 7 19 19 -5 47 l-19 24 -2 -25z"/>
<path d="M900 2524 c0 -17 6 -28 20 -31 22 -6 27 -29 8 -36 -7 -2 9 -7 36 -11
76 -12 89 21 20 50 -23 9 -34 21 -34 34 0 15 -7 20 -25 20 -20 0 -25 -5 -25
-26z"/>
<path d="M3508 2515 c-4 -20 -2 -25 11 -23 18 4 22 39 5 45 -6 2 -14 -8 -16
-22z"/>
<path d="M4790 2530 c0 -5 5 -10 10 -10 6 0 10 5 10 10 0 6 -4 10 -10 10 -5 0
-10 -4 -10 -10z"/>
<path d="M2767 2524 c-8 -8 1 -24 14 -24 5 0 9 7 9 15 0 15 -12 20 -23 9z"/>
<path d="M3579 2521 c11 -7 10 -11 -5 -20 -18 -10 -18 -10 4 -11 15 0 22 6 22
20 0 12 -7 20 -17 20 -14 0 -15 -2 -4 -9z"/>
<path d="M3711 2516 c-19 -23 0 -41 33 -32 30 7 35 26 7 26 -11 0 -21 5 -23
11 -2 7 -9 5 -17 -5z"/>
<path d="M630 2505 c0 -8 8 -11 20 -8 11 3 20 7 20 8 0 1 -9 5 -20 8 -12 3
-20 0 -20 -8z"/>
<path d="M3640 2500 c0 -5 9 -10 19 -10 11 0 23 5 26 10 4 6 -5 10 -19 10 -14
0 -26 -4 -26 -10z"/>
<path d="M650 2483 c-16 -6 -30 -23 -30 -35 0 -5 13 -8 30 -8 34 0 61 34 34
44 -9 3 -16 6 -17 5 -1 0 -9 -3 -17 -6z"/>
<path d="M2439 2479 c-10 -6 -7 -9 14 -9 29 0 35 5 14 13 -8 3 -20 1 -28 -4z"/>
<path d="M2500 2480 c-13 -8 -12 -10 3 -10 9 0 17 5 17 10 0 12 -1 12 -20 0z"/>
<path d="M525 2469 c-4 -6 -13 -8 -20 -5 -7 2 -16 -2 -19 -10 -4 -11 4 -14 34
-14 33 0 40 3 40 20 0 21 -24 27 -35 9z"/>
<path d="M3711 2448 c0 -13 4 -31 8 -42 6 -15 9 -12 18 17 9 29 8 37 -4 41
-22 9 -23 8 -22 -16z"/>
<path d="M3880 2459 c0 -5 5 -7 10 -4 6 3 10 8 10 11 0 2 -4 4 -10 4 -5 0 -10
-5 -10 -11z"/>
<path d="M705 2450 c-3 -5 -2 -10 4 -10 5 0 13 5 16 10 3 6 2 10 -4 10 -5 0
-13 -4 -16 -10z"/>
<path d="M2288 2443 c6 -2 18 -2 25 0 6 3 1 5 -13 5 -14 0 -19 -2 -12 -5z"/>
<path d="M3640 2441 c0 -5 5 -13 10 -16 6 -3 10 -2 10 4 0 5 -4 13 -10 16 -5
3 -10 2 -10 -4z"/>
<path d="M2160 2430 c0 -5 5 -10 10 -10 6 0 10 5 10 10 0 6 -4 10 -10 10 -5 0
-10 -4 -10 -10z"/>
<path d="M3761 2414 c0 -11 3 -14 6 -6 3 7 2 16 -1 19 -3 4 -6 -2 -5 -13z"/>
<path d="M4599 2419 c-8 -4 -25 -12 -39 -18 -18 -8 -19 -10 -6 -8 14 1 22 -6
26 -22 6 -25 30 -42 30 -22 0 6 8 11 18 12 13 0 12 3 -5 11 -38 18 -26 28 34
28 34 0 53 4 48 9 -13 11 -89 18 -106 10z"/>
<path d="M4733 2423 c-18 -7 -16 -23 3 -23 8 0 13 4 9 9 -3 5 3 12 12 14 12 3
13 5 3 5 -8 0 -21 -2 -27 -5z"/>
<path d="M525 2402 c-4 -4 -11 -8 -16 -8 -5 -1 -13 -2 -19 -3 -5 0 -10 -8 -10
-17 0 -12 9 -14 42 -12 23 2 43 8 45 13 4 13 -32 36 -42 27z"/>
<path d="M838 2402 c-74 -5 -57 -17 19 -14 66 3 66 2 49 -17 -10 -11 -28 -21
-40 -23 -15 -2 -21 -10 -21 -28 0 -23 3 -25 43 -22 23 1 42 -2 42 -7 0 -5 16
-12 35 -15 20 -4 33 -11 30 -15 -3 -5 2 -12 11 -15 22 -9 26 -8 19 5 -4 6 2
13 14 16 24 6 28 23 6 23 -8 0 -15 9 -15 20 0 15 7 20 26 20 24 0 26 -3 21
-30 -6 -27 -4 -30 18 -30 14 0 25 6 25 13 1 6 3 28 6 47 4 27 0 42 -16 59 -22
26 -32 23 -37 -11 -4 -24 -22 -40 -35 -32 -4 3 -8 18 -8 35 l0 29 -72 -2 c-40
-2 -94 -4 -120 -6z m72 -82 c0 -5 -4 -10 -9 -10 -6 0 -13 5 -16 10 -3 6 1 10
9 10 9 0 16 -4 16 -10z"/>
<path d="M4460 2399 c0 -5 9 -9 20 -9 11 0 20 2 20 4 0 2 -9 6 -20 9 -11 3
-20 1 -20 -4z"/>
<path d="M1164 2353 l1 -48 45 2 c25 2 55 3 68 4 12 1 22 7 22 14 0 17 -80 19
-80 2 0 -7 -5 -4 -11 6 -6 9 -16 14 -22 11 -7 -4 -5 1 4 11 14 14 21 15 38 6
11 -7 21 -8 21 -3 0 5 12 9 27 8 19 -1 29 5 31 17 3 15 -5 17 -71 17 l-74 0 1
-47z"/>
<path d="M1345 2390 c-3 -5 1 -10 10 -10 9 0 13 5 10 10 -3 6 -8 10 -10 10 -2
0 -7 -4 -10 -10z"/>
<path d="M4440 2385 c0 -11 -11 -15 -37 -15 -43 0 -34 -17 11 -22 27 -3 30 -7
31 -43 2 -57 -9 -75 -48 -75 -28 0 -34 4 -42 33 -13 43 -37 42 -42 -3 -10 -82
-6 -301 5 -312 7 -7 14 -9 17 -6 3 3 7 51 8 106 2 56 7 105 11 109 14 15 21
-16 21 -96 0 -82 5 -93 35 -66 14 12 16 24 10 57 -5 23 -6 60 -4 82 9 82 19
68 24 -34 3 -58 2 -107 -2 -110 -8 -6 -3 -65 7 -80 9 -15 42 -12 48 4 3 7 1
18 -4 23 -5 5 -4 24 2 47 14 51 13 285 -1 316 -1 3 -2 8 -1 13 0 4 -3 7 -9 7
-23 0 -7 20 23 28 28 8 29 10 12 16 -11 4 -32 13 -47 21 -24 12 -28 12 -28 0z
m-61 -189 c9 -11 7 -15 -8 -19 -13 -3 -21 1 -24 14 -6 22 15 26 32 5z"/>
<path d="M624 2374 c3 -9 6 -40 6 -70 0 -30 4 -54 10 -54 5 0 7 6 4 14 -3 8 3
19 13 25 14 7 20 22 22 55 2 45 2 46 -30 46 -24 0 -30 -3 -25 -16z"/>
<path d="M4310 2370 c0 -5 12 -10 28 -10 21 0 24 2 12 10 -20 13 -40 13 -40 0z"/>
<path d="M848 2363 c7 -3 16 -2 19 1 4 3 -2 6 -13 5 -11 0 -14 -3 -6 -6z"/>
<path d="M530 2340 c0 -5 5 -10 10 -10 6 0 10 5 10 10 0 6 -4 10 -10 10 -5 0
-10 -4 -10 -10z"/>
<path d="M4580 2306 c0 -14 4 -26 9 -26 5 0 11 -7 15 -15 3 -8 0 -14 -6 -12
-7 1 -15 -19 -20 -48 -5 -27 -12 -69 -17 -92 -4 -22 -4 -48 0 -55 12 -21 -1
-58 -20 -58 -12 0 -13 -2 -3 -9 11 -6 10 -10 -5 -16 -16 -7 -15 -9 7 -15 15
-4 24 -13 22 -22 -1 -8 6 -22 16 -31 17 -16 20 -15 41 7 24 25 37 86 19 86 -7
0 -7 4 0 13 7 8 9 52 6 117 -2 58 -4 113 -5 123 0 9 -6 17 -12 17 -7 1 -2 9
11 20 25 21 22 24 -25 35 -31 6 -33 5 -33 -19z"/>
<path d="M4400 2294 c0 -8 5 -12 10 -9 6 4 8 11 5 16 -9 14 -15 11 -15 -7z"/>
<path d="M1185 2280 c3 -5 8 -10 11 -10 2 0 4 5 4 10 0 6 -5 10 -11 10 -5 0
-7 -4 -4 -10z"/>
<path d="M1210 2245 c0 -45 12 -60 24 -29 12 31 7 74 -9 74 -11 0 -15 -12 -15
-45z"/>
<path d="M840 2267 c0 -7 5 -19 11 -27 8 -11 12 -12 16 -2 2 6 8 10 12 8 4 -3
12 3 17 12 9 15 6 17 -23 19 -20 1 -33 -3 -33 -10z"/>
<path d="M4386 2263 c5 -5 12 -12 16 -18 4 -6 8 -2 8 8 0 9 -7 17 -17 17 -9 0
-12 -3 -7 -7z"/>
<path d="M2287 2200 c3 -11 7 -20 9 -20 2 0 4 9 4 20 0 11 -4 20 -9 20 -5 0
-7 -9 -4 -20z"/>
<path d="M862 2187 c-6 -7 -12 -39 -13 -72 -2 -70 -12 -87 -45 -79 -19 5 -24
2 -24 -12 0 -14 -3 -15 -12 -6 -17 17 -25 15 -31 -7 -4 -16 2 -20 37 -24 22
-2 45 0 50 4 6 6 3 9 -7 9 -23 0 -22 16 2 23 23 6 31 0 31 -24 0 -9 6 -20 13
-22 7 -3 5 -6 -5 -6 -24 -1 -23 -17 3 -34 23 -17 59 -11 59 9 0 8 -4 14 -8 14
-11 0 -9 104 2 112 10 7 -22 128 -34 128 -4 0 -12 -6 -18 -13z"/>
<path d="M1585 2181 c-3 -5 -1 -12 4 -15 13 -8 42 4 35 15 -7 12 -31 12 -39 0z"/>
<path d="M4241 2154 c0 -11 3 -14 6 -6 3 7 2 16 -1 19 -3 4 -6 -2 -5 -13z"/>
<path d="M1590 2140 c0 -5 5 -10 10 -10 6 0 10 5 10 10 0 6 -4 10 -10 10 -5 0
-10 -4 -10 -10z"/>
<path d="M620 2116 c-8 -10 -8 -21 -2 -32 5 -9 7 -25 5 -35 -3 -11 0 -19 7
-19 7 0 10 -7 6 -15 -3 -9 0 -15 8 -15 17 0 29 42 14 51 -6 4 -8 11 -4 17 3 5
0 12 -8 15 -9 4 -12 14 -9 26 6 25 0 27 -17 7z"/>
<path d="M1018 2103 c7 -3 16 -2 19 1 4 3 -2 6 -13 5 -11 0 -14 -3 -6 -6z"/>
<path d="M1587 2081 c-17 -29 -18 -55 -4 -78 5 -7 5 -17 2 -23 -11 -17 7 -11
21 7 7 11 9 22 3 29 -5 6 -5 24 1 44 13 45 -1 57 -23 21z"/>
<path d="M1050 2036 c0 -25 -10 -33 -23 -19 -4 3 -2 12 4 20 12 14 1 18 -16 5
-14 -10 -12 -42 3 -69 8 -14 9 -23 2 -23 -12 0 -13 -40 -1 -59 6 -9 11 -10 15
-2 4 6 13 11 19 11 9 0 9 -2 0 -8 -7 -4 -9 -13 -4 -21 7 -10 12 -8 25 10 16
23 16 25 -4 41 -11 9 -20 22 -20 28 0 10 4 9 15 0 22 -19 29 -6 16 32 -5 18
-9 42 -8 52 1 10 -4 21 -10 23 -8 3 -13 -5 -13 -21z"/>
<path d="M680 2030 c0 -5 9 -10 21 -10 11 0 17 5 14 10 -3 6 -13 10 -21 10 -8
0 -14 -4 -14 -10z"/>
<path d="M555 2020 c-3 -5 -1 -10 4 -10 6 0 11 5 11 10 0 6 -2 10 -4 10 -3 0
-8 -4 -11 -10z"/>
<path d="M3778 1993 c7 -3 16 -2 19 1 4 3 -2 6 -13 5 -11 0 -14 -3 -6 -6z"/>
<path d="M610 1975 c-11 -13 -8 -15 21 -14 19 0 27 3 19 6 -8 3 -18 10 -21 15
-3 5 -12 2 -19 -7z"/>
<path d="M708 1983 c6 -2 10 -9 6 -14 -3 -5 5 -9 17 -9 22 0 22 0 3 15 -10 8
-23 14 -29 14 -5 0 -4 -3 3 -6z"/>
<path d="M790 1960 c0 -5 7 -10 15 -10 8 0 15 5 15 10 0 6 -7 10 -15 10 -8 0
-15 -4 -15 -10z"/>
<path d="M728 1943 c6 -2 18 -2 25 0 6 3 1 5 -13 5 -14 0 -19 -2 -12 -5z"/>
<path d="M4130 1940 c0 -5 5 -10 11 -10 5 0 7 5 4 10 -3 6 -8 10 -11 10 -2 0
-4 -4 -4 -10z"/>
<path d="M4380 1940 c0 -5 4 -10 9 -10 6 0 13 5 16 10 3 6 -1 10 -9 10 -9 0
-16 -4 -16 -10z"/>
<path d="M3415 1920 c-3 -5 3 -10 15 -10 12 0 18 5 15 10 -3 6 -10 10 -15 10
-5 0 -12 -4 -15 -10z"/>
<path d="M4185 1920 c4 -6 11 -8 16 -5 14 9 11 15 -7 15 -8 0 -12 -5 -9 -10z"/>
<path d="M4321 1914 c20 -24 -14 -46 -61 -39 -29 4 -31 3 -9 -4 14 -4 38 -21
53 -36 15 -15 30 -24 34 -21 3 4 0 11 -8 16 -12 8 -12 10 2 15 11 4 16 16 13
33 -1 15 -3 33 -4 40 0 6 -8 12 -17 12 -14 0 -14 -2 -3 -16z"/>
<path d="M1585 1907 c-4 -10 -5 -21 -1 -24 10 -10 18 4 13 24 -4 17 -4 17 -12
0z"/>
<path d="M4135 1910 c-3 -5 -2 -10 4 -10 5 0 13 5 16 10 3 6 2 10 -4 10 -5 0
-13 -4 -16 -10z"/>
<path d="M4515 1880 c-4 -6 5 -10 20 -10 15 0 28 -7 32 -17 7 -20 23 -33 38
-33 6 1 1 7 -9 15 -14 11 -16 15 -5 15 8 0 23 7 33 15 18 13 15 15 -31 14 -28
-1 -55 1 -61 5 -6 3 -13 2 -17 -4z"/>
<path d="M1170 1860 c0 -5 5 -10 11 -10 5 0 7 5 4 10 -3 6 -8 10 -11 10 -2 0
-4 -4 -4 -10z"/>
<path d="M1216 1831 c-27 -10 -7 -20 27 -14 21 4 25 8 15 14 -15 10 -17 10
-42 0z"/>
<path d="M1381 1826 c-16 -19 3 -30 29 -16 11 6 20 13 20 16 0 3 -4 2 -10 -1
-5 -3 -10 -1 -10 4 0 15 -15 14 -29 -3z"/>
<path d="M3668 1833 c7 -3 16 -2 19 1 4 3 -2 6 -13 5 -11 0 -14 -3 -6 -6z"/>
<path d="M3765 1830 c-3 -5 -1 -10 4 -10 6 0 11 5 11 10 0 6 -2 10 -4 10 -3 0
-8 -4 -11 -10z"/>
<path d="M1160 1819 c0 -5 5 -7 10 -4 6 3 10 8 10 11 0 2 -4 4 -10 4 -5 0 -10
-5 -10 -11z"/>
<path d="M3810 1810 c0 -5 7 -10 16 -10 8 0 12 5 9 10 -3 6 -10 10 -16 10 -5
0 -9 -4 -9 -10z"/>
<path d="M1118 1803 c6 -2 18 -2 25 0 6 3 1 5 -13 5 -14 0 -19 -2 -12 -5z"/>
<path d="M4605 1800 c3 -5 10 -10 16 -10 5 0 9 5 9 10 0 6 -7 10 -16 10 -8 0
-12 -4 -9 -10z"/>
<path d="M4300 1790 c0 -5 5 -10 10 -10 6 0 10 5 10 10 0 6 -4 10 -10 10 -5 0
-10 -4 -10 -10z"/>
<path d="M3838 1783 c7 -3 16 -2 19 1 4 3 -2 6 -13 5 -11 0 -14 -3 -6 -6z"/>
<path d="M805 1720 c-3 -5 1 -10 10 -10 9 0 13 5 10 10 -3 6 -8 10 -10 10 -2
0 -7 -4 -10 -10z"/>
<path d="M700 1700 c-12 -8 -11 -10 7 -10 12 0 25 5 28 10 8 13 -15 13 -35 0z"/>
<path d="M4560 1699 c0 -5 5 -7 10 -4 6 3 10 8 10 11 0 2 -4 4 -10 4 -5 0 -10
-5 -10 -11z"/>
<path d="M725 1680 c-3 -5 -2 -10 4 -10 5 0 13 5 16 10 3 6 2 10 -4 10 -5 0
-13 -4 -16 -10z"/>
<path d="M798 1663 c6 -2 10 -9 6 -14 -3 -5 2 -9 10 -9 8 0 17 4 20 9 6 9 -17
22 -37 20 -8 0 -8 -2 1 -6z"/>
<path d="M707 1653 c-4 -3 -7 -11 -7 -17 0 -6 5 -5 12 2 6 6 9 14 7 17 -3 3
-9 2 -12 -2z"/>
<path d="M840 1440 c-23 -7 -23 -8 -3 -9 12 -1 25 4 28 9 3 6 5 10 3 9 -2 -1
-14 -5 -28 -9z"/>
<path d="M4673 3103 c-7 -2 -13 -13 -13 -23 0 -21 16 -29 43 -22 10 3 17 14
17 28 0 24 -17 30 -47 17z"/>
<path d="M4387 3083 c-4 -3 -7 -15 -7 -25 0 -13 7 -18 25 -18 20 0 25 5 25 25
0 18 -5 25 -18 25 -10 0 -22 -3 -25 -7z"/>
<path d="M4271 3064 c0 -11 3 -14 6 -6 3 7 2 16 -1 19 -3 4 -6 -2 -5 -13z"/>
<path d="M4241 3054 c0 -11 3 -14 6 -6 3 7 2 16 -1 19 -3 4 -6 -2 -5 -13z"/>
<path d="M4140 3060 c0 -5 5 -10 10 -10 6 0 10 5 10 10 0 6 -4 10 -10 10 -5 0
-10 -4 -10 -10z"/>
<path d="M4380 2931 c0 -16 6 -32 13 -34 10 -4 10 -6 0 -6 -7 -1 -13 -5 -13
-11 0 -19 25 -10 35 13 15 33 7 67 -16 67 -14 0 -19 -7 -19 -29z"/>
<path d="M4240 2934 c0 -8 5 -12 10 -9 6 4 8 11 5 16 -9 14 -15 11 -15 -7z"/>
<path d="M4110 2920 c0 -5 7 -7 15 -4 8 4 15 8 15 10 0 2 -7 4 -15 4 -8 0 -15
-4 -15 -10z"/>
<path d="M2316 1721 c-6 -10 24 -25 32 -16 3 3 0 5 -7 5 -7 0 -9 5 -6 10 3 6
2 10 -4 10 -5 0 -12 -4 -15 -9z"/>
<path d="M2388 1722 c13 -4 23 -10 23 -14 -1 -11 11 -8 34 8 18 13 15 14 -30
13 -34 -1 -43 -3 -27 -7z"/>
<path d="M2500 1726 c0 -2 11 -6 25 -8 13 -3 22 -1 19 3 -5 9 -44 13 -44 5z"/>
<path d="M2671 1720 c-7 -4 1 -7 18 -8 17 0 31 1 31 3 0 7 -39 12 -49 5z"/>
<path d="M2777 1724 c-13 -13 5 -24 36 -24 30 1 31 1 13 15 -21 16 -39 19 -49
9z"/>
<path d="M2738 1713 c7 -3 16 -2 19 1 4 3 -2 6 -13 5 -11 0 -14 -3 -6 -6z"/>
<path d="M2765 1610 c3 -5 8 -10 11 -10 2 0 4 5 4 10 0 6 -5 10 -11 10 -5 0
-7 -4 -4 -10z"/>
<path d="M2660 1600 c0 -5 5 -10 11 -10 5 0 7 5 4 10 -3 6 -8 10 -11 10 -2 0
-4 -4 -4 -10z"/>
<path d="M2554 1555 c-17 -13 -17 -14 -2 -15 9 0 20 5 23 11 11 17 0 20 -21 4z"/>
<path d="M2598 1563 c7 -3 16 -2 19 1 4 3 -2 6 -13 5 -11 0 -14 -3 -6 -6z"/>
<path d="M2740 1561 c0 -5 6 -12 13 -15 6 -3 -27 -4 -75 -2 -68 3 -90 1 -100
-11 -10 -13 1 -14 92 -11 76 2 105 -1 108 -10 4 -14 32 -16 32 -2 0 6 -6 10
-12 10 -10 0 -10 2 0 8 11 8 4 14 -50 40 -5 2 -8 -1 -8 -7z"/>
<path d="M2380 1349 c0 -5 12 -9 27 -9 30 0 27 9 -6 15 -11 2 -21 0 -21 -6z"/>
<path d="M2920 1350 c0 -5 7 -10 15 -10 8 0 15 5 15 10 0 6 -7 10 -15 10 -8 0
-15 -4 -15 -10z"/>
<path d="M2350 1315 c7 -8 19 -15 26 -15 8 0 23 -9 34 -20 l20 -20 0 31 c0 27
-2 30 -15 19 -12 -10 -15 -10 -15 4 0 11 -9 16 -31 16 -27 0 -30 -2 -19 -15z"/>
<path d="M2915 1300 c-3 -5 -2 -10 4 -10 5 0 13 5 16 10 3 6 2 10 -4 10 -5 0
-13 -4 -16 -10z"/>
<path d="M3018 1293 c7 -3 16 -2 19 1 4 3 -2 6 -13 5 -11 0 -14 -3 -6 -6z"/>
<path d="M2338 1273 c7 -3 16 -2 19 1 4 3 -2 6 -13 5 -11 0 -14 -3 -6 -6z"/>
<path d="M2455 1230 c-17 -7 -14 -9 13 -9 20 -1 31 3 27 9 -7 12 -13 12 -40 0z"/>
<path d="M2890 1120 c-9 -6 -10 -10 -3 -10 6 0 15 5 18 10 8 12 4 12 -15 0z"/>
<path d="M2990 1120 c0 -5 5 -10 10 -10 6 0 10 5 10 10 0 6 -4 10 -10 10 -5 0
-10 -4 -10 -10z"/>
<path d="M2415 1040 c4 -6 11 -8 16 -5 14 9 11 15 -7 15 -8 0 -12 -5 -9 -10z"/>
<path d="M2845 1030 c-3 -5 -1 -10 4 -10 6 0 11 5 11 10 0 6 -2 10 -4 10 -3 0
-8 -4 -11 -10z"/>
<path d="M2458 963 c7 -3 16 -2 19 1 4 3 -2 6 -13 5 -11 0 -14 -3 -6 -6z"/>
<path d="M2900 959 c0 -5 5 -7 10 -4 6 3 10 8 10 11 0 2 -4 4 -10 4 -5 0 -10
-5 -10 -11z"/>
<path d="M2932 908 c2 -6 10 -14 16 -16 7 -2 10 2 6 12 -7 18 -28 22 -22 4z"/>
<path d="M2380 870 c0 -5 5 -10 11 -10 5 0 7 5 4 10 -3 6 -8 10 -11 10 -2 0
-4 -4 -4 -10z"/>
<path d="M2905 820 c3 -5 11 -10 16 -10 6 0 7 5 4 10 -3 6 -11 10 -16 10 -6 0
-7 -4 -4 -10z"/>
<path d="M2357 769 c7 -7 15 -10 18 -7 3 3 -2 9 -12 12 -14 6 -15 5 -6 -5z"/>
<path d="M2415 760 c3 -5 14 -10 23 -10 15 0 15 2 2 10 -20 13 -33 13 -25 0z"/>
<path d="M2940 710 c-11 -7 -6 -10 20 -10 26 0 31 3 20 10 -8 5 -17 10 -20 10
-3 0 -12 -5 -20 -10z"/>
<path d="M2895 670 c-3 -5 -2 -10 4 -10 5 0 13 5 16 10 3 6 2 10 -4 10 -5 0
-13 -4 -16 -10z"/>
<path d="M2940 604 c0 -8 5 -12 10 -9 6 4 8 11 5 16 -9 14 -15 11 -15 -7z"/>
<path d="M2900 570 c0 -12 28 -25 36 -17 3 3 -4 10 -15 17 -15 7 -21 7 -21 0z"/>
<path d="M2878 523 c6 -2 18 -2 25 0 6 3 1 5 -13 5 -14 0 -19 -2 -12 -5z"/>
<path d="M2610 2233 c0 -6 -3 -18 -6 -27 -4 -11 -1 -16 10 -16 9 0 16 -8 16
-19 0 -11 5 -23 10 -26 6 -4 10 13 10 44 0 28 -4 51 -10 51 -5 0 -10 -6 -10
-12 0 -9 -4 -8 -10 2 -6 9 -10 10 -10 3z"/>
</g>
</svg>
